<?xml version="1.0" standalone="no"?>
<!DOCTYPE svg PUBLIC "-//W3C//DTD SVG 1.1//EN" "http://www.w3.org/Graphics/SVG/1.1/DTD/svg11.dtd" >
<svg>
<metadata>
Created by FontForge 20090622 at Mon Jul 27 06:10:34 2015
 By deploy user
2006 Lukasz Dziedzic published by FSI FontShop International GmbH
</metadata>
<defs>
<font id="ClanOT-News" horiz-adv-x="399" >
  <font-face 
    font-family="ClanOT-News"
    font-weight="475"
    font-stretch="normal"
    units-per-em="1000"
    panose-1="2 11 6 4 2 1 1 2 1 2"
    ascent="787"
    descent="-213"
    x-height="596"
    cap-height="750"
    bbox="-126 -233 1167 959"
    underline-thickness="70"
    underline-position="-30"
    unicode-range="U+000D-U+FB02"
  />
<missing-glyph horiz-adv-x="620" 
d="M83 0v750h454v-750h-454zM145 62h330v626h-330v-626z" />
    <glyph glyph-name="f_i" unicode="fi" horiz-adv-x="697" 
d="M216 523v-523h-94v523h-89v73h88v27q0 79 48.5 126t147.5 47q46 0 80 -9l-3 -66q-28 7 -58 7q-120 0 -120 -106v-26h372v-596h-96v523h-276zM603 749q0 -52 -62 -52t-62 52q0 51 62 51t62 -51z" />
    <glyph glyph-name="f_j" unicode="fj" horiz-adv-x="697" 
d="M216 0h-94v523h-89v73h88v27q0 79 48.5 126t147.5 47q46 0 80 -9l-3 -66q-28 7 -58 7q-120 0 -120 -106v-26h372v-605q0 -149 -143 -149q-36 0 -69 12l5 70q23 -7 42 -7q71 0 71 77v529h-278v-523zM603 749q0 -52 -62 -52t-62 52q0 51 62 51t62 -51z" />
    <glyph glyph-name="f_l" unicode="fl" horiz-adv-x="667" 
d="M564 0h-94v725q-68 8 -102 8q-82 0 -117 -28t-35 -84v-25h125v-73h-125v-523h-95v523h-88v73h88v28q0 176 248 176q43 0 106 -6.5t89 -7.5v-786z" />
    <glyph glyph-name=".notdef" horiz-adv-x="620" 
d="M83 0v750h454v-750h-454zM145 62h330v626h-330v-626z" />
    <glyph glyph-name=".null" horiz-adv-x="0" 
 />
    <glyph glyph-name=".null" horiz-adv-x="0" 
 />
    <glyph glyph-name="nonmarkingreturn" horiz-adv-x="333" 
 />
    <glyph glyph-name="CR" unicode="&#xd;" horiz-adv-x="300" 
 />
    <glyph glyph-name="space" unicode=" " horiz-adv-x="300" 
 />
    <glyph glyph-name="exclam" unicode="!" horiz-adv-x="303" 
d="M186 201h-72l-15 549h103zM214 45q0 -56 -61 -56t-61 56q0 57 61 57t61 -57z" />
    <glyph glyph-name="quotedbl" unicode="&#x22;" horiz-adv-x="386" 
d="M239 770h96l-19 -241h-63zM59 770h96l-19 -241h-63z" />
    <glyph glyph-name="numbersign" unicode="#" horiz-adv-x="649" 
d="M65 293h116l25 168h-140v76h149l29 213h75l-28 -213h114l28 213h74l-29 -213h108v-76h-117l-23 -168h139v-76h-149l-29 -217h-74l29 217h-115l-29 -217h-75l29 217h-107v76zM282 461l-25 -168h114l25 168h-114z" />
    <glyph glyph-name="dollar" unicode="$" horiz-adv-x="649" 
d="M309 -83l-55 5l6 67q-110 10 -177 50l12 94q81 -48 174 -58l28 270q-49 18 -79.5 32.5t-65.5 39t-52 60t-17 81.5q0 97 66 149.5t190 54.5l7 65l60 -4l-7 -64q81 -7 136 -33l-7 -89q-68 25 -139 31l-25 -237q46 -16 77.5 -31.5t64.5 -41t50 -63.5t17 -88
q0 -112 -62.5 -165.5t-194.5 -55.5zM494 195q0 48 -36 76.5t-106 54.5l-27 -254q169 1 169 123zM170 563q0 -42 35 -66.5t102 -46.5l23 221q-80 -1 -120 -30t-40 -78z" />
    <glyph glyph-name="percent" unicode="%" horiz-adv-x="711" 
d="M333 588q0 -90 -35.5 -132.5t-106.5 -42.5q-74 0 -108.5 42t-34.5 133q0 92 33.5 133t109.5 41q73 0 107.5 -40t34.5 -134zM268 589q0 64 -18 88t-59 24q-42 0 -60 -24t-18 -88t18.5 -88t59.5 -24t59 24t18 88zM515 734l56 -43l-389 -676l-57 43zM663 166
q0 -90 -35.5 -132.5t-107.5 -42.5q-74 0 -108.5 42t-34.5 133q0 93 33.5 135t110.5 42q72 0 107 -41.5t35 -135.5zM597 166q0 64 -17.5 88t-58.5 24q-42 0 -60 -24t-18 -88q0 -63 18 -87t59 -24t59 24t18 87z" />
    <glyph glyph-name="ampersand" unicode="&#x26;" horiz-adv-x="694" 
d="M683 77l-34 -86q-75 40 -159 107q-102 -111 -236 -111q-105 0 -155.5 56.5t-50.5 142.5q0 73 37.5 128t103.5 106q-66 103 -66 172q0 77 45.5 123.5t140.5 46.5q80 0 126.5 -37t46.5 -98q0 -32 -12 -60.5t-40.5 -57t-49 -45.5t-61.5 -48l-15 -11q70 -90 175 -182
q48 77 64 161l81 1q-11 -104 -80 -215q73 -57 139 -93zM269 78q83 0 156 75q-109 95 -189 200q-91 -79 -91 -160q0 -54 34 -84.5t90 -30.5zM211 592q0 -48 47 -122q44 30 66.5 48.5t43.5 46t21 54.5q0 32 -22 50t-61 18q-42 0 -68.5 -25t-26.5 -70z" />
    <glyph glyph-name="quotesingle" unicode="'" horiz-adv-x="207" 
d="M55 770h96l-19 -241h-63z" />
    <glyph glyph-name="parenleft" unicode="(" horiz-adv-x="332" 
d="M252 796l77 -6q-145 -202 -145 -458q0 -254 144 -458l-76 -6q-75 86 -116.5 206.5t-41.5 257.5q0 273 158 464z" />
    <glyph glyph-name="parenright" unicode=")" horiz-adv-x="331" 
d="M3 790l77 6q157 -190 157 -464q0 -136 -41.5 -256.5t-115.5 -207.5l-76 6q143 205 143 458q0 255 -144 458z" />
    <glyph glyph-name="asterisk" unicode="*" horiz-adv-x="359" 
d="M157 791h48l5 -112l107 29l17 -50l-107 -37l67 -95l-37 -31l-76 91l-77 -91l-39 29l67 97l-107 37l18 50l107 -29z" />
    <glyph glyph-name="plus" unicode="+" horiz-adv-x="597" 
d="M524 294h-186v-182h-84v182h-181v90h181v185h84v-185h186v-90z" />
    <glyph glyph-name="comma" unicode="," horiz-adv-x="250" 
d="M124 110q62 0 62 -66q0 -28 -23.5 -86.5t-49.5 -99.5l-34 9l26 123q-17 5 -29 21t-12 35q0 64 60 64z" />
    <glyph glyph-name="hyphen" unicode="-" horiz-adv-x="405" 
d="M70 376h265v-71h-265v71z" />
    <glyph glyph-name="period" unicode="." horiz-adv-x="252" 
d="M188 51q0 -62 -62 -62q-33 0 -47.5 14.5t-14.5 47.5q0 61 62 61t62 -61z" />
    <glyph glyph-name="slash" unicode="/" horiz-adv-x="441" 
d="M354 794h82l-345 -920h-80z" />
    <glyph glyph-name="zero" unicode="0" horiz-adv-x="649" 
d="M592 374q0 -206 -63 -295.5t-204 -89.5q-143 0 -205.5 89t-62.5 296q0 211 62 298t206 87q143 0 205 -87t62 -298zM494 375q0 118 -19 182.5t-54 88t-96 23.5q-62 0 -97.5 -23.5t-54.5 -88.5t-19 -182q0 -119 19.5 -184.5t54.5 -88.5t97 -23t97 23.5t53.5 88.5t18.5 184z
" />
    <glyph glyph-name="one" unicode="1" horiz-adv-x="649" 
d="M181 0v76h133v464l2 80l-2 2l-68 -44l-92 -58l-11 87l214 145h59v-676h130v-76h-365z" />
    <glyph glyph-name="two" unicode="2" horiz-adv-x="649" 
d="M568 552q0 -45 -18 -91.5t-45 -86t-76 -90t-93 -90.5t-115 -99v-3h351l-3 -92h-483v69l80.5 75l80 75.5l68.5 68t63 69.5t45 62t33 64t10 59q0 56 -39.5 90t-120.5 34q-103 0 -193 -73l-27 83q101 82 236 82q118 0 182 -54.5t64 -151.5z" />
    <glyph glyph-name="three" unicode="3" horiz-adv-x="649" 
d="M580 224q0 -109 -68.5 -171t-206.5 -62q-127 0 -225 60l21 82q91 -55 202 -55q90 0 135 40.5t45 109.5t-54.5 100t-184.5 31v75q119 0 171 31.5t52 94.5q0 54 -41 81.5t-117 27.5q-111 0 -199 -72l-26 80q95 81 230 81q116 0 180.5 -49.5t64.5 -141.5q0 -123 -123 -166
v-2q144 -38 144 -175z" />
    <glyph glyph-name="four" unicode="4" horiz-adv-x="649" 
d="M599 163h-91v-163h-92v163h-347l-8 65l326 522h121v-500h94zM419 250l5 332l3 81l-2 1l-42 -70l-168 -276l-43 -65l1 -3h246z" />
    <glyph glyph-name="five" unicode="5" horiz-adv-x="649" 
d="M571 256q0 -265 -262 -265q-127 0 -218 60l19 84q92 -57 191 -57q89 0 131 42t42 127q0 74 -40.5 107.5t-126.5 33.5q-98 0 -174 -38l-38 39l30 361h409l4 -92h-335l-17 -209q67 24 147 24q238 0 238 -217z" />
    <glyph glyph-name="six" unicode="6" horiz-adv-x="649" 
d="M582 258q0 -133 -64.5 -200t-188.5 -67q-134 0 -200 83.5t-66 277.5q0 407 313 407q89 0 166 -30l-9 -88q-69 26 -145 26q-110 0 -166.5 -61t-63.5 -192l3 -2q82 66 188 66q119 0 176 -54.5t57 -165.5zM485 259q0 72 -37 106t-117 34q-44 0 -92.5 -20t-75.5 -52
q2 -137 40.5 -193t125.5 -56q156 0 156 181z" />
    <glyph glyph-name="seven" unicode="7" horiz-adv-x="649" 
d="M590 749v-86l-317 -663h-113l331 652h-424l5 97h518z" />
    <glyph glyph-name="eight" unicode="8" horiz-adv-x="649" 
d="M62 208q0 61 35.5 110t97.5 77v3q-104 52 -104 169q0 191 235 191q234 0 234 -191q0 -115 -109 -173v-2q64 -25 100.5 -67.5t36.5 -116.5q0 -217 -262 -217q-135 0 -199.5 54t-64.5 163zM491 201q0 19 -5.5 35t-12 27.5t-22 23.5t-25 18.5t-33 16t-33.5 13t-39 12.5
t-38 12q-126 -57 -126 -152q0 -69 40 -101.5t131 -32.5q163 0 163 128zM183 563q0 -26 11 -47t24.5 -33.5t43 -25.5t47 -18.5t56.5 -16.5q107 51 107 137q0 117 -147 117q-142 0 -142 -113z" />
    <glyph glyph-name="nine" unicode="9" horiz-adv-x="649" 
d="M581 412q0 -222 -73.5 -321.5t-225.5 -99.5q-97 0 -174 35l14 84q72 -31 151 -31q106 0 157 66t57 214l-2 1q-72 -60 -183 -60q-121 0 -181 59t-60 164q0 112 63 174t188 62q129 0 199 -87.5t70 -259.5zM483 448q-3 224 -172 224q-155 0 -155 -145q0 -146 162 -146
q109 0 165 67z" />
    <glyph glyph-name="colon" unicode=":" horiz-adv-x="252" 
d="M188 505q0 -62 -62 -62q-33 0 -47.5 14.5t-14.5 47.5q0 61 62 61t62 -61zM188 51q0 -62 -62 -62q-33 0 -47.5 14.5t-14.5 47.5q0 61 62 61t62 -61z" />
    <glyph glyph-name="semicolon" unicode=";" horiz-adv-x="256" 
d="M192 505q0 -62 -62 -62q-33 0 -47.5 14.5t-14.5 47.5q0 61 62 61t62 -61zM126 110q62 0 62 -66q0 -28 -23.5 -86.5t-49.5 -99.5l-34 9l26 123q-17 5 -29 21t-12 35q0 64 60 64z" />
    <glyph glyph-name="less" unicode="&#x3c;" horiz-adv-x="597" 
d="M507 484l-228 -113l-73 -33v-3l73 -34l228 -110v-94l-417 215v48l417 222v-98z" />
    <glyph glyph-name="equal" unicode="=" horiz-adv-x="597" 
d="M520 387h-444v78h444v-78zM520 204h-444v78h444v-78z" />
    <glyph glyph-name="greater" unicode="&#x3e;" horiz-adv-x="597" 
d="M90 97v94l226 110l74 34v3l-74 34l-226 112l1 98l416 -222v-48z" />
    <glyph glyph-name="question" unicode="?" horiz-adv-x="513" 
d="M469 583q0 -81 -46.5 -141t-135.5 -108l-4 -133h-75l-6 170q88 53 129 97t41 101q0 103 -127 103q-99 0 -176 -69l-35 77q38 37 97 59.5t126 22.5q105 0 158.5 -46.5t53.5 -132.5zM307 45q0 -56 -60 -56q-32 0 -46.5 13t-14.5 43q0 57 61 57q60 0 60 -57z" />
    <glyph glyph-name="at" unicode="@" horiz-adv-x="862" 
d="M447 570q63 0 89 -43h3l15 36l53 -4l-44 -261q-3 -18 -3 -35q0 -79 68 -79q57 0 91.5 56t34.5 166q0 144 -78 234t-221 90q-111 0 -190.5 -54t-117 -140.5t-37.5 -194.5q0 -173 87.5 -281t257.5 -108q185 0 291 99l23 -53q-122 -104 -313 -104q-193 0 -299 120.5
t-106 326.5q0 90 26.5 170.5t76 142.5t127.5 98.5t175 36.5q163 0 259 -106.5t96 -276.5q0 -144 -54 -216.5t-138 -72.5q-91 0 -114 78l-3 1q-49 -79 -136 -79q-59 0 -95 43.5t-36 128.5q0 112 62 196.5t150 84.5zM489 306l27 158q-19 36 -66 36q-56 0 -96 -64t-40 -147
q0 -49 19.5 -74t53.5 -25q37 0 65.5 33t36.5 83z" />
    <glyph glyph-name="A" unicode="A" horiz-adv-x="711" 
d="M578 0l-60 179h-330l-60 -179h-110l276 750h122l277 -750h-115zM354 675l-25 -78l-111 -329h271l-109 329l-23 78h-3z" />
    <glyph glyph-name="B" unicode="B" horiz-adv-x="686" 
d="M625 213q0 -213 -241 -213h-287v750h275q223 0 223 -187q0 -130 -107 -166v-2q137 -32 137 -182zM523 221q0 65 -34.5 96t-107.5 31h-185v-260h189q69 0 103.5 30.5t34.5 102.5zM497 545q0 61 -30.5 88t-97.5 27h-173v-232h180q121 0 121 117z" />
    <glyph glyph-name="C" unicode="C" horiz-adv-x="606" 
d="M563 728l-13 -92q-67 31 -157 31q-121 0 -173 -63.5t-52 -221.5q0 -169 52.5 -235.5t175.5 -66.5q85 0 157 36l13 -86q-86 -44 -183 -44q-167 0 -245 95.5t-78 300.5q0 194 79.5 287.5t248.5 93.5q99 0 175 -35z" />
    <glyph glyph-name="D" unicode="D" horiz-adv-x="737" 
d="M677 378q0 -201 -78 -289.5t-243 -88.5h-259v750h257q171 0 247 -87.5t76 -284.5zM570 378q0 158 -49 217t-168 59h-154v-559h155q116 0 166 59.5t50 223.5z" />
    <glyph glyph-name="E" unicode="E" horiz-adv-x="623" 
d="M199 93h379l-3 -93h-478v750h461l3 -94h-362v-223h310v-86h-310v-254z" />
    <glyph glyph-name="F" unicode="F" horiz-adv-x="594" 
d="M560 653h-360v-230h302l-1 -91h-301v-332h-103v750h461z" />
    <glyph glyph-name="G" unicode="G" horiz-adv-x="679" 
d="M616 397v-368q-89 -43 -218 -43q-177 0 -257.5 92.5t-80.5 294.5q0 204 82 297t259 93q110 0 199 -37l-12 -92q-83 35 -182 35q-129 0 -183.5 -64.5t-54.5 -230.5q0 -163 51.5 -227.5t175.5 -64.5q75 0 130 21v294h91z" />
    <glyph glyph-name="H" unicode="H" horiz-adv-x="753" 
d="M656 0h-103v341h-354v-341h-102v750h102v-314h354v314h103v-750z" />
    <glyph glyph-name="I" unicode="I" horiz-adv-x="323" 
d="M109 0v750h105v-750h-105z" />
    <glyph glyph-name="J" unicode="J" horiz-adv-x="550" 
d="M453 750v-497q0 -135 -68.5 -201t-196.5 -66q-90 0 -151 41l8 91q51 -38 130 -38q174 0 174 174v496h104z" />
    <glyph glyph-name="K" unicode="K" horiz-adv-x="703" 
d="M677 0h-128l-241 346h-109v-346h-102v750h102v-317h111l230 317h122l-259 -355z" />
    <glyph glyph-name="L" unicode="L" horiz-adv-x="573" 
d="M200 96h349l-3 -96h-449v750h103v-654z" />
    <glyph glyph-name="M" unicode="M" horiz-adv-x="915" 
d="M97 750h116l215 -530l29 -75h3l28 75l215 530h115v-750h-93v496l2 81l-3 1l-29 -76l-203 -502h-72l-202 498l-29 76l-2 -1l1 -81v-492h-91v750z" />
    <glyph glyph-name="N" unicode="N" horiz-adv-x="758" 
d="M661 0h-73l-354 516l-44 68l-2 -1l1 -81v-502h-92v750h93l380 -567l2 1l-2 80v486h91v-750z" />
    <glyph glyph-name="O" unicode="O" horiz-adv-x="741" 
d="M681 375q0 -208 -71.5 -298.5t-238.5 -90.5q-166 0 -238.5 91.5t-72.5 297.5t72 296.5t239 90.5t238.5 -90t71.5 -297zM574 375q0 115 -20.5 178.5t-63 88.5t-119.5 25q-113 0 -158 -61.5t-45 -230.5q0 -168 45 -230.5t158 -62.5t158 62.5t45 230.5z" />
    <glyph glyph-name="P" unicode="P" horiz-adv-x="652" 
d="M608 515q0 -118 -62.5 -176t-199.5 -58h-147v-281h-102v750h249q138 0 200 -56t62 -179zM503 515q0 80 -37 113t-120 33h-147v-294h147q83 0 120 32.5t37 115.5z" />
    <glyph glyph-name="Q" unicode="Q" horiz-adv-x="741" 
d="M681 375q0 -180 -52.5 -270.5t-172.5 -109.5l163 -117l-128 -32l-140 140q-155 5 -223 97t-68 292q0 206 72 296.5t239 90.5t238.5 -90t71.5 -297zM574 375q0 115 -20.5 178.5t-63 88.5t-119.5 25q-113 0 -158 -61.5t-45 -230.5q0 -168 45 -230.5t158 -62.5t158 62.5
t45 230.5z" />
    <glyph glyph-name="R" unicode="R" horiz-adv-x="662" 
d="M592 536q0 -86 -38 -137.5t-109 -63.5l196 -335h-122l-169 316h-151v-316h-102v750h254q123 0 182 -52.5t59 -161.5zM486 532q0 70 -32 99.5t-103 29.5h-152v-264h148q73 0 106 31t33 104z" />
    <glyph glyph-name="S" unicode="S" horiz-adv-x="568" 
d="M527 214q0 -107 -66.5 -167.5t-189.5 -60.5q-122 0 -220 57l16 93q94 -57 203 -57q78 0 118 33.5t40 94.5q0 39 -27.5 67t-68.5 42.5t-89.5 33.5t-89.5 39.5t-68.5 62.5t-27.5 100q0 94 62 152t185 58q115 0 198 -40l-14 -89q-92 36 -179 36q-79 0 -116 -31t-37 -80
q0 -38 27.5 -64.5t68.5 -40t89.5 -32.5t89.5 -40t68.5 -64t27.5 -103z" />
    <glyph glyph-name="T" unicode="T" horiz-adv-x="583" 
d="M566 654h-223v-654h-104v654h-223l3 96h545z" />
    <glyph glyph-name="U" unicode="U" horiz-adv-x="736" 
d="M653 750v-480q0 -284 -285 -284q-286 0 -286 284v480h102v-479q0 -97 45 -142.5t139 -45.5t138.5 45.5t44.5 142.5v479h102z" />
    <glyph glyph-name="V" unicode="V" horiz-adv-x="693" 
d="M564 750h108l-267 -750h-117l-267 750h114l189 -575l24 -77h3l23 77z" />
    <glyph glyph-name="W" unicode="W" horiz-adv-x="1010" 
d="M450 750h114l137 -571l18 -79h3l15 79l123 571h102l-181 -750h-125l-133 571l-16 80h-3l-17 -80l-132 -571h-125l-182 750h107l123 -574l16 -79h3l17 79z" />
    <glyph glyph-name="X" unicode="X" horiz-adv-x="697" 
d="M645 750l-223 -359l238 -391h-118l-194 330l-190 -330h-120l233 389l-226 361h124l180 -302l178 302h118z" />
    <glyph glyph-name="Y" unicode="Y" horiz-adv-x="671" 
d="M21 750h118l163 -329l35 -73h3l33 73l163 329h113l-260 -496v-254h-104v254z" />
    <glyph glyph-name="Z" unicode="Z" horiz-adv-x="617" 
d="M562 0h-514v69l346 518l45 65l-1 2h-379l4 96h500v-78l-342 -511l-45 -63l1 -3h388z" />
    <glyph glyph-name="bracketleft" unicode="[" horiz-adv-x="326" 
d="M94 -128v922h229v-71h-143v-781h144v-70h-230z" />
    <glyph glyph-name="backslash" unicode="\" horiz-adv-x="384" 
d="M8 794h78l302 -920h-77z" />
    <glyph glyph-name="bracketright" unicode="]" horiz-adv-x="327" 
d="M232 794v-922h-229v69h144v782h-144v71h229z" />
    <glyph glyph-name="asciicircum" unicode="^" horiz-adv-x="649" 
d="M505 463l-180 268l-179 -268h-80l226 341h67l224 -341h-78z" />
    <glyph glyph-name="underscore" unicode="_" horiz-adv-x="429" 
d="M27 -45h378v-62h-378v62z" />
    <glyph glyph-name="grave" unicode="`" 
d="M286 662h-74l-109 143h114z" />
    <glyph glyph-name="a" unicode="a" horiz-adv-x="573" 
d="M427 0l-9 73l-3 1q-27 -39 -73.5 -61t-103.5 -22q-85 0 -134 47t-49 144q0 86 54.5 133.5t159.5 47.5q72 0 137 -23v59q0 69 -32.5 98t-106.5 29q-91 0 -167 -36l-9 79q85 39 192 39q117 0 166.5 -52t49.5 -171v-385h-72zM405 169v103q-37 22 -119 22q-142 0 -142 -111
q0 -114 120 -114q55 0 98 31t43 69z" />
    <glyph glyph-name="b" unicode="b" horiz-adv-x="630" 
d="M581 300q0 -163 -60.5 -237t-177.5 -74q-113 0 -173 74l-3 -1l-15 -62h-63v790l94 6v-175l-1 -80l2 -1q64 67 170 67q110 0 168.5 -72t58.5 -235zM485 298q0 128 -38 175.5t-118 47.5q-97 0 -146 -71v-309q20 -32 57.5 -52.5t89.5 -20.5q76 0 115.5 50t39.5 180z" />
    <glyph glyph-name="c" unicode="c" horiz-adv-x="498" 
d="M451 576l-6 -85q-59 27 -121 27q-96 0 -136.5 -50t-40.5 -166q0 -123 43.5 -176.5t131.5 -53.5q71 0 127 34l7 -78q-60 -41 -154 -41q-127 0 -190 76.5t-63 238.5q0 153 62 228t194 75q79 0 146 -29z" />
    <glyph glyph-name="d" unicode="d" horiz-adv-x="627" 
d="M542 0h-73l-12 62l-3 1q-57 -75 -176 -75q-120 0 -174.5 75t-54.5 236q0 308 230 308q104 0 168 -67l2 1l-2 80v168l95 6v-795zM447 140v311q-19 31 -57 49.5t-85 18.5q-87 0 -122.5 -51t-35.5 -173q0 -126 34.5 -177t122.5 -51q56 0 91.5 22t51.5 51z" />
    <glyph glyph-name="e" unicode="e" horiz-adv-x="578" 
d="M326 -12q-146 0 -211.5 78.5t-65.5 247.5q0 142 62 217t184 75q111 0 173 -68t62 -207q0 -20 -2 -46h-382q4 -116 48.5 -163.5t142.5 -47.5q84 0 162 38l11 -80q-81 -44 -184 -44zM144 350h299q-3 174 -147 174q-75 0 -111 -42.5t-41 -131.5z" />
    <glyph glyph-name="f" unicode="f" horiz-adv-x="404" 
d="M216 0h-95v523h-88v73h88v27q0 79 48.5 126t146.5 47q50 0 88 -12l-6 -65q-30 8 -65 8q-117 0 -117 -105v-26h153v-73h-153v-523z" />
    <glyph glyph-name="g" unicode="g" horiz-adv-x="573" 
d="M282 252q-48 0 -83 9q-45 -12 -45 -44q0 -36 52 -40l145 -12q105 -9 148 -43.5t43 -100.5q0 -179 -254 -179q-116 0 -172.5 42t-56.5 115q0 66 58 112q-50 29 -50 83q0 62 75 93q-71 43 -71 141q0 178 211 178q93 0 147 -37l98 39l21 -48l-72 -50q16 -37 16 -82
q0 -88 -48.5 -132t-161.5 -44zM335 81l-145 13q-49 -34 -49 -83q0 -94 145 -94q95 0 132 23.5t37 67.5q0 33 -25 50t-95 23zM283 531q-64 0 -91 -25t-27 -80q0 -59 30 -81.5t86 -22.5q67 0 93.5 25t26.5 79q0 58 -27.5 81.5t-90.5 23.5z" />
    <glyph glyph-name="h" unicode="h" horiz-adv-x="626" 
d="M552 0h-94v395q0 124 -135 124q-45 0 -83 -19.5t-57 -48.5v-451h-94v789l94 6v-173l-1 -80l2 -1q63 66 167 66q97 0 149 -55t52 -157v-395z" />
    <glyph glyph-name="i" unicode="i" horiz-adv-x="312" 
d="M203 0h-95v593l95 5v-598zM217 747q0 -51 -61 -51q-32 0 -46.5 11.5t-14.5 39.5q0 51 61 51t61 -51z" />
    <glyph glyph-name="j" unicode="j" horiz-adv-x="310" 
d="M202 598v-607q0 -149 -142 -149q-36 0 -69 12l5 70q23 -7 42 -7q70 0 70 77v599zM215 749q0 -52 -61 -52q-62 0 -62 52q0 51 62 51q61 0 61 -51z" />
    <glyph glyph-name="k" unicode="k" horiz-adv-x="589" 
d="M183 795v-434h91l176 235h111l-204 -272l212 -324h-111l-183 281h-92v-281h-94v789z" />
    <glyph glyph-name="l" unicode="l" horiz-adv-x="299" 
d="M197 0h-95v789l95 6v-795z" />
    <glyph glyph-name="m" unicode="m" horiz-adv-x="924" 
d="M850 0h-94v396q0 122 -124 122q-51 0 -84.5 -29t-33.5 -83v-406h-94v406q0 58 -32 85.5t-85 27.5q-38 0 -72.5 -18.5t-52.5 -48.5v-452h-95v594l68 5l17 -64h3q57 70 154 70q119 0 161 -91h2q50 92 168 92q89 0 141.5 -53t52.5 -156v-397z" />
    <glyph glyph-name="n" unicode="n" horiz-adv-x="620" 
d="M546 0h-94v394q0 125 -135 125q-40 0 -79.5 -18t-59.5 -49v-452h-95v594l68 5l16 -63h3q65 71 173 71q96 0 149.5 -54t53.5 -159v-394z" />
    <glyph glyph-name="o" unicode="o" horiz-adv-x="615" 
d="M565 296q0 -165 -60.5 -237t-195.5 -72q-136 0 -198 72.5t-62 236.5t62.5 237t197.5 73t195.5 -72.5t60.5 -237.5zM147 296q0 -127 36.5 -178t125.5 -51q87 0 123 51t36 178t-36 178t-123 51q-89 0 -125.5 -51t-36.5 -178z" />
    <glyph glyph-name="p" unicode="p" horiz-adv-x="625" 
d="M576 299q0 -310 -233 -310q-108 0 -162 65l-2 -1l1 -81v-120h-97v741l68 5l20 -62q68 70 177 70q115 0 171.5 -70t56.5 -237zM478 299q0 124 -37 172t-116 48q-97 0 -145 -70v-306q43 -73 140 -73q77 0 117.5 50t40.5 179z" />
    <glyph glyph-name="q" unicode="q" horiz-adv-x="625" 
d="M540 -148l-95 -1v119l2 81l-2 1q-61 -61 -162 -61q-234 0 -234 306q0 159 59 234t178 75q118 0 177 -76h3l13 66h61v-744zM445 153v294q-15 30 -54 50.5t-87 20.5q-86 0 -121.5 -48t-35.5 -173q0 -122 37.5 -172.5t119.5 -50.5q59 0 97.5 24.5t43.5 54.5z" />
    <glyph glyph-name="r" unicode="r" horiz-adv-x="445" 
d="M178 0h-95v592l76 5l8 -128h2q28 65 75.5 100.5t107.5 35.5q33 0 59 -8l-6 -96q-24 8 -59 8q-72 0 -120 -56.5t-48 -150.5v-302z" />
    <glyph glyph-name="s" unicode="s" horiz-adv-x="493" 
d="M449 175q0 -88 -52 -137.5t-158 -49.5q-113 0 -183 50l12 82q69 -52 170 -52q62 0 92.5 26.5t30.5 71.5q0 37 -31.5 60t-76.5 37t-89.5 31t-76 53t-31.5 92q0 77 53.5 122t154.5 45q87 0 161 -34l-8 -80q-76 32 -155 32q-53 0 -84.5 -21.5t-31.5 -58.5q0 -35 31 -56
t76 -34.5t89.5 -30t75.5 -53.5t31 -95z" />
    <glyph glyph-name="t" unicode="t" horiz-adv-x="392" 
d="M358 522h-147v-366q0 -87 87 -87q31 0 50 8l6 -72q-30 -15 -83 -15q-76 0 -115.5 41.5t-39.5 121.5v369h-83v74h86l18 148l74 8v-156h147v-74z" />
    <glyph glyph-name="u" unicode="u" horiz-adv-x="611" 
d="M537 596v-400q0 -101 -58 -154t-174 -53q-115 0 -173 53.5t-58 153.5v400h94v-398q0 -122 138 -122q137 0 137 122v398h94z" />
    <glyph glyph-name="v" unicode="v" horiz-adv-x="638" 
d="M500 596h105l-231 -596h-110l-231 596h105l154 -436l26 -76h3l25 76z" />
    <glyph glyph-name="w" unicode="w" horiz-adv-x="872" 
d="M388 596h101l109 -444l18 -79h3l15 79l94 444h93l-144 -596h-118l-100 419l-17 80h-3l-18 -80l-103 -419h-116l-151 596h95l99 -441l16 -79h3l17 79z" />
    <glyph glyph-name="x" unicode="x" horiz-adv-x="602" 
d="M450 0l-153 257l-150 -257h-107l194 302l-190 294h112l147 -248l145 248h108l-185 -291l191 -305h-112z" />
    <glyph glyph-name="y" unicode="y" horiz-adv-x="638" 
d="M187 -86q36 0 60.5 17t43.5 59l3 10l-261 596h110l170 -433l28 -75h3l22 77l137 431h102l-217 -603q-30 -81 -74.5 -117t-110.5 -36q-51 0 -92 19l9 71q33 -16 67 -16z" />
    <glyph glyph-name="z" unicode="z" horiz-adv-x="542" 
d="M481 527l-264 -379l-47 -63l1 -3h316l-3 -82h-424v68l265 380l47 64l-1 2h-300l3 82h407v-69z" />
    <glyph glyph-name="braceleft" unicode="{" horiz-adv-x="370" 
d="M253 439q0 -76 -60 -102v-3q60 -28 60 -102q0 -40 -7.5 -102.5t-7.5 -99.5q0 -83 99 -83h30v-75h-25q-102 0 -146.5 36.5t-44.5 108.5q0 41 9 110t9 106q0 32 -20.5 54t-54.5 26v44q34 4 54.5 26t20.5 54q0 38 -9 107t-9 109q0 72 44.5 108.5t146.5 36.5h25v-75h-30
q-99 0 -99 -82q0 -38 7.5 -100t7.5 -102z" />
    <glyph glyph-name="bar" unicode="|" horiz-adv-x="281" 
d="M104 -177v989h74v-989h-74z" />
    <glyph glyph-name="braceright" unicode="}" horiz-adv-x="370" 
d="M117 232q0 75 61 102v3q-61 25 -61 102q0 40 7.5 102t7.5 100q0 82 -99 82h-30v75h25q101 0 145.5 -36.5t44.5 -108.5q0 -40 -9 -109t-9 -107q0 -32 20.5 -53.5t55.5 -26.5v-44q-35 -5 -55.5 -26.5t-20.5 -53.5q0 -37 9 -106t9 -110q0 -72 -44.5 -108.5t-145.5 -36.5h-25
v75h30q99 0 99 83q0 37 -7.5 99.5t-7.5 102.5z" />
    <glyph glyph-name="asciitilde" unicode="~" horiz-adv-x="649" 
d="M151 623h-57q17 148 129 148q39 0 105.5 -35t96.5 -35q53 0 73 58h57q-16 -147 -130 -147q-39 0 -104.5 35t-94.5 35q-56 0 -75 -59z" />
    <glyph glyph-name="uni00A0" unicode="&#xa0;" horiz-adv-x="300" 
 />
    <glyph glyph-name="exclamdown" unicode="&#xa1;" horiz-adv-x="302" 
d="M114 461h76l12 -595h-101zM89 612q0 55 61 55t61 -55q0 -57 -61 -57t-61 57z" />
    <glyph glyph-name="cent" unicode="&#xa2;" horiz-adv-x="649" 
d="M508 576l-6 -85q-59 27 -121 27q-96 0 -136.5 -50t-40.5 -166q0 -123 43.5 -176.5t131.5 -53.5q71 0 127 34l7 -78q-48 -34 -128 -40l-7 -132h-75l7 134q-204 27 -204 312q0 143 54 218t169 84l9 127h75l-9 -129q55 -6 104 -26z" />
    <glyph glyph-name="sterling" unicode="&#xa3;" horiz-adv-x="649" 
d="M85 335l-4 79h52q-25 83 -25 133q0 95 63.5 154.5t203.5 59.5q103 0 186 -38l-14 -88q-72 34 -162 34q-91 0 -134 -36t-43 -97q0 -47 22 -122h262v-79h-243q8 -43 8 -89q0 -112 -76 -162l2 -3q87 19 211 19q84 0 205 -13l-5 -93q-135 14 -244 14q-142 0 -281 -13l-4 89
q47 16 72.5 59t25.5 99q0 43 -9 93h-69z" />
    <glyph glyph-name="currency" unicode="&#xa4;" horiz-adv-x="649" 
d="M146 360q0 54 29 99l-65 68l49 54l68 -70q43 29 96 29t97 -30l70 71l50 -54l-68 -69q29 -45 29 -98t-26 -94l64 -65l-50 -54l-64 65q-46 -32 -102 -32t-101 31l-64 -65l-49 55l63 64q-26 43 -26 95zM209 362q0 -46 33.5 -78t80.5 -32q48 0 81 32t33 78t-33 78t-81 32
q-47 0 -80.5 -32t-33.5 -78z" />
    <glyph glyph-name="yen" unicode="&#xa5;" horiz-adv-x="649" 
d="M141 338h106l-211 412h114l145 -341l30 -75h3l29 75l144 341h111l-204 -412h104v-63h-131v-49h132v-62h-132v-164h-107v164h-133v62h133v49h-133v63z" />
    <glyph glyph-name="brokenbar" unicode="&#xa6;" horiz-adv-x="281" 
d="M104 373v439h74v-439h-74zM104 -170v443h74v-443h-74z" />
    <glyph glyph-name="section" unicode="&#xa7;" horiz-adv-x="562" 
d="M63 350q0 45 23.5 84.5t71.5 63.5q-80 57 -80 126q0 78 57 120.5t163 42.5q117 0 191 -46l-10 -75q-82 44 -176 44q-62 0 -94.5 -22t-32.5 -60q0 -32 35.5 -58.5t86 -49t101.5 -50t86.5 -73t35.5 -104.5q0 -102 -96 -149q80 -56 80 -125q0 -78 -56.5 -120.5t-162.5 -42.5
q-117 0 -190 46l9 75q79 -44 176 -44q62 0 94.5 21.5t32.5 60.5q0 32 -35.5 58.5t-86 49t-101.5 50t-86.5 73t-35.5 104.5zM430 283q0 15 -5 29t-11.5 24.5t-21 23l-24.5 20.5t-31 20t-32 17.5l-36 18.5l-35 18q-79 -27 -79 -94q0 -26 12.5 -48.5t41 -43t50 -33t64.5 -33.5
l26 -13q81 26 81 94z" />
    <glyph glyph-name="dieresis" unicode="&#xa8;" 
d="M166 749q0 -47 -46 -47q-45 0 -45 47q0 49 45 49q46 0 46 -49zM327 749q0 -47 -45 -47q-47 0 -47 47q0 49 47 49q45 0 45 -49z" />
    <glyph glyph-name="copyright" unicode="&#xa9;" horiz-adv-x="905" 
d="M60 379q0 162 115 277t278 115q162 0 277 -115t115 -277q0 -163 -115 -278t-277 -115q-163 0 -278 115t-115 278zM111 380q0 -139 99 -240t242 -101t243.5 100t100.5 241q0 138 -100.5 237t-243.5 99q-142 0 -241.5 -99t-99.5 -237zM614 586l-8 -70q-55 31 -122 31
q-87 0 -136 -46.5t-49 -121.5q0 -77 50.5 -124t136.5 -47q70 0 131 37l10 -68q-76 -60 -166 -60q-113 0 -185 74t-72 188q0 106 69.5 180.5t187.5 74.5q92 0 153 -48z" />
    <glyph glyph-name="ordfeminine" unicode="&#xaa;" horiz-adv-x="420" 
d="M301 375l-7 47l-3 1q-41 -55 -115 -55q-60 0 -94.5 35.5t-34.5 106.5q0 63 39 99t110 36q49 0 87 -16v39q0 44 -21 62t-70 18q-61 0 -112 -25l-7 70q64 28 135 28q85 0 120.5 -38.5t35.5 -127.5v-280h-63zM283 502v69q-26 13 -71 13q-87 0 -87 -73t73 -73q34 0 59.5 20
t25.5 44z" />
    <glyph glyph-name="guillemotleft" unicode="&#xab;" horiz-adv-x="625" 
d="M535 446l-193 -120l193 -120v-78l-290 194v8l290 194v-78zM317 446l-193 -120l193 -120v-78l-290 194v8l290 194v-78z" />
    <glyph glyph-name="logicalnot" unicode="&#xac;" horiz-adv-x="649" 
d="M459 297h-347v87h426v-241h-79v154z" />
    <glyph glyph-name="uni00AD" unicode="&#xad;" horiz-adv-x="405" 
d="M70 376h265v-71h-265v71z" />
    <glyph glyph-name="registered" unicode="&#xae;" horiz-adv-x="449" 
d="M46 655q0 76 52.5 129t126.5 53t126 -53t52 -129q0 -74 -52.5 -127t-125.5 -53q-74 0 -126.5 53t-52.5 127zM75 656q0 -62 44.5 -106t106.5 -44q61 0 104.5 44t43.5 106t-43.5 105.5t-104.5 43.5q-62 0 -106.5 -43.5t-44.5 -105.5zM314 698q0 -44 -38 -56l44 -83h-46
l-38 78h-46v-78h-42v201h88q78 0 78 -62zM273 696q0 28 -36 28h-47v-57h51q32 0 32 29z" />
    <glyph glyph-name="macron" unicode="&#xaf;" 
d="M343 771v-63h-283v63h283z" />
    <glyph glyph-name="degree" unicode="&#xb0;" horiz-adv-x="352" 
d="M48 686q0 54 37 92.5t91 38.5t91.5 -38t37.5 -93q0 -54 -37.5 -92.5t-91.5 -38.5q-53 0 -90.5 38.5t-37.5 92.5zM94 686q0 -33 23.5 -56.5t58.5 -23.5t58.5 23t23.5 57t-23.5 57.5t-58.5 23.5t-58.5 -23.5t-23.5 -57.5z" />
    <glyph glyph-name="plusminus" unicode="&#xb1;" horiz-adv-x="649" 
d="M547 342h-182v-164h-85v164h-177v84h177v176h85v-176h182v-84zM544 64h-442v74h442v-74z" />
    <glyph glyph-name="twosuperior" unicode="&#xb2;" horiz-adv-x="353" 
d="M317 783q0 -55 -43.5 -103t-137.5 -118v-3h183l-1 -61h-274v47l44 39l42.5 38l35.5 33t32 33.5t22.5 30t16.5 30.5t5 28q0 26 -19 42t-58 16q-51 0 -106 -38l-18 58q59 42 137 42q68 0 103.5 -30.5t35.5 -83.5z" />
    <glyph glyph-name="threesuperior" unicode="&#xb3;" horiz-adv-x="353" 
d="M319 616q0 -123 -155 -123q-73 0 -130 32l17 56q51 -30 113 -30q43 0 64 18.5t21 49.5q0 32 -26.5 46t-95.5 14v51q64 0 89.5 14.5t25.5 43.5q0 49 -76 49q-64 0 -112 -36l-18 54q54 42 132 42q67 0 104.5 -27t37.5 -77q0 -63 -65 -86v-2q74 -19 74 -89z" />
    <glyph glyph-name="acute" unicode="&#xb4;" 
d="M228 805h115l-114 -143h-73z" />
    <glyph glyph-name="mu" unicode="&#xb5;" horiz-adv-x="620" 
d="M322 -11q-111 0 -155 85l-2 -1q6 -145 12 -219l-94 -8v750h95v-396q0 -58 39.5 -91.5t102.5 -33.5q59 0 95.5 29t36.5 82v410h94v-594l-67 -6l-14 56h-3q-43 -63 -140 -63z" />
    <glyph glyph-name="paragraph" unicode="&#xb6;" horiz-adv-x="664" 
d="M273 -152h-84v643q-66 2 -105 37t-39 97q0 56 39 90.5t110 34.5h420l-4 -81h-77v-821h-83v821h-177v-821z" />
    <glyph glyph-name="periodcentered" unicode="&#xb7;" horiz-adv-x="283" 
d="M204 345q0 -62 -62 -62q-33 0 -47.5 14.5t-14.5 47.5q0 61 62 61t62 -61z" />
    <glyph glyph-name="cedilla" unicode="&#xb8;" 
d="M126 -191l63 196l64 1l-37 -197h-90z" />
    <glyph glyph-name="onesuperior" unicode="&#xb9;" horiz-adv-x="271" 
d="M206 894v-396h-73v226l3 79l-3 1l-83 -52l-6 60l117 82h45z" />
    <glyph glyph-name="ordmasculine" unicode="&#xba;" horiz-adv-x="456" 
d="M409 594q0 -122 -42.5 -174t-137.5 -52t-138.5 52.5t-43.5 173.5t43.5 174t138.5 53q96 0 138 -52.5t42 -174.5zM131 594q0 -88 22 -121.5t76 -33.5t76 33.5t22 121.5q0 89 -22 122t-76 33t-76 -33t-22 -122z" />
    <glyph glyph-name="guillemotright" unicode="&#xbb;" horiz-adv-x="625" 
d="M291 128v78l193 120l-193 120v78l291 -194v-8zM74 128v78l193 120l-193 120v78l291 -194v-8z" />
    <glyph glyph-name="onequarter" unicode="&#xbc;" horiz-adv-x="877" 
d="M284 751v-395h-73v226l3 79l-3 1l-83 -52l-6 60l117 81h45zM793 81h-45v-81h-68v81h-202l-5 42l187 271h88v-254h47zM682 140l2 110l3 81l-2 1l-83 -126l-46 -63l1 -3h125zM656 750h70l-504 -750h-70z" />
    <glyph glyph-name="onehalf" unicode="&#xbd;" horiz-adv-x="877" 
d="M803 285q0 -55 -43.5 -103t-137.5 -118v-3h183l-1 -61h-274v48l44 39l42.5 38l35.5 33t32 33.5t22.5 29.5t16.5 30t5 28q0 58 -77 58q-51 0 -106 -37l-18 57q59 42 137 42q68 0 103.5 -30.5t35.5 -83.5zM646 750h70l-504 -750h-70zM284 751v-395h-73v226l3 79l-3 1
l-83 -52l-6 60l117 81h45z" />
    <glyph glyph-name="threequarters" unicode="&#xbe;" horiz-adv-x="877" 
d="M783 81h-45v-81h-68v81h-202l-5 42l187 271h88v-254h47zM672 140l2 110l3 81l-2 1l-83 -126l-46 -63l1 -3h125zM655 750h70l-504 -750h-70zM350 474q0 -123 -155 -123q-76 0 -130 32l17 56q51 -30 113 -30q43 0 64 18.5t21 49.5q0 32 -26.5 46t-95.5 14v51q64 0 89.5 14
t25.5 44q0 49 -76 49q-64 0 -112 -36l-18 54q54 42 132 42q67 0 104.5 -27t37.5 -77q0 -63 -66 -86v-2q75 -20 75 -89z" />
    <glyph glyph-name="questiondown" unicode="&#xbf;" horiz-adv-x="490" 
d="M44 78q0 81 46 140.5t136 107.5l4 133h75l6 -169q-88 -53 -129 -97t-41 -102q0 -102 127 -102q100 0 176 68l35 -77q-38 -37 -96.5 -59t-126.5 -22q-105 0 -158.5 46.5t-53.5 132.5zM206 615q0 56 60 56q32 0 46.5 -13t14.5 -43q0 -56 -61 -56q-60 0 -60 56z" />
    <glyph glyph-name="Agrave" unicode="&#xc0;" horiz-adv-x="711" 
d="M578 0l-60 179h-330l-60 -179h-110l276 750h122l277 -750h-115zM354 675l-25 -78l-111 -329h271l-109 329l-23 78h-3zM413 799h-79l-120 117h119z" />
    <glyph glyph-name="Aacute" unicode="&#xc1;" horiz-adv-x="711" 
d="M578 0l-60 179h-330l-60 -179h-110l276 750h122l277 -750h-115zM354 675l-25 -78l-111 -329h271l-109 329l-23 78h-3zM372 914h129l-130 -117h-78z" />
    <glyph glyph-name="Acircumflex" unicode="&#xc2;" horiz-adv-x="711" 
d="M578 0l-60 179h-330l-60 -179h-110l276 750h122l277 -750h-115zM354 675l-25 -78l-111 -329h271l-109 329l-23 78h-3zM304 914h101l116 -117h-90l-76 74l-75 -74h-88z" />
    <glyph glyph-name="Atilde" unicode="&#xc3;" horiz-adv-x="711" 
d="M578 0l-60 179h-330l-60 -179h-110l276 750h122l277 -750h-115zM354 675l-25 -78l-111 -329h271l-109 329l-23 78h-3zM250 803l-45 1q5 48 27.5 77t59.5 29q32 0 73.5 -30t57.5 -30q30 0 40 47l43 -1q-4 -48 -27 -77t-60 -29q-31 0 -72 30t-57 30q-28 0 -40 -47z" />
    <glyph glyph-name="Adieresis" unicode="&#xc4;" horiz-adv-x="711" 
d="M578 0l-60 179h-330l-60 -179h-110l276 750h122l277 -750h-115zM354 675l-25 -78l-111 -329h271l-109 329l-23 78h-3zM305 848q0 -46 -46 -46t-46 46t46 46t46 -46zM497 848q0 -46 -46 -46t-46 46t46 46t46 -46z" />
    <glyph glyph-name="Aring" unicode="&#xc5;" horiz-adv-x="711" 
d="M254 804q0 38 24.5 60.5t74.5 22.5q49 0 74.5 -22.5t25.5 -59.5q0 -47 -33 -68l273 -737h-115l-60 179h-330l-60 -179h-110l270 735q-34 19 -34 69zM354 675l-25 -78l-111 -329h271l-109 329l-23 78h-3zM306 802q0 -38 48 -38t48 38t-48 38t-48 -38z" />
    <glyph glyph-name="AE" unicode="&#xc6;" horiz-adv-x="1055" 
d="M998 656h-378l23 -223h297v-86h-289l25 -254h333l-3 -93h-424l-17 180h-307l-93 -180h-122l417 750h535zM516 681l-36 -73l-176 -340h252l-31 331l-6 81z" />
    <glyph glyph-name="Ccedilla" unicode="&#xc7;" horiz-adv-x="606" 
d="M287 -191l57 179q-146 10 -215 105.5t-69 288.5q0 194 79.5 287.5t248.5 93.5q99 0 175 -35l-13 -92q-67 31 -157 31q-121 0 -173 -63.5t-52 -221.5q0 -169 52.5 -235.5t175.5 -66.5q85 0 157 36l13 -86q-69 -36 -156 -43l-33 -178h-90z" />
    <glyph glyph-name="Egrave" unicode="&#xc8;" horiz-adv-x="623" 
d="M199 93h379l-3 -93h-478v750h461l3 -94h-362v-223h310v-86h-310v-254zM394 799h-79l-120 117h119z" />
    <glyph glyph-name="Eacute" unicode="&#xc9;" horiz-adv-x="623" 
d="M199 93h379l-3 -93h-478v750h461l3 -94h-362v-223h310v-86h-310v-254zM354 914h129l-130 -117h-78z" />
    <glyph glyph-name="Ecircumflex" unicode="&#xca;" horiz-adv-x="623" 
d="M199 93h379l-3 -93h-478v750h461l3 -94h-362v-223h310v-86h-310v-254zM285 914h101l116 -117h-90l-76 74l-75 -74h-88z" />
    <glyph glyph-name="Edieresis" unicode="&#xcb;" horiz-adv-x="623" 
d="M199 93h379l-3 -93h-478v750h461l3 -94h-362v-223h310v-86h-310v-254zM286 848q0 -46 -46 -46t-46 46t46 46t46 -46zM478 848q0 -46 -46 -46t-46 46t46 46t46 -46z" />
    <glyph glyph-name="Igrave" unicode="&#xcc;" horiz-adv-x="323" 
d="M109 0v750h105v-750h-105zM220 799h-79l-120 117h119z" />
    <glyph glyph-name="Iacute" unicode="&#xcd;" horiz-adv-x="323" 
d="M109 0v750h105v-750h-105zM179 914h129l-130 -117h-78z" />
    <glyph glyph-name="Icircumflex" unicode="&#xce;" horiz-adv-x="323" 
d="M109 0v750h105v-750h-105zM111 914h101l116 -117h-90l-76 74l-75 -74h-88z" />
    <glyph glyph-name="Idieresis" unicode="&#xcf;" horiz-adv-x="323" 
d="M109 0v750h105v-750h-105zM112 848q0 -46 -46 -46t-46 46t46 46t46 -46zM304 848q0 -46 -46 -46t-46 46t46 46t46 -46z" />
    <glyph glyph-name="Eth" unicode="&#xd0;" horiz-adv-x="745" 
d="M684 378q0 -201 -78 -289.5t-243 -88.5h-259v359h-71v65h71v326h257q171 0 247 -87.5t76 -284.5zM577 378q0 158 -49 217t-168 59h-154v-230h106v-65h-106v-264h155q116 0 166 59.5t50 223.5z" />
    <glyph glyph-name="Ntilde" unicode="&#xd1;" horiz-adv-x="758" 
d="M661 0h-73l-354 516l-44 68l-2 -1l1 -81v-502h-92v750h93l380 -567l2 1l-2 80v486h91v-750zM280 803l-45 1q5 48 27.5 77t59.5 29q32 0 73.5 -30t57.5 -30q30 0 40 47l43 -1q-4 -48 -27 -77t-60 -29q-31 0 -72 30t-57 30q-28 0 -40 -47z" />
    <glyph glyph-name="Ograve" unicode="&#xd2;" horiz-adv-x="741" 
d="M681 375q0 -208 -71.5 -298.5t-238.5 -90.5q-166 0 -238.5 91.5t-72.5 297.5t72 296.5t239 90.5t238.5 -90t71.5 -297zM574 375q0 115 -20.5 178.5t-63 88.5t-119.5 25q-113 0 -158 -61.5t-45 -230.5q0 -168 45 -230.5t158 -62.5t158 62.5t45 230.5zM446 799h-79
l-120 117h119z" />
    <glyph glyph-name="Oacute" unicode="&#xd3;" horiz-adv-x="741" 
d="M681 375q0 -208 -71.5 -298.5t-238.5 -90.5q-166 0 -238.5 91.5t-72.5 297.5t72 296.5t239 90.5t238.5 -90t71.5 -297zM574 375q0 115 -20.5 178.5t-63 88.5t-119.5 25q-113 0 -158 -61.5t-45 -230.5q0 -168 45 -230.5t158 -62.5t158 62.5t45 230.5zM389 914h129
l-130 -117h-78z" />
    <glyph glyph-name="Ocircumflex" unicode="&#xd4;" horiz-adv-x="741" 
d="M681 375q0 -208 -71.5 -298.5t-238.5 -90.5q-166 0 -238.5 91.5t-72.5 297.5t72 296.5t239 90.5t238.5 -90t71.5 -297zM574 375q0 115 -20.5 178.5t-63 88.5t-119.5 25q-113 0 -158 -61.5t-45 -230.5q0 -168 45 -230.5t158 -62.5t158 62.5t45 230.5zM321 914h101
l116 -117h-90l-76 74l-75 -74h-88z" />
    <glyph glyph-name="Otilde" unicode="&#xd5;" horiz-adv-x="741" 
d="M681 375q0 -208 -71.5 -298.5t-238.5 -90.5q-166 0 -238.5 91.5t-72.5 297.5t72 296.5t239 90.5t238.5 -90t71.5 -297zM574 375q0 115 -20.5 178.5t-63 88.5t-119.5 25q-113 0 -158 -61.5t-45 -230.5q0 -168 45 -230.5t158 -62.5t158 62.5t45 230.5zM267 803l-45 1
q5 48 27.5 77t59.5 29q32 0 73.5 -30t57.5 -30q30 0 40 47l43 -1q-4 -48 -27 -77t-60 -29q-31 0 -72 30t-57 30q-28 0 -40 -47z" />
    <glyph glyph-name="Odieresis" unicode="&#xd6;" horiz-adv-x="741" 
d="M681 375q0 -208 -71.5 -298.5t-238.5 -90.5q-166 0 -238.5 91.5t-72.5 297.5t72 296.5t239 90.5t238.5 -90t71.5 -297zM574 375q0 115 -20.5 178.5t-63 88.5t-119.5 25q-113 0 -158 -61.5t-45 -230.5q0 -168 45 -230.5t158 -62.5t158 62.5t45 230.5zM322 848
q0 -46 -46 -46t-46 46t46 46t46 -46zM514 848q0 -46 -46 -46t-46 46t46 46t46 -46z" />
    <glyph glyph-name="multiply" unicode="&#xd7;" horiz-adv-x="597" 
d="M501 189l-55 -61l-147 146l-147 -146l-56 61l148 145l-148 146l55 61l149 -146l147 146l55 -61l-148 -146z" />
    <glyph glyph-name="Oslash" unicode="&#xd8;" horiz-adv-x="741" 
d="M100 -15l-50 48l60 78q-50 89 -50 264q0 206 72 296.5t239 90.5q151 0 225 -75l62 74l50 -48l-70 -87q43 -87 43 -251q0 -208 -71.5 -298.5t-238.5 -90.5q-146 0 -218 68zM167 375q0 -118 20 -181l343 410q-43 63 -159 63q-113 0 -158.5 -61.5t-45.5 -230.5zM574 375
q0 105 -15 170l-342 -407q45 -56 154 -56q113 0 158 62.5t45 230.5z" />
    <glyph glyph-name="Ugrave" unicode="&#xd9;" horiz-adv-x="736" 
d="M653 750v-480q0 -284 -285 -284q-286 0 -286 284v480h102v-479q0 -97 45 -142.5t139 -45.5t138.5 45.5t44.5 142.5v479h102zM426 799h-79l-120 117h119z" />
    <glyph glyph-name="Uacute" unicode="&#xda;" horiz-adv-x="736" 
d="M653 750v-480q0 -284 -285 -284q-286 0 -286 284v480h102v-479q0 -97 45 -142.5t139 -45.5t138.5 45.5t44.5 142.5v479h102zM385 914h129l-130 -117h-78z" />
    <glyph glyph-name="Ucircumflex" unicode="&#xdb;" horiz-adv-x="736" 
d="M653 750v-480q0 -284 -285 -284q-286 0 -286 284v480h102v-479q0 -97 45 -142.5t139 -45.5t138.5 45.5t44.5 142.5v479h102zM317 914h101l116 -117h-90l-76 74l-75 -74h-88z" />
    <glyph glyph-name="Udieresis" unicode="&#xdc;" horiz-adv-x="736" 
d="M653 750v-480q0 -284 -285 -284q-286 0 -286 284v480h102v-479q0 -97 45 -142.5t139 -45.5t138.5 45.5t44.5 142.5v479h102zM318 848q0 -46 -46 -46t-46 46t46 46t46 -46zM510 848q0 -46 -46 -46t-46 46t46 46t46 -46z" />
    <glyph glyph-name="Yacute" unicode="&#xdd;" horiz-adv-x="671" 
d="M21 750h118l163 -329l35 -73h3l33 73l163 329h113l-260 -496v-254h-104v254zM355 914h129l-130 -117h-78z" />
    <glyph glyph-name="Thorn" unicode="&#xde;" horiz-adv-x="652" 
d="M608 384q0 -119 -65.5 -176t-215.5 -57h-128v-151h-102v750h102v-131h128q150 0 215.5 -56t65.5 -179zM503 384q0 81 -40 113.5t-136 32.5h-128v-294h128q95 0 135.5 32t40.5 116z" />
    <glyph glyph-name="germandbls" unicode="&#xdf;" horiz-adv-x="634" 
d="M89 0v503q0 127 60 193.5t173 66.5q79 0 130 -41t51 -102q0 -34 -20.5 -66.5t-44.5 -52.5t-44.5 -41t-20.5 -34q0 -14 22.5 -29t55 -32.5t65 -40t55 -59.5t22.5 -83q0 -88 -60.5 -139.5t-161.5 -51.5q-98 0 -156 39l8 84q50 -36 132 -36q65 0 103.5 26t38.5 75
q0 34 -23 62.5t-56.5 47.5l-66.5 37t-56 40t-23 48q0 25 22 52t48.5 47t48.5 48.5t22 55.5q0 28 -25.5 46t-67.5 18q-137 0 -137 -169v-512h-94z" />
    <glyph glyph-name="agrave" unicode="&#xe0;" horiz-adv-x="573" 
d="M427 0l-9 73l-3 1q-27 -39 -73.5 -61t-103.5 -22q-85 0 -134 47t-49 144q0 86 54.5 133.5t159.5 47.5q72 0 137 -23v59q0 69 -32.5 98t-106.5 29q-91 0 -167 -36l-9 79q85 39 192 39q117 0 166.5 -52t49.5 -171v-385h-72zM405 169v103q-37 22 -119 22q-142 0 -142 -111
q0 -114 120 -114q55 0 98 31t43 69zM337 662h-74l-109 143h114z" />
    <glyph glyph-name="aacute" unicode="&#xe1;" horiz-adv-x="573" 
d="M427 0l-9 73l-3 1q-27 -39 -73.5 -61t-103.5 -22q-85 0 -134 47t-49 144q0 86 54.5 133.5t159.5 47.5q72 0 137 -23v59q0 69 -32.5 98t-106.5 29q-91 0 -167 -36l-9 79q85 39 192 39q117 0 166.5 -52t49.5 -171v-385h-72zM405 169v103q-37 22 -119 22q-142 0 -142 -111
q0 -114 120 -114q55 0 98 31t43 69zM293 805h115l-114 -143h-73z" />
    <glyph glyph-name="acircumflex" unicode="&#xe2;" horiz-adv-x="573" 
d="M427 0l-9 73l-3 1q-27 -39 -73.5 -61t-103.5 -22q-85 0 -134 47t-49 144q0 86 54.5 133.5t159.5 47.5q72 0 137 -23v59q0 69 -32.5 98t-106.5 29q-91 0 -167 -36l-9 79q85 39 192 39q117 0 166.5 -52t49.5 -171v-385h-72zM405 169v103q-37 22 -119 22q-142 0 -142 -111
q0 -114 120 -114q55 0 98 31t43 69zM240 805h84l105 -143h-74l-72 103l-72 -103h-74z" />
    <glyph glyph-name="atilde" unicode="&#xe3;" horiz-adv-x="573" 
d="M427 0l-9 73l-3 1q-27 -39 -73.5 -61t-103.5 -22q-85 0 -134 47t-49 144q0 86 54.5 133.5t159.5 47.5q72 0 137 -23v59q0 69 -32.5 98t-106.5 29q-91 0 -167 -36l-9 79q85 39 192 39q117 0 166.5 -52t49.5 -171v-385h-72zM405 169v103q-37 22 -119 22q-142 0 -142 -111
q0 -114 120 -114q55 0 98 31t43 69zM179 682l-46 1q4 52 27.5 84.5t59.5 32.5q33 0 71.5 -33t57.5 -33q30 0 42 55l46 -1q-4 -53 -27.5 -85t-60.5 -32q-32 0 -71 33t-57 33q-30 0 -42 -55z" />
    <glyph glyph-name="adieresis" unicode="&#xe4;" horiz-adv-x="573" 
d="M427 0l-9 73l-3 1q-27 -39 -73.5 -61t-103.5 -22q-85 0 -134 47t-49 144q0 86 54.5 133.5t159.5 47.5q72 0 137 -23v59q0 69 -32.5 98t-106.5 29q-91 0 -167 -36l-9 79q85 39 192 39q117 0 166.5 -52t49.5 -171v-385h-72zM405 169v103q-37 22 -119 22q-142 0 -142 -111
q0 -114 120 -114q55 0 98 31t43 69zM253 749q0 -47 -46 -47q-45 0 -45 47q0 49 45 49q46 0 46 -49zM414 749q0 -47 -45 -47q-47 0 -47 47q0 49 47 49q45 0 45 -49z" />
    <glyph glyph-name="aring" unicode="&#xe5;" horiz-adv-x="573" 
d="M427 0l-9 73l-3 1q-27 -39 -73.5 -61t-103.5 -22q-85 0 -134 47t-49 144q0 86 54.5 133.5t159.5 47.5q72 0 137 -23v59q0 69 -32.5 98t-106.5 29q-91 0 -167 -36l-9 79q85 39 192 39q117 0 166.5 -52t49.5 -171v-385h-72zM405 169v103q-37 22 -119 22q-142 0 -142 -111
q0 -114 120 -114q55 0 98 31t43 69zM185 744q0 38 25.5 59.5t75.5 21.5q48 0 75 -22.5t27 -58.5q0 -80 -102 -80q-101 0 -101 80zM234 744q0 -41 53 -41q54 0 54 41t-54 41q-53 0 -53 -41z" />
    <glyph glyph-name="ae" unicode="&#xe6;" horiz-adv-x="924" 
d="M283 606q138 0 179 -85q63 85 186 85q105 0 166.5 -68.5t61.5 -206.5q0 -20 -2 -46h-381q4 -116 49 -163.5t142 -47.5q82 0 162 39l11 -81q-81 -44 -185 -44q-168 0 -224 111h-3q-26 -52 -78 -81t-120 -29q-192 0 -192 191q0 85 54.5 132.5t159.5 47.5q75 0 137 -25v62
q0 69 -32.5 98t-106.5 29q-91 0 -167 -36l-9 79q87 39 192 39zM405 186v84q-37 22 -119 22q-143 0 -143 -111q0 -114 121 -114q61 0 101 33.5t40 85.5zM492 350h298q-3 174 -147 174q-74 0 -110 -42.5t-41 -131.5z" />
    <glyph glyph-name="ccedilla" unicode="&#xe7;" horiz-adv-x="498" 
d="M205 -191l58 180q-214 21 -214 313q0 153 62 228t194 75q79 0 146 -29l-6 -85q-59 27 -121 27q-96 0 -136.5 -50t-40.5 -166q0 -123 43.5 -176.5t131.5 -53.5q71 0 127 34l7 -78q-48 -34 -128 -40l-33 -179h-90z" />
    <glyph glyph-name="egrave" unicode="&#xe8;" horiz-adv-x="578" 
d="M326 -12q-146 0 -211.5 78.5t-65.5 247.5q0 142 62 217t184 75q111 0 173 -68t62 -207q0 -20 -2 -46h-382q4 -116 48.5 -163.5t142.5 -47.5q84 0 162 38l11 -80q-81 -44 -184 -44zM144 350h299q-3 174 -147 174q-75 0 -111 -42.5t-41 -131.5zM349 662h-74l-109 143h114z
" />
    <glyph glyph-name="eacute" unicode="&#xe9;" horiz-adv-x="578" 
d="M326 -12q-146 0 -211.5 78.5t-65.5 247.5q0 142 62 217t184 75q111 0 173 -68t62 -207q0 -20 -2 -46h-382q4 -116 48.5 -163.5t142.5 -47.5q84 0 162 38l11 -80q-81 -44 -184 -44zM144 350h299q-3 174 -147 174q-75 0 -111 -42.5t-41 -131.5zM306 805h115l-114 -143h-73z
" />
    <glyph glyph-name="ecircumflex" unicode="&#xea;" horiz-adv-x="578" 
d="M326 -12q-146 0 -211.5 78.5t-65.5 247.5q0 142 62 217t184 75q111 0 173 -68t62 -207q0 -20 -2 -46h-382q4 -116 48.5 -163.5t142.5 -47.5q84 0 162 38l11 -80q-81 -44 -184 -44zM144 350h299q-3 174 -147 174q-75 0 -111 -42.5t-41 -131.5zM253 805h84l105 -143h-74
l-72 103l-72 -103h-74z" />
    <glyph glyph-name="edieresis" unicode="&#xeb;" horiz-adv-x="578" 
d="M326 -12q-146 0 -211.5 78.5t-65.5 247.5q0 142 62 217t184 75q111 0 173 -68t62 -207q0 -20 -2 -46h-382q4 -116 48.5 -163.5t142.5 -47.5q84 0 162 38l11 -80q-81 -44 -184 -44zM144 350h299q-3 174 -147 174q-75 0 -111 -42.5t-41 -131.5zM254 749q0 -47 -46 -47
q-45 0 -45 47q0 49 45 49q46 0 46 -49zM415 749q0 -47 -45 -47q-47 0 -47 47q0 49 47 49q45 0 45 -49z" />
    <glyph glyph-name="igrave" unicode="&#xec;" horiz-adv-x="312" 
d="M203 0h-95v593l95 5v-598zM209 662h-74l-109 143h114z" />
    <glyph glyph-name="iacute" unicode="&#xed;" horiz-adv-x="312" 
d="M203 0h-95v593l95 5v-598zM166 805h115l-114 -143h-73z" />
    <glyph glyph-name="icircumflex" unicode="&#xee;" horiz-adv-x="312" 
d="M203 0h-95v593l95 5v-598zM113 805h84l105 -143h-74l-72 103l-72 -103h-74z" />
    <glyph glyph-name="idieresis" unicode="&#xef;" horiz-adv-x="312" 
d="M203 0h-95v593l95 5v-598zM125 749q0 -47 -46 -47q-45 0 -45 47q0 49 45 49q46 0 46 -49zM286 749q0 -47 -45 -47q-47 0 -47 47q0 49 47 49q45 0 45 -49z" />
    <glyph glyph-name="eth" unicode="&#xf0;" horiz-adv-x="616" 
d="M458 762l-76 -55q82 -77 133 -176t51 -199q0 -183 -62.5 -263t-196.5 -80q-129 0 -193.5 67t-64.5 230q0 143 56.5 211t179.5 68q91 0 150 -44l2 2q-41 74 -115 140l-88 -64l-36 37l81 61q-53 37 -95 60l63 48q48 -25 94 -62l81 61zM146 283q0 -121 39 -166.5t122 -45.5
q82 0 122 57.5t40 184.5q0 169 -162 169q-87 0 -124 -45t-37 -154z" />
    <glyph glyph-name="ntilde" unicode="&#xf1;" horiz-adv-x="620" 
d="M546 0h-94v394q0 125 -135 125q-40 0 -79.5 -18t-59.5 -49v-452h-95v594l68 5l16 -63h3q65 71 173 71q96 0 149.5 -54t53.5 -159v-394zM210 682l-46 1q4 52 27.5 84.5t59.5 32.5q33 0 71.5 -33t57.5 -33q30 0 42 55l46 -1q-4 -53 -27.5 -85t-60.5 -32q-32 0 -71 33
t-57 33q-30 0 -42 -55z" />
    <glyph glyph-name="ograve" unicode="&#xf2;" horiz-adv-x="615" 
d="M565 296q0 -165 -60.5 -237t-195.5 -72q-136 0 -198 72.5t-62 236.5t62.5 237t197.5 73t195.5 -72.5t60.5 -237.5zM147 296q0 -127 36.5 -178t125.5 -51q87 0 123 51t36 178t-36 178t-123 51q-89 0 -125.5 -51t-36.5 -178zM362 662h-74l-109 143h114z" />
    <glyph glyph-name="oacute" unicode="&#xf3;" horiz-adv-x="615" 
d="M565 296q0 -165 -60.5 -237t-195.5 -72q-136 0 -198 72.5t-62 236.5t62.5 237t197.5 73t195.5 -72.5t60.5 -237.5zM147 296q0 -127 36.5 -178t125.5 -51q87 0 123 51t36 178t-36 178t-123 51q-89 0 -125.5 -51t-36.5 -178zM319 805h115l-114 -143h-73z" />
    <glyph glyph-name="ocircumflex" unicode="&#xf4;" horiz-adv-x="615" 
d="M565 296q0 -165 -60.5 -237t-195.5 -72q-136 0 -198 72.5t-62 236.5t62.5 237t197.5 73t195.5 -72.5t60.5 -237.5zM147 296q0 -127 36.5 -178t125.5 -51q87 0 123 51t36 178t-36 178t-123 51q-89 0 -125.5 -51t-36.5 -178zM266 805h84l105 -143h-74l-72 103l-72 -103h-74
z" />
    <glyph glyph-name="otilde" unicode="&#xf5;" horiz-adv-x="615" 
d="M565 296q0 -165 -60.5 -237t-195.5 -72q-136 0 -198 72.5t-62 236.5t62.5 237t197.5 73t195.5 -72.5t60.5 -237.5zM147 296q0 -127 36.5 -178t125.5 -51q87 0 123 51t36 178t-36 178t-123 51q-89 0 -125.5 -51t-36.5 -178zM205 682l-46 1q4 52 27.5 84.5t59.5 32.5
q33 0 71.5 -33t57.5 -33q30 0 42 55l46 -1q-4 -53 -27.5 -85t-60.5 -32q-32 0 -71 33t-57 33q-30 0 -42 -55z" />
    <glyph glyph-name="odieresis" unicode="&#xf6;" horiz-adv-x="615" 
d="M565 296q0 -165 -60.5 -237t-195.5 -72q-136 0 -198 72.5t-62 236.5t62.5 237t197.5 73t195.5 -72.5t60.5 -237.5zM147 296q0 -127 36.5 -178t125.5 -51q87 0 123 51t36 178t-36 178t-123 51q-89 0 -125.5 -51t-36.5 -178zM272 749q0 -47 -46 -47q-45 0 -45 47
q0 49 45 49q46 0 46 -49zM433 749q0 -47 -45 -47q-47 0 -47 47q0 49 47 49q45 0 45 -49z" />
    <glyph glyph-name="divide" unicode="&#xf7;" horiz-adv-x="597" 
d="M362 504q0 -54 -64 -54q-32 0 -48 12t-16 42q0 55 64 55t64 -55zM362 173q0 -54 -64 -54q-33 0 -48.5 12t-15.5 42q0 54 64 54t64 -54zM532 294h-467v90h467v-90z" />
    <glyph glyph-name="oslash" unicode="&#xf8;" horiz-adv-x="615" 
d="M81 -5l-41 40l47 59q-38 72 -38 202q0 164 62 237t197 73q110 0 171 -49l39 50l41 -39l-41 -54q47 -73 47 -218q0 -165 -60.5 -237t-196.5 -72q-125 0 -185 59zM467 296q0 80 -15 138l-275 -308q37 -59 131 -59q87 0 123 51t36 178zM146 296q0 -66 10 -118l270 302
q-35 45 -118 45q-88 0 -125 -51t-37 -178z" />
    <glyph glyph-name="ugrave" unicode="&#xf9;" horiz-adv-x="611" 
d="M537 596v-400q0 -101 -58 -154t-174 -53q-115 0 -173 53.5t-58 153.5v400h94v-398q0 -122 138 -122q137 0 137 122v398h94zM361 662h-74l-109 143h114z" />
    <glyph glyph-name="uacute" unicode="&#xfa;" horiz-adv-x="611" 
d="M537 596v-400q0 -101 -58 -154t-174 -53q-115 0 -173 53.5t-58 153.5v400h94v-398q0 -122 138 -122q137 0 137 122v398h94zM318 805h115l-114 -143h-73z" />
    <glyph glyph-name="ucircumflex" unicode="&#xfb;" horiz-adv-x="611" 
d="M537 596v-400q0 -101 -58 -154t-174 -53q-115 0 -173 53.5t-58 153.5v400h94v-398q0 -122 138 -122q137 0 137 122v398h94zM264 805h84l105 -143h-74l-72 103l-72 -103h-74z" />
    <glyph glyph-name="udieresis" unicode="&#xfc;" horiz-adv-x="611" 
d="M537 596v-400q0 -101 -58 -154t-174 -53q-115 0 -173 53.5t-58 153.5v400h94v-398q0 -122 138 -122q137 0 137 122v398h94zM271 749q0 -47 -46 -47q-45 0 -45 47q0 49 45 49q46 0 46 -49zM432 749q0 -47 -45 -47q-47 0 -47 47q0 49 47 49q45 0 45 -49z" />
    <glyph glyph-name="yacute" unicode="&#xfd;" horiz-adv-x="638" 
d="M187 -86q36 0 60.5 17t43.5 59l3 10l-261 596h110l170 -433l28 -75h3l22 77l137 431h102l-217 -603q-30 -81 -74.5 -117t-110.5 -36q-51 0 -92 19l9 71q33 -16 67 -16zM328 805h115l-114 -143h-73z" />
    <glyph glyph-name="thorn" unicode="&#xfe;" horiz-adv-x="630" 
d="M581 299q0 -310 -231 -310q-105 0 -164 63l-2 -1l1 -81v-118h-96v938l96 5v-177l-2 -80l3 -2q67 70 174 70q110 0 165.5 -70t55.5 -237zM482 299q0 124 -36.5 172t-114.5 48q-96 0 -146 -70v-306q45 -73 140 -73q77 0 117 50t40 179z" />
    <glyph glyph-name="ydieresis" unicode="&#xff;" horiz-adv-x="638" 
d="M187 -86q36 0 60.5 17t43.5 59l3 10l-261 596h110l170 -433l28 -75h3l22 77l137 431h102l-217 -603q-30 -81 -74.5 -117t-110.5 -36q-51 0 -92 19l9 71q33 -16 67 -16zM285 749q0 -47 -46 -47q-45 0 -45 47q0 49 45 49q46 0 46 -49zM446 749q0 -47 -45 -47q-47 0 -47 47
q0 49 47 49q45 0 45 -49z" />
    <glyph glyph-name="dotlessi" unicode="&#x131;" horiz-adv-x="312" 
d="M203 0h-95v593l95 5v-598z" />
    <glyph glyph-name="IJ" unicode="&#x132;" horiz-adv-x="856" 
d="M110 0v750h105v-750h-105zM759 750v-497q0 -135 -68.5 -201t-196.5 -66q-90 0 -151 41l8 91q51 -38 130 -38q174 0 174 174v496h104z" />
    <glyph glyph-name="ij" unicode="&#x133;" horiz-adv-x="588" 
d="M202 0h-95v593l95 5v-598zM216 747q0 -51 -61 -51q-32 0 -46.5 11.5t-14.5 39.5q0 51 61 51t61 -51zM494 598v-607q0 -149 -142 -149q-36 0 -69 12l5 70q23 -7 42 -7q70 0 70 77v599zM507 749q0 -52 -61 -52q-62 0 -62 52q0 51 62 51q61 0 61 -51z" />
    <glyph glyph-name="Lslash" unicode="&#x141;" horiz-adv-x="600" 
d="M226 96h349l-3 -96h-449v296l-77 -36l-7 85l84 39v366h103v-322l209 99l10 -88l-219 -101v-242z" />
    <glyph glyph-name="lslash" unicode="&#x142;" horiz-adv-x="358" 
d="M44 361l-2 84l86 46v298l95 6v-263l93 50l1 -82l-94 -51v-449h-95v407z" />
    <glyph glyph-name="OE" unicode="&#x152;" horiz-adv-x="1096" 
d="M1047 0h-468v91l-3 1q-62 -106 -223 -106q-153 0 -223 92t-70 297t69.5 296t224.5 91q161 0 222 -97h3v85h451l3 -94h-361v-223h309v-86h-309v-254h378zM571 375q0 170 -43.5 231t-156.5 61t-158 -61.5t-45 -230.5t45 -231.5t158 -62.5q112 0 156 62.5t44 231.5z" />
    <glyph glyph-name="oe" unicode="&#x153;" horiz-adv-x="1001" 
d="M752 -12q-90 0 -144 28.5t-81 89.5h-3q-49 -119 -215 -119q-131 0 -192 72.5t-61 236.5t61 237t192 73q162 0 212 -108h3q52 108 198 108q108 0 170 -68.5t62 -206.5q0 -27 -3 -46h-379q3 -116 47.5 -163.5t141.5 -47.5q84 0 162 39l12 -81q-83 -44 -183 -44zM153 296
q0 -127 37.5 -178t125.5 -51q87 0 122.5 51t35.5 178t-35.5 178t-123.5 51t-125 -51t-37 -178zM569 350h298q-1 90 -40.5 132t-106.5 42q-74 0 -110 -42.5t-41 -131.5z" />
    <glyph glyph-name="Scaron" unicode="&#x160;" horiz-adv-x="568" 
d="M527 214q0 -107 -66.5 -167.5t-189.5 -60.5q-122 0 -220 57l16 93q94 -57 203 -57q78 0 118 33.5t40 94.5q0 39 -27.5 67t-68.5 42.5t-89.5 33.5t-89.5 39.5t-68.5 62.5t-27.5 100q0 94 62 152t185 58q115 0 198 -40l-14 -89q-92 36 -179 36q-79 0 -116 -31t-37 -80
q0 -38 27.5 -64.5t68.5 -40t89.5 -32.5t89.5 -40t68.5 -64t27.5 -103zM357 797h-101l-114 117h90l75 -77l76 77h88z" />
    <glyph glyph-name="scaron" unicode="&#x161;" horiz-adv-x="493" 
d="M449 175q0 -88 -52 -137.5t-158 -49.5q-113 0 -183 50l12 82q69 -52 170 -52q62 0 92.5 26.5t30.5 71.5q0 37 -31.5 60t-76.5 37t-89.5 31t-76 53t-31.5 92q0 77 53.5 122t154.5 45q87 0 161 -34l-8 -80q-76 32 -155 32q-53 0 -84.5 -21.5t-31.5 -58.5q0 -35 31 -56
t76 -34.5t89.5 -30t75.5 -53.5t31 -95zM299 662h-85l-102 143h74l71 -104l71 104h76z" />
    <glyph glyph-name="Ydieresis" unicode="&#x178;" horiz-adv-x="671" 
d="M21 750h118l163 -329l35 -73h3l33 73l163 329h113l-260 -496v-254h-104v254zM288 848q0 -46 -46 -46t-46 46t46 46t46 -46zM480 848q0 -46 -46 -46t-46 46t46 46t46 -46z" />
    <glyph glyph-name="Zcaron" unicode="&#x17d;" horiz-adv-x="617" 
d="M562 0h-514v69l346 518l45 65l-1 2h-379l4 96h500v-78l-342 -511l-45 -63l1 -3h388zM362 797h-101l-114 117h90l75 -77l76 77h88z" />
    <glyph glyph-name="zcaron" unicode="&#x17e;" horiz-adv-x="542" 
d="M481 527l-264 -379l-47 -63l1 -3h316l-3 -82h-424v68l265 380l47 64l-1 2h-300l3 82h407v-69zM320 662h-85l-102 143h74l71 -104l71 104h76z" />
    <glyph glyph-name="longs" unicode="&#x17f;" horiz-adv-x="307" 
d="M20 524l3 67h82q2 117 56.5 165t189.5 48l5 -69q-81 0 -117 -29t-36 -116v-496q0 -122 -55 -178.5t-166 -69.5l-7 67q71 12 101 51t30 129v431h-86z" />
    <glyph glyph-name="florin" unicode="&#x192;" horiz-adv-x="409" 
d="M89 -148h-94l145 668h-63l15 76h63l10 50q14 64 60.5 101t123.5 37q45 0 82 -13l-20 -65q-29 9 -57 9q-40 0 -65 -20t-31 -55l-8 -44h142l-16 -76h-142z" />
    <glyph glyph-name="uni02BB" unicode="&#x2bb;" horiz-adv-x="233" 
d="M118 571q-62 0 -62 66q0 28 23 86.5t49 99.5l35 -9l-26 -123q16 -5 28 -21t12 -35q0 -64 -59 -64z" />
    <glyph glyph-name="afii57929" unicode="&#x2bc;" horiz-adv-x="233" 
d="M116 792q62 0 62 -66q0 -28 -23.5 -86.5t-49.5 -99.5l-34 9l26 123q-17 5 -29 21t-12 35q0 64 60 64z" />
    <glyph glyph-name="circumflex" unicode="&#x2c6;" 
d="M157 805h84l105 -143h-74l-72 103l-72 -103h-74z" />
    <glyph glyph-name="caron" unicode="&#x2c7;" 
d="M242 662h-85l-102 143h74l71 -104l71 104h76z" />
    <glyph glyph-name="breve" unicode="&#x2d8;" 
d="M273 805h68q0 -151 -141 -151q-142 0 -142 151h66q0 -48 20.5 -72.5t55.5 -24.5q34 0 54 24.5t19 72.5z" />
    <glyph glyph-name="dotaccent" unicode="&#x2d9;" 
d="M261 749q0 -52 -62 -52t-62 52q0 51 62 51t62 -51z" />
    <glyph glyph-name="ring" unicode="&#x2da;" 
d="M99 744q0 38 25.5 59.5t75.5 21.5q48 0 75 -22.5t27 -58.5q0 -80 -102 -80q-101 0 -101 80zM148 744q0 -41 53 -41q54 0 54 41t-54 41q-53 0 -53 -41z" />
    <glyph glyph-name="ogonek" unicode="&#x2db;" 
d="M248 -182q-54 0 -79.5 23t-25.5 60q0 39 25.5 69t70.5 46l39 -16q-62 -25 -62 -77q0 -44 57 -44q32 0 60 14l8 -52q-43 -23 -93 -23z" />
    <glyph glyph-name="tilde" unicode="&#x2dc;" 
d="M100 682l-46 1q4 52 27.5 84.5t59.5 32.5q33 0 71.5 -33t57.5 -33q30 0 42 55l46 -1q-4 -53 -27.5 -85t-60.5 -32q-32 0 -71 33t-57 33q-30 0 -42 -55z" />
    <glyph glyph-name="hungarumlaut" unicode="&#x2dd;" 
d="M166 805h102l-108 -143h-63zM325 805h104l-114 -143h-72z" />
    <glyph glyph-name="uni0394" unicode="&#x394;" horiz-adv-x="755" 
d="M411 754l299 -754h-667l299 754h69zM376 636l-28 -77l-183 -473h421l-180 473l-27 77h-3z" />
    <glyph glyph-name="uni03A9" unicode="&#x3a9;" horiz-adv-x="742" 
d="M371 761q304 0 304 -329q0 -104 -45 -193t-134 -151v-3h185v-85h-271v121q158 123 158 306q0 126 -47.5 183.5t-149.5 57.5t-149.5 -57.5t-47.5 -183.5q0 -183 158 -306v-121h-271v85h184l1 3q-179 124 -179 344q0 329 304 329z" />
    <glyph glyph-name="uni03BC" unicode="&#x3bc;" horiz-adv-x="620" 
d="M322 -11q-111 0 -155 85l-2 -1q6 -145 12 -219l-94 -8v750h95v-396q0 -58 39.5 -91.5t102.5 -33.5q59 0 95.5 29t36.5 82v410h94v-594l-67 -6l-14 56h-3q-43 -63 -140 -63z" />
    <glyph glyph-name="pi" unicode="&#x3c0;" horiz-adv-x="675" 
d="M441 149v362h-206v-511h-94v511q-63 -3 -91 -24l-26 75q42 34 154 34h450v-84h-94v-363q0 -45 15 -62t56 -17v-74q-97 0 -130.5 33t-33.5 120z" />
    <glyph glyph-name="uni2007" unicode="&#x2007;" horiz-adv-x="649" 
 />
    <glyph glyph-name="uni2008" unicode="&#x2008;" horiz-adv-x="252" 
 />
    <glyph glyph-name="uni200B" unicode="&#x200b;" horiz-adv-x="0" 
 />
    <glyph glyph-name="endash" unicode="&#x2013;" horiz-adv-x="532" 
d="M70 376h392v-71h-392v71z" />
    <glyph glyph-name="emdash" unicode="&#x2014;" horiz-adv-x="708" 
d="M70 376h568v-71h-568v71z" />
    <glyph glyph-name="quoteleft" unicode="&#x2018;" horiz-adv-x="233" 
d="M118 571q-62 0 -62 66q0 28 23 86.5t49 99.5l35 -9l-26 -123q16 -5 28 -21t12 -35q0 -64 -59 -64z" />
    <glyph glyph-name="quoteright" unicode="&#x2019;" horiz-adv-x="233" 
d="M116 792q62 0 62 -66q0 -28 -23.5 -86.5t-49.5 -99.5l-34 9l26 123q-17 5 -29 21t-12 35q0 64 60 64z" />
    <glyph glyph-name="quotesinglbase" unicode="&#x201a;" horiz-adv-x="233" 
d="M116 110q62 0 62 -66q0 -28 -23.5 -86.5t-49.5 -99.5l-34 9l26 123q-17 5 -29 21t-12 35q0 64 60 64z" />
    <glyph glyph-name="quotedblleft" unicode="&#x201c;" horiz-adv-x="417" 
d="M118 571q-62 0 -62 66q0 28 23 86.5t49 99.5l35 -9l-26 -123q16 -5 28 -21t12 -35q0 -64 -59 -64zM301 571q-62 0 -62 66q1 28 24 87t49 99l34 -9l-26 -123q17 -5 29 -21t12 -35q0 -64 -60 -64z" />
    <glyph glyph-name="quotedblright" unicode="&#x201d;" horiz-adv-x="416" 
d="M116 791q62 0 62 -66q0 -28 -23.5 -86.5t-49.5 -99.5l-34 9l26 123q-17 5 -29 21t-12 35q0 64 60 64zM299 791q62 0 62 -66q0 -28 -23.5 -86.5t-49.5 -99.5l-34 9l26 123q-17 5 -29 21t-12 35q0 64 60 64z" />
    <glyph glyph-name="quotedblbase" unicode="&#x201e;" horiz-adv-x="417" 
d="M299 110q62 0 62 -66q0 -28 -23.5 -86.5t-49.5 -99.5l-34 9l26 123q-17 5 -29 21t-12 35q0 64 60 64zM116 110q62 0 62 -66q0 -28 -23.5 -86.5t-49.5 -99.5l-34 9l26 123q-17 5 -29 21t-12 35q0 64 60 64z" />
    <glyph glyph-name="dagger" unicode="&#x2020;" horiz-adv-x="501" 
d="M45 601l164 -7l-8 199h93l-6 -199l168 7v-91l-168 6l6 -660h-93l8 660l-164 -6v91z" />
    <glyph glyph-name="daggerdbl" unicode="&#x2021;" horiz-adv-x="501" 
d="M456 142v-91l-169 7l7 -203h-93l8 203l-164 -7v90l165 -6l-1 381l-164 -6v91l164 -7l-8 199h93l-6 -199l168 7v-91l-168 6v-381z" />
    <glyph glyph-name="bullet" unicode="&#x2022;" horiz-adv-x="406" 
d="M66 322q0 137 135 137q134 0 134 -137q0 -138 -134 -138q-135 0 -135 138z" />
    <glyph glyph-name="ellipsis" unicode="&#x2026;" horiz-adv-x="654" 
d="M590 51q0 -62 -62 -62q-33 0 -47.5 14.5t-14.5 47.5q0 61 62 61t62 -61zM394 51q0 -62 -62 -62q-33 0 -47.5 14.5t-14.5 47.5q0 61 62 61t62 -61zM188 51q0 -62 -62 -62q-33 0 -47.5 14.5t-14.5 47.5q0 61 62 61t62 -61z" />
    <glyph glyph-name="perthousand" unicode="&#x2030;" horiz-adv-x="1028" 
d="M334 588q0 -175 -143 -175q-74 0 -108.5 42t-34.5 133q0 92 33.5 133t109.5 41q73 0 108 -40.5t35 -133.5zM269 589q0 63 -18.5 87.5t-59.5 24.5q-42 0 -60.5 -24t-18.5 -88t18.5 -88t60.5 -24t60 24t18 88zM515 734l58 -43l-389 -676l-59 43zM663 166
q0 -90 -35.5 -132.5t-107.5 -42.5q-74 0 -108.5 42t-34.5 133q0 93 33.5 135t110.5 42q72 0 107 -41.5t35 -135.5zM599 166q0 64 -18.5 88t-59.5 24q-42 0 -60.5 -24t-18.5 -88q0 -63 18.5 -87t59.5 -24q42 0 60.5 24t18.5 87zM981 166q0 -90 -35.5 -132.5t-108.5 -42.5
q-74 0 -108.5 42t-34.5 133q0 93 33.5 135t110.5 42q72 0 107.5 -41.5t35.5 -135.5zM916 166q0 64 -18.5 88t-59.5 24q-42 0 -60.5 -24t-18.5 -88q0 -63 18.5 -87t59.5 -24q42 0 60.5 24t18.5 87z" />
    <glyph glyph-name="guilsinglleft" unicode="&#x2039;" horiz-adv-x="405" 
d="M336 446l-193 -120l193 -120v-78l-290 194v8l290 194v-78z" />
    <glyph glyph-name="guilsinglright" unicode="&#x203a;" horiz-adv-x="405" 
d="M69 128v78l193 120l-193 120v78l291 -194v-8z" />
    <glyph glyph-name="fraction" unicode="&#x2044;" horiz-adv-x="288" 
d="M378 750h70l-504 -750h-70z" />
    <glyph glyph-name="uni2070" unicode="&#x2070;" horiz-adv-x="368" 
d="M337 694q0 -107 -36 -154.5t-117 -47.5t-117 47.5t-36 154.5q0 110 36 156.5t118 46.5q81 0 116.5 -47t35.5 -156zM265 695q0 83 -18.5 112.5t-61.5 29.5q-45 0 -64 -29.5t-19 -112.5t19 -113t64 -30q43 0 61.5 30t18.5 113z" />
    <glyph glyph-name="uni2074" unicode="&#x2074;" horiz-adv-x="368" 
d="M349 579h-45v-81h-68v81h-202l-5 41l187 272h88v-254h47zM238 638l2 109l3 81l-2 1l-41 -64l-41 -61l-46 -63l1 -3h124z" />
    <glyph glyph-name="uni2075" unicode="&#x2075;" horiz-adv-x="368" 
d="M331 633q0 -140 -149 -140q-76 0 -127 29l12 58q56 -28 110 -28q44 0 63.5 18.5t19.5 57.5q0 62 -80 62q-50 0 -93 -16l-29 24l18 194h234l2 -62h-180l-7 -91q41 9 71 9q135 0 135 -115z" />
    <glyph glyph-name="uni2076" unicode="&#x2076;" horiz-adv-x="368" 
d="M335 633q0 -69 -37.5 -104.5t-108.5 -35.5q-76 0 -114.5 45t-38.5 145q0 214 179 214q53 0 97 -16l-5 -59q-38 14 -83 14q-55 0 -83 -27t-34 -83l2 -2q39 27 94 27q132 0 132 -118zM263 634q0 33 -17 48t-55 15q-55 0 -81 -32q1 -61 19.5 -87t60.5 -26q73 0 73 82z" />
    <glyph glyph-name="uni2077" unicode="&#x2077;" horiz-adv-x="368" 
d="M335 892v-61l-167 -333h-85l174 327h-221l3 67h296z" />
    <glyph glyph-name="uni2078" unicode="&#x2078;" horiz-adv-x="368" 
d="M32 610q0 61 68 94v3q-52 25 -52 87q0 103 137 103q135 0 135 -103q0 -56 -53 -87v-2q69 -27 69 -95q0 -117 -151 -117q-153 0 -153 117zM264 605q0 8 -1.5 14.5t-6 11.5t-8 9.5t-11.5 8.5t-13 7t-15 6.5l-16 5.5t-18 5.5t-17 5.5q-55 -27 -55 -70q0 -31 19 -45.5
t64 -14.5q78 0 78 56zM117 791q0 -19 15 -32t29 -18t47 -15q46 25 46 61q0 55 -69 55q-68 0 -68 -51z" />
    <glyph glyph-name="uni2079" unicode="&#x2079;" horiz-adv-x="368" 
d="M330 712q0 -114 -41.5 -166.5t-127.5 -52.5q-54 0 -101 18l10 58q41 -17 87 -17q53 0 79.5 31.5t30.5 100.5l-2 1q-36 -33 -92 -33q-138 0 -138 119q0 58 36 92.5t106 34.5q153 0 153 -186zM259 736q0 56 -20 79.5t-63 23.5q-35 0 -54 -17t-19 -48q0 -69 78 -69
q55 0 78 31z" />
    <glyph glyph-name="uni207A" unicode="&#x207a;" horiz-adv-x="370" 
d="M326 667h-114v-112h-57v112h-111v62h111v113h57v-113h114v-62z" />
    <glyph glyph-name="uni207B" unicode="&#x207b;" horiz-adv-x="370" 
d="M322 672h-274v59h274v-59z" />
    <glyph glyph-name="uni207C" unicode="&#x207c;" horiz-adv-x="370" 
d="M322 732h-274v53h274v-53zM322 615h-274v53h274v-53z" />
    <glyph glyph-name="uni207D" unicode="&#x207d;" horiz-adv-x="210" 
d="M148 923l50 -4q-71 -103 -71 -239q0 -135 71 -239l-50 -4q-87 93 -87 243q0 145 87 243z" />
    <glyph glyph-name="uni207E" unicode="&#x207e;" horiz-adv-x="210" 
d="M11 919l51 4q86 -95 86 -243q0 -151 -86 -243l-51 4q71 107 71 239q0 133 -71 239z" />
    <glyph glyph-name="uni2080" unicode="&#x2080;" horiz-adv-x="368" 
d="M337 49q0 -107 -36 -154.5t-117 -47.5t-117 47.5t-36 154.5q0 110 36 156.5t118 46.5q81 0 116.5 -47t35.5 -156zM265 50q0 83 -18.5 112.5t-61.5 29.5q-45 0 -64 -29.5t-19 -112.5t19 -113t64 -30q43 0 61.5 30t18.5 113z" />
    <glyph glyph-name="uni2081" unicode="&#x2081;" horiz-adv-x="271" 
d="M206 249v-396h-73v226l3 79l-3 1l-83 -52l-6 60l117 82h45z" />
    <glyph glyph-name="uni2082" unicode="&#x2082;" horiz-adv-x="353" 
d="M317 138q0 -55 -43.5 -103t-137.5 -118v-3h183l-1 -61h-274v47l44 39l42.5 38l35.5 33t32 33.5t22.5 30t16.5 30.5t5 28q0 26 -19 42t-58 16q-51 0 -106 -38l-18 58q59 42 137 42q68 0 103.5 -30.5t35.5 -83.5z" />
    <glyph glyph-name="uni2083" unicode="&#x2083;" horiz-adv-x="353" 
d="M319 -29q0 -123 -155 -123q-73 0 -130 32l17 56q51 -30 113 -30q43 0 64 18.5t21 49.5q0 32 -26.5 46t-95.5 14v51q64 0 89.5 14.5t25.5 43.5q0 49 -76 49q-64 0 -112 -36l-18 54q54 42 132 42q67 0 104.5 -27t37.5 -77q0 -63 -66 -86v-2q75 -20 75 -89z" />
    <glyph glyph-name="uni2084" unicode="&#x2084;" horiz-adv-x="368" 
d="M349 -66h-45v-81h-68v81h-202l-5 41l187 272h88v-254h47zM238 -7l2 109l3 81l-2 1l-41 -64l-41 -61l-46 -63l1 -3h124z" />
    <glyph glyph-name="uni2085" unicode="&#x2085;" horiz-adv-x="368" 
d="M331 -12q0 -140 -149 -140q-76 0 -127 29l12 58q53 -28 110 -28q44 0 63.5 18.5t19.5 57.5q0 62 -80 62q-50 0 -93 -16l-29 24l18 194h234l2 -62h-180l-7 -91q41 9 71 9q135 0 135 -115z" />
    <glyph glyph-name="uni2086" unicode="&#x2086;" horiz-adv-x="368" 
d="M335 -12q0 -69 -37.5 -104.5t-108.5 -35.5q-76 0 -114.5 45t-38.5 145q0 214 179 214q53 0 97 -16l-5 -59q-35 13 -83 13q-55 0 -83 -26.5t-34 -83.5l2 -2q40 28 94 28q132 0 132 -118zM263 -11q0 33 -17 48t-55 15q-55 0 -81 -32q1 -61 19.5 -87t60.5 -26q73 0 73 82z
" />
    <glyph glyph-name="uni2087" unicode="&#x2087;" horiz-adv-x="368" 
d="M335 247v-62l-167 -332h-85l174 327h-221l3 67h296z" />
    <glyph glyph-name="uni2088" unicode="&#x2088;" horiz-adv-x="368" 
d="M32 -35q0 61 67 93l1 2q-52 29 -52 88q0 104 137 104q135 0 135 -104q0 -55 -53 -86v-2q69 -27 69 -95q0 -117 -151 -117q-153 0 -153 117zM264 -40q0 8 -1.5 14.5t-6 11.5t-8 9.5t-11.5 8.5t-13 7t-15 6.5l-16 5.5t-18 5.5t-17 5.5q-55 -27 -55 -70q0 -32 19 -46t64 -14
q78 0 78 56zM117 146q0 -19 15 -32t29 -18t47 -15q46 25 46 61q0 55 -69 55q-68 0 -68 -51z" />
    <glyph glyph-name="uni2089" unicode="&#x2089;" horiz-adv-x="368" 
d="M330 67q0 -114 -41.5 -166.5t-127.5 -52.5q-54 0 -101 18l10 58q41 -17 87 -17q52 0 79 31.5t31 100.5l-2 1q-36 -33 -92 -33q-138 0 -138 119q0 58 36 92.5t106 34.5q153 0 153 -186zM259 91q0 56 -20 79.5t-63 23.5q-35 0 -54 -17t-19 -48q0 -69 78 -69q55 0 78 31z
" />
    <glyph glyph-name="uni208A" unicode="&#x208a;" horiz-adv-x="370" 
d="M326 22h-114v-112h-57v112h-111v61h111v114h57v-114h114v-61z" />
    <glyph glyph-name="uni208B" unicode="&#x208b;" horiz-adv-x="370" 
d="M322 27h-274v59h274v-59z" />
    <glyph glyph-name="uni208C" unicode="&#x208c;" horiz-adv-x="370" 
d="M322 87h-274v52h274v-52zM322 -30h-274v53h274v-53z" />
    <glyph glyph-name="uni208D" unicode="&#x208d;" horiz-adv-x="210" 
d="M148 280l50 -4q-71 -103 -71 -239q0 -133 71 -239l-50 -4q-87 93 -87 243q0 145 87 243z" />
    <glyph glyph-name="uni208E" unicode="&#x208e;" horiz-adv-x="210" 
d="M11 276l51 4q86 -95 86 -243q0 -151 -86 -243l-51 4q71 108 71 239q0 133 -71 239z" />
    <glyph glyph-name="franc" unicode="&#x20a3;" horiz-adv-x="649" 
d="M27 181h85v569h463l2 -97h-363v-225h285l-1 -91h-284v-156h91v-72h-91v-109h-102v109h-85v72z" />
    <glyph glyph-name="lira" unicode="&#x20a4;" horiz-adv-x="649" 
d="M89 402l-4 59h36q-12 46 -12 86q0 95 63.5 154.5t203.5 59.5q103 0 186 -38l-14 -88q-72 34 -162 34q-91 0 -134 -37.5t-43 -98.5q0 -37 9 -72h288v-59h-272q9 -35 14 -60h258v-58h-250q2 -24 2 -38q0 -112 -76 -162l2 -3q86 19 211 19q82 0 205 -13l-5 -93
q-135 14 -244 14q-142 0 -281 -13l-5 89q47 16 73 59t26 99q0 16 -2 42h-70l-2 58h64q-3 12 -9 34t-7 26h-49z" />
    <glyph glyph-name="peseta" unicode="&#x20a7;" horiz-adv-x="649" 
d="M621 486h-58q-6 -105 -64.5 -155.5t-180.5 -50.5h-134v-280h-95v486h-61v54h61v210h229q123 0 181.5 -49.5t63.5 -160.5h59zM184 664v-124h281q-5 68 -39.5 96t-107.5 28h-134zM318 363q71 0 106 27t41 96h-281v-123h134z" />
    <glyph glyph-name="Euro" unicode="&#x20ac;" horiz-adv-x="649" 
d="M500 343l-14 -56h-258q14 -111 69 -161t156 -50q87 0 170 47l8 -80q-83 -52 -201 -52q-141 0 -214.5 72.5t-89.5 223.5h-89v56h84v62h-84v58h88q17 141 96.5 217t215.5 76q112 0 181 -36l-21 -83q-68 27 -141 27q-197 0 -227 -201h309l-14 -58h-301v-62h277z" />
    <glyph glyph-name="trademark" unicode="&#x2122;" horiz-adv-x="663" 
d="M615 493h-51v128l2 81l-3 1l-29 -76l-55 -134h-43l-57 137l-29 76l-2 -1l1 -81v-131h-50v276h74l55 -134l29 -75h3l29 75l56 134h70v-276zM259 716h-84v-223h-58v223h-85v53h227v-53z" />
    <glyph glyph-name="Omega" unicode="&#x2126;" horiz-adv-x="742" 
d="M371 761q304 0 304 -329q0 -104 -45 -193t-134 -151v-3h185v-85h-271v121q158 123 158 306q0 126 -47.5 183.5t-149.5 57.5t-149.5 -57.5t-47.5 -183.5q0 -183 158 -306v-121h-271v85h184l1 3q-179 124 -179 344q0 329 304 329z" />
    <glyph glyph-name="uni2150" unicode="&#x2150;" horiz-adv-x="927" 
d="M206 751v-395h-73v226l3 79l-3 1l-83 -52l-6 60l117 81h45zM649 750h70l-504 -750h-70zM894 394v-61l-167 -333h-85l174 328h-221l3 66h296z" />
    <glyph glyph-name="uni2151" unicode="&#x2151;" horiz-adv-x="927" 
d="M206 751v-395h-73v226l3 79l-3 1l-83 -52l-6 60l117 81h45zM649 750h70l-504 -750h-70zM889 215q0 -114 -41.5 -167t-127.5 -53q-55 0 -101 19l10 57q45 -17 87 -17q52 0 79 31.5t31 100.5l-2 1q-36 -33 -92 -33q-71 0 -104.5 32t-33.5 87q0 58 36 92.5t106 34.5
q153 0 153 -185zM818 238q0 57 -20 80t-63 23q-35 0 -54 -17t-19 -48q0 -69 78 -69q55 0 78 31z" />
    <glyph glyph-name="uni2152" unicode="&#x2152;" horiz-adv-x="1198" 
d="M206 751v-395h-73v226l3 79l-3 1l-83 -52l-6 60l117 81h45zM649 750h70l-504 -750h-70zM765 396v-396h-73v226l3 79l-3 1l-83 -52l-6 60l117 82h45zM1167 197q0 -107 -36 -154.5t-117 -47.5t-117 47.5t-36 154.5q0 110 36 156.5t118 46.5q81 0 116.5 -47t35.5 -156z
M1095 197q0 83 -18.5 112.5t-61.5 29.5q-45 0 -64 -29.5t-19 -112.5t19 -112.5t64 -29.5q43 0 61.5 29.5t18.5 112.5z" />
    <glyph glyph-name="onethird" unicode="&#x2153;" horiz-adv-x="877" 
d="M806 118q0 -123 -156 -123q-74 0 -129 32l16 56q52 -29 113 -29q86 0 86 67q0 33 -27 47t-96 14v50q64 0 89.5 14.5t25.5 43.5q0 50 -76 50q-64 0 -112 -36l-18 53q54 42 132 42q67 0 104.5 -27t37.5 -77q0 -63 -66 -86v-2q76 -19 76 -89zM644 750h70l-504 -750h-70z
M277 751v-395h-73v226l3 79l-3 1l-83 -52l-6 60l117 81h45z" />
    <glyph glyph-name="twothirds" unicode="&#x2154;" horiz-adv-x="877" 
d="M333 641q0 -55 -43.5 -103t-136.5 -118v-3h182l-1 -61h-274v47l44 39l42.5 38l35.5 33t32 33.5t22.5 30t16.5 30.5t5 28q0 57 -77 57q-51 0 -106 -37l-18 58q59 42 137 42q68 0 103.5 -30.5t35.5 -83.5zM656 750h70l-504 -750h-70zM812 118q0 -123 -156 -123
q-74 0 -129 32l16 56q52 -29 113 -29q86 0 86 67q0 33 -27 47t-96 14v50q64 0 89.5 14.5t25.5 43.5q0 50 -76 50q-64 0 -112 -36l-18 53q54 42 132 42q67 0 104.5 -27t37.5 -77q0 -63 -66 -86v-2q76 -19 76 -89z" />
    <glyph glyph-name="uni2155" unicode="&#x2155;" horiz-adv-x="927" 
d="M206 751v-395h-73v226l3 79l-3 1l-83 -52l-6 60l117 81h45zM649 750h70l-504 -750h-70zM890 135q0 -140 -149 -140q-75 0 -127 30l12 57q56 -28 110 -28q44 0 63.5 18.5t19.5 57.5q0 62 -80 62q-55 0 -93 -16l-29 25l18 193h234l2 -62h-180l-7 -91q41 9 71 9
q135 0 135 -115z" />
    <glyph glyph-name="uni2156" unicode="&#x2156;" horiz-adv-x="1009" 
d="M317 641q0 -55 -43.5 -103t-136.5 -118v-3h182l-1 -61h-274v47l44 39l42.5 38l35.5 33t32 33.5t22.5 30t16.5 30.5t5 28q0 57 -77 57q-51 0 -106 -37l-18 58q59 42 137 42q68 0 103.5 -30.5t35.5 -83.5zM731 750h70l-504 -750h-70zM972 135q0 -140 -149 -140
q-75 0 -127 30l12 57q56 -28 110 -28q44 0 63.5 18.5t19.5 57.5q0 62 -80 62q-55 0 -93 -16l-29 25l18 193h234l2 -62h-180l-7 -91q41 9 71 9q135 0 135 -115z" />
    <glyph glyph-name="uni2157" unicode="&#x2157;" horiz-adv-x="1009" 
d="M319 474q0 -123 -155 -123q-76 0 -130 32l17 56q51 -30 113 -30q43 0 64 18.5t21 49.5q0 32 -26.5 46t-95.5 14v51q64 0 89.5 14t25.5 44q0 49 -76 49q-64 0 -112 -36l-18 54q54 42 132 42q67 0 104.5 -27t37.5 -77q0 -63 -66 -86v-2q75 -20 75 -89zM731 750h70
l-504 -750h-70zM972 135q0 -140 -149 -140q-75 0 -127 30l12 57q56 -28 110 -28q44 0 63.5 18.5t19.5 57.5q0 62 -80 62q-55 0 -93 -16l-29 25l18 193h234l2 -62h-180l-7 -91q41 9 71 9q135 0 135 -115z" />
    <glyph glyph-name="uni2158" unicode="&#x2158;" horiz-adv-x="1024" 
d="M349 437h-45v-81h-68v81h-202l-5 41l187 272h88v-255h47zM238 495l2 110l3 81l-2 1l-83 -126l-46 -63l1 -3h125zM746 750h70l-504 -750h-70zM987 135q0 -140 -149 -140q-74 0 -127 30l12 57q56 -28 110 -28q44 0 63.5 18.5t19.5 57.5q0 62 -80 62q-55 0 -93 -16l-29 25
l18 193h234l2 -62h-180l-7 -91q41 9 71 9q135 0 135 -115z" />
    <glyph glyph-name="uni2159" unicode="&#x2159;" horiz-adv-x="927" 
d="M206 751v-395h-73v226l3 79l-3 1l-83 -52l-6 60l117 81h45zM649 750h70l-504 -750h-70zM894 136q0 -141 -146 -141q-76 0 -114.5 45.5t-38.5 145.5q0 213 179 213q53 0 97 -16l-5 -59q-38 14 -83 14q-55 0 -83 -27t-34 -83l2 -2q39 27 94 27q132 0 132 -117zM822 136
q0 33 -17 48t-55 15q-55 0 -81 -32q1 -61 19.5 -86.5t60.5 -25.5q73 0 73 81z" />
    <glyph glyph-name="uni215A" unicode="&#x215a;" horiz-adv-x="1024" 
d="M331 491q0 -140 -149 -140q-76 0 -127 29l12 58q53 -28 110 -28q44 0 63.5 18.5t19.5 57.5q0 62 -80 62q-50 0 -93 -16l-29 24l18 194h234l2 -62h-180l-7 -91q35 9 71 9q135 0 135 -115zM746 750h70l-504 -750h-70zM991 136q0 -141 -146 -141q-76 0 -114.5 45.5
t-38.5 145.5q0 213 179 213q53 0 97 -16l-5 -59q-38 14 -83 14q-55 0 -83 -27t-34 -83l2 -2q39 27 94 27q132 0 132 -117zM919 136q0 33 -17 48t-55 15q-55 0 -81 -32q1 -61 19.5 -86.5t60.5 -25.5q73 0 73 81z" />
    <glyph glyph-name="oneeighth" unicode="&#x215b;" horiz-adv-x="877" 
d="M281 751v-395h-73v226l3 79l-3 1l-83 -52l-6 60l117 81h45zM641 750h70l-504 -750h-70zM498 112q0 62 67 94v3q-51 25 -51 87q0 103 137 103q135 0 135 -103q0 -57 -53 -86v-2q69 -28 69 -96q0 -117 -151 -117q-153 0 -153 117zM730 107q0 8 -1.5 14.5t-6 11.5t-8 9.5
t-11.5 8.5t-13 7t-15 6.5l-16 5.5t-18 5.5t-17 5.5q-55 -27 -55 -70q0 -31 19 -45.5t64 -14.5q78 0 78 56zM583 293q0 -19 15 -32t30 -18t47 -14q45 24 45 60q0 55 -69 55q-68 0 -68 -51z" />
    <glyph glyph-name="threeeighths" unicode="&#x215c;" horiz-adv-x="877" 
d="M348 474q0 -123 -155 -123q-76 0 -130 32l17 56q51 -30 113 -30q43 0 64 18.5t21 49.5q0 32 -26.5 46t-95.5 14v51q64 0 89.5 14t25.5 44q0 49 -76 49q-64 0 -112 -36l-18 54q54 42 132 42q67 0 104.5 -27t37.5 -77q0 -63 -66 -86v-2q75 -20 75 -89zM653 750h70
l-504 -750h-70zM508 112q0 62 67 94v3q-51 25 -51 87q0 103 137 103q135 0 135 -103q0 -57 -53 -86v-2q69 -28 69 -96q0 -117 -151 -117q-153 0 -153 117zM740 107q0 8 -1.5 14.5t-6 11.5t-8 9.5t-11.5 8.5t-13 7t-15 6.5l-16 5.5t-18 5.5t-17 5.5q-55 -27 -55 -70
q0 -31 19 -45.5t64 -14.5q78 0 78 56zM593 293q0 -19 15 -32t30 -18t47 -14q45 24 45 60q0 55 -69 55q-68 0 -68 -51z" />
    <glyph glyph-name="fiveeighths" unicode="&#x215d;" horiz-adv-x="877" 
d="M381 491q0 -140 -149 -140q-76 0 -127 29l12 58q53 -28 110 -28q44 0 63.5 18.5t19.5 57.5q0 62 -80 62q-50 0 -93 -16l-29 24l18 194h234l2 -62h-180l-7 -91q34 9 71 9q135 0 135 -115zM649 750h70l-504 -750h-70zM506 112q0 62 67 94v3q-51 25 -51 87q0 103 137 103
q135 0 135 -103q0 -57 -53 -86v-2q69 -28 69 -96q0 -117 -151 -117q-153 0 -153 117zM738 107q0 8 -1.5 14.5t-6 11.5t-8 9.5t-11.5 8.5t-13 7t-15 6.5l-16 5.5t-18 5.5t-17 5.5q-55 -27 -55 -70q0 -31 19 -45.5t64 -14.5q78 0 78 56zM591 293q0 -19 15 -32t30 -18t47 -14
q45 24 45 60q0 55 -69 55q-68 0 -68 -51z" />
    <glyph glyph-name="seveneighths" unicode="&#x215e;" horiz-adv-x="877" 
d="M416 749v-61l-167 -332h-85l174 327h-221l3 66h296zM641 750h70l-504 -750h-70zM498 112q0 62 67 94v3q-51 25 -51 87q0 103 137 103q135 0 135 -103q0 -57 -53 -86v-2q69 -28 69 -96q0 -117 -151 -117q-153 0 -153 117zM730 107q0 8 -1.5 14.5t-6 11.5t-8 9.5t-11.5 8.5
t-13 7t-15 6.5l-16 5.5t-18 5.5t-17 5.5q-55 -27 -55 -70q0 -31 19 -45.5t64 -14.5q78 0 78 56zM583 293q0 -19 15 -32t30 -18t47 -14q45 24 45 60q0 55 -69 55q-68 0 -68 -51z" />
    <glyph glyph-name="uni215F" unicode="&#x215f;" horiz-adv-x="559" 
d="M206 751v-395h-73v226l3 79l-3 1l-83 -52l-6 60l117 81h45zM649 750h70l-504 -750h-70z" />
    <glyph glyph-name="uni2189" unicode="&#x2189;" horiz-adv-x="925" 
d="M337 552q0 -107 -36 -154.5t-117 -47.5t-117 47.5t-36 154.5q0 110 36 156.5t118 46.5q81 0 116.5 -47t35.5 -156zM265 553q0 83 -18.5 112.5t-61.5 29.5q-45 0 -64 -29.5t-19 -112.5q0 -84 19 -113.5t64 -29.5q43 0 61.5 30t18.5 113zM662 750h70l-504 -750h-70z
M901 118q0 -123 -156 -123q-74 0 -129 32l16 56q52 -29 113 -29q86 0 86 67q0 33 -27 47t-96 14v50q64 0 89.5 14.5t25.5 43.5q0 50 -76 50q-64 0 -112 -36l-18 53q54 42 132 42q67 0 104.5 -27t37.5 -77q0 -63 -66 -86v-2q76 -19 76 -89z" />
    <glyph glyph-name="partialdiff" unicode="&#x2202;" horiz-adv-x="632" 
d="M326 560q101 0 162 -61l2 2q-28 173 -194 173q-110 0 -188 -64l-25 69q95 79 228 79q119 0 195.5 -84.5t76.5 -259.5q0 -187 -83.5 -307t-229.5 -120q-111 0 -166 62t-55 178q0 155 73.5 244t203.5 89zM482 371q0 45 -38 79t-104 34q-92 0 -143 -68t-51 -196
q0 -155 138 -155q93 0 145.5 89t52.5 217z" />
    <glyph glyph-name="Delta" unicode="&#x2206;" horiz-adv-x="755" 
d="M411 754l299 -754h-667l299 754h69zM376 636l-28 -77l-183 -473h421l-180 473l-27 77h-3z" />
    <glyph glyph-name="product" unicode="&#x220f;" horiz-adv-x="745" 
d="M244 -152h-90v826l-89 7l-2 69h622l-2 -68l-89 -7v-827h-89v820h-261v-820z" />
    <glyph glyph-name="summation" unicode="&#x2211;" horiz-adv-x="703" 
d="M500 297l-238 -304l-49 -59v-3h441l-2 -83h-559v57l306 404l-306 380v61h542l2 -84h-417l-1 -2l51 -60l230 -285v-22z" />
    <glyph glyph-name="minus" unicode="&#x2212;" horiz-adv-x="597" 
d="M518 294h-439v90h439v-90z" />
    <glyph glyph-name="uni2219" unicode="&#x2219;" horiz-adv-x="597" 
d="M164 322q0 137 135 137q134 0 134 -137q0 -138 -134 -138q-135 0 -135 138z" />
    <glyph glyph-name="radical" unicode="&#x221a;" horiz-adv-x="585" 
d="M8 406v89h152l103 -316l24 -77h3l19 78l171 614h99l-232 -794h-113l-141 406h-85z" />
    <glyph glyph-name="infinity" unicode="&#x221e;" horiz-adv-x="742" 
d="M531 167q-100 0 -163 90q-56 -90 -156 -90q-73 0 -119 48.5t-46 133.5q0 82 43 132.5t120 50.5q101 0 163 -91q56 91 157 91q72 0 118 -49t46 -135q0 -81 -43 -131t-120 -50zM528 450q-24 0 -43 -9t-34.5 -30.5t-24 -37t-23.5 -48.5q49 -81 124 -81q41 0 64.5 29t23.5 74
q0 48 -24.5 75.5t-62.5 27.5zM214 249q19 0 36 7.5t27.5 16.5t23 29.5t18.5 32t18 38.5q-24 40 -52.5 60.5t-69.5 20.5q-42 0 -65.5 -29t-23.5 -74q0 -48 25 -75t63 -27z" />
    <glyph glyph-name="integral" unicode="&#x222b;" horiz-adv-x="318" 
d="M208 608l-1 -571q0 -100 -48.5 -147.5t-151.5 -47.5l-2 65q55 1 80.5 32t25.5 96v574q0 188 199 191l2 -67q-104 0 -104 -125z" />
    <glyph glyph-name="approxequal" unicode="&#x2248;" horiz-adv-x="649" 
d="M434 360q-41 0 -114 26.5t-106 26.5q-57 0 -111 -34v79q54 32 111 32q39 0 112.5 -26.5t107.5 -26.5q56 0 113 34v-78q-53 -33 -113 -33zM434 181q-41 0 -114 26.5t-106 26.5q-57 0 -111 -34v78q54 34 111 34q39 0 112.5 -27t107.5 -27q56 0 113 34v-78q-53 -33 -113 -33
z" />
    <glyph glyph-name="notequal" unicode="&#x2260;" horiz-adv-x="649" 
d="M413 588l62 -32l-46 -91h118v-78h-158l-53 -105h211v-78h-250l-64 -126l-63 31l48 95h-115v78h154l54 105h-208v78h247z" />
    <glyph glyph-name="lessequal" unicode="&#x2264;" horiz-adv-x="649" 
d="M540 524l-297 -104l-76 -25v-3l77 -24l296 -99v-93l-440 171v94l440 178v-95zM541 50h-437v79h437v-79z" />
    <glyph glyph-name="greaterequal" unicode="&#x2265;" horiz-adv-x="649" 
d="M100 176v93l296 99l78 24v3l-77 25l-296 104v95l440 -178v-94zM536 50h-436v79h436v-79z" />
    <glyph glyph-name="dotmath" unicode="&#x22c5;" horiz-adv-x="597" 
d="M360 345q0 -62 -62 -62q-33 0 -47.5 14.5t-14.5 47.5q0 61 62 61t62 -61z" />
    <glyph glyph-name="lozenge" unicode="&#x25ca;" horiz-adv-x="613" 
d="M29 330l277 324l278 -324l-278 -324zM132 330l174 -202l175 202l-175 204z" />
    <glyph glyph-name="fi" unicode="&#xfb01;" horiz-adv-x="697" 
d="M216 523v-523h-94v523h-89v73h88v27q0 79 48.5 126t147.5 47q46 0 80 -9l-3 -66q-28 7 -58 7q-120 0 -120 -106v-26h372v-596h-96v523h-276zM603 749q0 -52 -62 -52t-62 52q0 51 62 51t62 -51z" />
    <glyph glyph-name="fl" unicode="&#xfb02;" horiz-adv-x="667" 
d="M564 0h-94v725q-68 8 -102 8q-82 0 -117 -28t-35 -84v-25h125v-73h-125v-523h-95v523h-88v73h88v28q0 176 248 176q43 0 106 -6.5t89 -7.5v-786z" />
    <glyph glyph-name="dollar.subs" horiz-adv-x="318" 
d="M164 314h56l-5 -78q42 -5 78 -17l-10 -58q-53 17 -95 17q-71 0 -71 -44q0 -22 29.5 -35.5t65 -20.5t65 -33t29.5 -70q0 -46 -27.5 -75.5t-79.5 -36.5l-3 -75h-56l4 74q-55 4 -97 27l10 60q49 -30 108 -30q74 0 74 51q0 19 -19.5 31t-47.5 20t-55.5 18t-47 33t-19.5 58
q0 42 27 71t82 35z" />
    <glyph glyph-name="comma.subs" horiz-adv-x="158" 
d="M78 -77q43 0 43 -46q0 -19 -15 -52.5t-33 -57.5l-25 6l16 69q-29 12 -29 38q0 43 43 43z" />
    <glyph glyph-name="period.subs" horiz-adv-x="158" 
d="M123 -116q0 -41 -44 -41t-44 41t44 41t44 -41z" />
    <glyph glyph-name="cent.subs" horiz-adv-x="318" 
d="M291 219l-4 -57q-34 13 -75 13q-58 0 -81.5 -27t-23.5 -93q0 -68 26 -98t78 -30q45 0 79 18l5 -53q-33 -21 -79 -25l-3 -79h-57l4 81q-128 18 -128 186q0 169 143 182l5 77h57l-6 -78q28 -4 60 -17z" />
    <glyph glyph-name="dollar.sups" horiz-adv-x="318" 
d="M164 959h56l-5 -78q42 -5 78 -17l-10 -58q-48 17 -95 17q-71 0 -71 -44q0 -22 29.5 -35.5t65 -20.5t65 -33t29.5 -70q0 -47 -27.5 -76t-79.5 -36l-3 -75h-56l4 74q-55 3 -97 27l10 60q49 -30 108 -30q74 0 74 51q0 19 -19.5 31t-47.5 20t-55.5 18t-47 33t-19.5 58
q0 42 27 71t82 35z" />
    <glyph glyph-name="comma.sups" horiz-adv-x="158" 
d="M78 568q43 0 43 -46q0 -19 -15 -52.5t-33 -57.5l-25 6l16 70q-12 4 -20.5 14t-8.5 23q0 43 43 43z" />
    <glyph glyph-name="period.sups" horiz-adv-x="158" 
d="M123 529q0 -41 -44 -41t-44 41t44 41t44 -41z" />
    <glyph glyph-name="cent.sups" horiz-adv-x="318" 
d="M291 864l-4 -57q-34 13 -75 13q-58 0 -81.5 -27t-23.5 -93q0 -68 26 -98t78 -30q45 0 79 18l5 -53q-30 -21 -79 -25l-3 -79h-57l4 80q-128 20 -128 187q0 169 143 182l5 77h57l-6 -78q28 -4 60 -17z" />
    <glyph glyph-name="dollar.numr" horiz-adv-x="318" 
d="M164 817h56l-5 -78q42 -5 78 -17l-10 -58q-53 17 -95 17q-71 0 -71 -44q0 -22 29.5 -35.5t65 -20.5t65 -33t29.5 -70q0 -47 -27.5 -76t-79.5 -36l-3 -75h-56l4 74q-55 3 -97 27l10 60q49 -30 108 -30q74 0 74 51q0 19 -19.5 31t-47.5 20t-55.5 18t-47 33t-19.5 58
q0 42 27 71t82 35z" />
    <glyph glyph-name="parenleft.numr" horiz-adv-x="210" 
d="M148 781l50 -5q-71 -103 -71 -239q0 -134 71 -238l-50 -5q-87 93 -87 243q0 146 87 244z" />
    <glyph glyph-name="parenright.numr" horiz-adv-x="210" 
d="M11 776l51 5q86 -95 86 -244q0 -151 -86 -243l-51 5q71 107 71 238q0 133 -71 239z" />
    <glyph glyph-name="plus.numr" horiz-adv-x="370" 
d="M326 525h-114v-112h-57v112h-111v61h111v114h57v-114h114v-61z" />
    <glyph glyph-name="comma.numr" horiz-adv-x="158" 
d="M78 426q43 0 43 -46q0 -19 -15.5 -53t-32.5 -57l-25 5l16 70q-11 4 -20 14.5t-9 23.5q0 43 43 43z" />
    <glyph glyph-name="period.numr" horiz-adv-x="158" 
d="M123 386q0 -40 -44 -40t-44 40q0 42 44 42t44 -42z" />
    <glyph glyph-name="zero.numr" horiz-adv-x="368" 
d="M337 552q0 -107 -36 -154.5t-117 -47.5t-117 47.5t-36 154.5q0 110 36 156.5t118 46.5q81 0 116.5 -47t35.5 -156zM265 553q0 83 -18.5 112.5t-61.5 29.5q-45 0 -64 -29.5t-19 -112.5q0 -84 19 -113.5t64 -29.5q43 0 61.5 30t18.5 113z" />
    <glyph glyph-name="one.numr" horiz-adv-x="271" 
d="M206 751v-395h-73v226l3 79l-3 1l-83 -52l-6 60l117 81h45z" />
    <glyph glyph-name="two.numr" horiz-adv-x="353" 
d="M317 641q0 -55 -43.5 -103t-136.5 -118v-3h182l-1 -61h-274v47l44 39l42.5 38l35.5 33t32 33.5t22.5 30t16.5 30.5t5 28q0 57 -77 57q-51 0 -106 -37l-18 58q59 42 137 42q68 0 103.5 -30.5t35.5 -83.5z" />
    <glyph glyph-name="three.numr" horiz-adv-x="353" 
d="M319 474q0 -123 -155 -123q-76 0 -130 32l17 56q51 -30 113 -30q43 0 64 18.5t21 49.5q0 32 -26.5 46t-95.5 14v51q64 0 89.5 14t25.5 44q0 49 -76 49q-64 0 -112 -36l-18 54q54 42 132 42q67 0 104.5 -27t37.5 -77q0 -63 -66 -86v-2q75 -20 75 -89z" />
    <glyph glyph-name="four.numr" horiz-adv-x="368" 
d="M349 437h-45v-81h-68v81h-202l-5 41l187 272h88v-255h47zM238 495l2 110l3 81l-2 1l-83 -126l-46 -63l1 -3h125z" />
    <glyph glyph-name="five.numr" horiz-adv-x="368" 
d="M331 491q0 -140 -149 -140q-76 0 -127 29l12 58q53 -28 110 -28q44 0 63.5 18.5t19.5 57.5q0 62 -80 62q-50 0 -93 -16l-29 24l18 194h234l2 -62h-180l-7 -91q35 9 71 9q135 0 135 -115z" />
    <glyph glyph-name="six.numr" horiz-adv-x="368" 
d="M335 491q0 -140 -146 -140q-76 0 -114.5 45t-38.5 145q0 214 179 214q55 0 97 -17l-5 -58q-35 13 -83 13q-55 0 -83 -26.5t-34 -83.5l2 -2q40 28 94 28q132 0 132 -118zM263 492q0 33 -17 48t-55 15q-55 0 -81 -32q1 -62 19.5 -87.5t60.5 -25.5q73 0 73 82z" />
    <glyph glyph-name="seven.numr" horiz-adv-x="368" 
d="M335 749v-61l-167 -332h-85l174 327h-221l3 66h296z" />
    <glyph glyph-name="eight.numr" horiz-adv-x="368" 
d="M32 467q0 62 66 94l1 2q-51 28 -51 88q0 104 137 104q135 0 135 -104q0 -55 -53 -86v-2q69 -27 69 -95q0 -118 -151 -118q-153 0 -153 117zM264 463q0 8 -1.5 14.5t-6 11.5t-8 9.5t-11.5 8.5t-13 7t-15 6.5l-16 5.5t-18 5.5t-17 5.5q-55 -28 -55 -70q0 -32 19 -46t64 -14
q78 0 78 56zM117 648q0 -19 15 -32t29.5 -18t47.5 -14q45 24 45 61q0 55 -69 55q-68 0 -68 -52z" />
    <glyph glyph-name="nine.numr" horiz-adv-x="368" 
d="M330 570q0 -114 -41.5 -166.5t-127.5 -52.5q-54 0 -101 18l10 58q41 -17 87 -17q52 0 79 31t31 100l-2 1q-37 -32 -92 -32q-138 0 -138 119q0 58 36 92t106 34q153 0 153 -185zM259 594q0 56 -20 79.5t-63 23.5q-35 0 -54 -17t-19 -48q0 -69 78 -69q55 0 78 31z" />
    <glyph glyph-name="equal.numr" horiz-adv-x="370" 
d="M322 590h-274v52h274v-52zM322 473h-274v53h274v-53z" />
    <glyph glyph-name="cent.numr" horiz-adv-x="318" 
d="M292 722l-5 -58q-33 14 -75 14q-58 0 -81.5 -27.5t-23.5 -92.5q0 -68 26 -98.5t78 -30.5q43 0 79 19l6 -53q-30 -21 -80 -25l-3 -79h-57l5 80q-129 18 -129 187q0 170 143 181l5 78h57l-6 -79q31 -4 61 -16z" />
    <glyph glyph-name="minus.numr" horiz-adv-x="370" 
d="M322 529h-274v60h274v-60z" />
    <glyph glyph-name="dollar.dnom" horiz-adv-x="318" 
d="M164 461h56l-5 -77q44 -5 78 -18l-10 -57q-53 17 -95 17q-71 0 -71 -45q0 -22 29.5 -35.5t65 -20.5t65 -32.5t29.5 -69.5q0 -47 -28 -76.5t-79 -36.5l-3 -74h-56l4 73q-56 5 -97 28l10 60q49 -30 108 -30q74 0 74 50q0 23 -29.5 37.5t-65 22t-65 32.5t-29.5 68t27 72
t82 35z" />
    <glyph glyph-name="parenleft.dnom" horiz-adv-x="210" 
d="M148 425l50 -4q-71 -103 -71 -239q0 -133 71 -239l-50 -4q-87 93 -87 243q0 145 87 243z" />
    <glyph glyph-name="parenright.dnom" horiz-adv-x="210" 
d="M11 421l51 4q86 -95 86 -243q0 -151 -86 -243l-51 4q71 108 71 239q0 133 -71 239z" />
    <glyph glyph-name="plus.dnom" horiz-adv-x="370" 
d="M326 170h-114v-113h-57v113h-111v61h111v113h57v-113h114v-61z" />
    <glyph glyph-name="comma.dnom" horiz-adv-x="158" 
d="M78 71q43 0 43 -47q0 -19 -15 -53t-33 -57l-25 6l16 70q-12 4 -20.5 14t-8.5 23q0 44 43 44z" />
    <glyph glyph-name="period.dnom" horiz-adv-x="158" 
d="M123 31q0 -40 -44 -40q-23 0 -33.5 9t-10.5 31q0 42 44 42t44 -42z" />
    <glyph glyph-name="zero.dnom" horiz-adv-x="368" 
d="M337 197q0 -107 -36 -154.5t-117 -47.5t-117 47.5t-36 154.5q0 110 36 156.5t118 46.5q81 0 116.5 -47t35.5 -156zM265 197q0 83 -18.5 112.5t-61.5 29.5q-45 0 -64 -29.5t-19 -112.5t19 -112.5t64 -29.5q43 0 61.5 29.5t18.5 112.5z" />
    <glyph glyph-name="one.dnom" horiz-adv-x="271" 
d="M206 396v-396h-73v226l3 79l-3 1l-83 -52l-6 60l117 82h45z" />
    <glyph glyph-name="two.dnom" horiz-adv-x="353" 
d="M317 285q0 -55 -43.5 -103t-137.5 -118v-3h183l-1 -61h-274v48l44 39l42.5 38l35.5 33t32 33.5t22.5 29.5t16.5 30t5 28q0 58 -77 58q-51 0 -106 -37l-18 57q59 42 137 42q68 0 103.5 -30.5t35.5 -83.5z" />
    <glyph glyph-name="three.dnom" horiz-adv-x="353" 
d="M329 118q0 -123 -156 -123q-74 0 -129 32l16 56q52 -29 113 -29q86 0 86 67q0 33 -27 47t-96 14v50q64 0 89.5 14.5t25.5 43.5q0 50 -76 50q-64 0 -112 -36l-18 53q54 42 132 42q67 0 104.5 -27t37.5 -77q0 -63 -66 -86v-2q76 -19 76 -89z" />
    <glyph glyph-name="four.dnom" horiz-adv-x="368" 
d="M349 81h-45v-81h-68v81h-202l-5 42l187 271h88v-254h47zM238 140l2 110l3 81l-2 1l-83 -126l-46 -63l1 -3h125z" />
    <glyph glyph-name="five.dnom" horiz-adv-x="368" 
d="M331 135q0 -140 -149 -140q-74 0 -127 30l12 57q56 -28 110 -28q44 0 63.5 18.5t19.5 57.5q0 62 -80 62q-55 0 -93 -16l-29 25l18 193h234l2 -62h-180l-7 -91q41 9 71 9q135 0 135 -115z" />
    <glyph glyph-name="six.dnom" horiz-adv-x="368" 
d="M335 136q0 -141 -146 -141q-76 0 -114.5 45.5t-38.5 145.5q0 213 179 213q53 0 97 -16l-5 -59q-38 14 -83 14q-55 0 -83 -27t-34 -83l2 -2q39 27 94 27q132 0 132 -117zM263 136q0 33 -17 48t-55 15q-55 0 -81 -32q1 -61 19.5 -86.5t60.5 -25.5q73 0 73 81z" />
    <glyph glyph-name="seven.dnom" horiz-adv-x="368" 
d="M335 394v-61l-167 -333h-85l174 328h-221l3 66h296z" />
    <glyph glyph-name="eight.dnom" horiz-adv-x="368" 
d="M32 112q0 62 67 94v3q-51 25 -51 87q0 103 137 103q135 0 135 -103q0 -57 -53 -86v-2q69 -28 69 -96q0 -117 -151 -117q-153 0 -153 117zM264 107q0 8 -1.5 14.5t-6 11.5t-8 9.5t-11.5 8.5t-13 7t-15 6.5l-16 5.5t-18 5.5t-17 5.5q-55 -27 -55 -70q0 -31 19 -45.5
t64 -14.5q78 0 78 56zM117 293q0 -19 15 -32t30 -18t47 -14q45 24 45 60q0 55 -69 55q-68 0 -68 -51z" />
    <glyph glyph-name="nine.dnom" horiz-adv-x="368" 
d="M330 215q0 -114 -41.5 -167t-127.5 -53q-55 0 -101 19l10 57q45 -17 87 -17q52 0 79 31.5t31 100.5l-2 1q-36 -33 -92 -33q-71 0 -104.5 32t-33.5 87q0 58 36 92.5t106 34.5q153 0 153 -185zM259 238q0 57 -20 80t-63 23q-35 0 -54 -17t-19 -48q0 -69 78 -69q55 0 78 31z
" />
    <glyph glyph-name="equal.dnom" horiz-adv-x="370" 
d="M322 234h-274v53h274v-53zM322 117h-274v53h274v-53z" />
    <glyph glyph-name="cent.dnom" horiz-adv-x="318" 
d="M292 367l-5 -58q-37 14 -75 14q-57 0 -81 -27.5t-24 -93.5q0 -68 26 -98t78 -30q45 0 79 18l6 -53q-30 -21 -80 -25l-3 -79h-57l5 81q-129 18 -129 186q0 171 143 182l5 77h57l-6 -78q31 -4 61 -16z" />
    <glyph glyph-name="minus.dnom" horiz-adv-x="370" 
d="M322 174h-274v59h274v-59z" />
    <glyph glyph-name="space.frac" horiz-adv-x="60" 
 />
    <glyph glyph-name="numbersign.osf" horiz-adv-x="597" 
d="M45 257h101l23 141h-124v70h134l26 181h75l-26 -181h131l26 181h73l-26 -181h94v-70h-104l-23 -141h127v-71h-136l-27 -186h-73l27 186h-132l-27 -186h-74l27 186h-92v71zM244 398l-23 -141h132l22 141h-131z" />
    <glyph glyph-name="dollar.osf" horiz-adv-x="491" 
d="M448 175q0 -78 -40.5 -126t-124.5 -58l-7 -135h-75l7 133q-96 6 -153 49l12 82q69 -52 170 -52q62 0 92.5 26.5t30.5 71.5q0 37 -31.5 60t-76 37t-89.5 31t-76.5 53t-31.5 92q0 72 46 115.5t134 50.5l8 126h76l-9 -128q59 -6 114 -31l-8 -80q-76 32 -155 32
q-53 0 -84.5 -21.5t-31.5 -58.5q0 -35 31 -56t75.5 -34.5t89.5 -30t76 -53.5t31 -95z" />
    <glyph glyph-name="zero.osf" horiz-adv-x="626" 
d="M570 313q0 -169 -61 -246t-196 -77q-136 0 -197 77t-61 246q0 174 60.5 250t198.5 76q135 0 195.5 -76.5t60.5 -249.5zM475 314q0 135 -37.5 186.5t-123.5 51.5q-88 0 -126.5 -51.5t-38.5 -186.5q0 -137 38.5 -188t126.5 -51q86 0 123.5 51.5t37.5 187.5z" />
    <glyph glyph-name="one.osf" horiz-adv-x="467" 
d="M343 632v-632h-97v428l2 80l-2 2l-147 -94l-10 83l197 133h57z" />
    <glyph glyph-name="two.osf" horiz-adv-x="588" 
d="M521 457q0 -48 -21 -92t-70.5 -92.5t-97 -86t-133.5 -99.5v-3h327l-3 -84h-456v65l89.5 73.5l86.5 71t69.5 62t60.5 63t35 56t15 58.5q0 46 -36.5 74.5t-112.5 28.5q-95 0 -183 -64l-26 78q97 73 224 73q112 0 172 -49t60 -133z" />
    <glyph glyph-name="three.osf" horiz-adv-x="578" 
d="M519 163q0 -127 -104 -198.5t-291 -75.5l-8 80q158 3 235 55.5t77 136.5q0 115 -155 116q-26 0 -68 -6l-4 68q116 13 160 41.5t44 79.5q0 94 -142 94q-105 0 -187 -60l-23 77q37 31 95 49.5t121 18.5q109 0 166 -45.5t57 -120.5q0 -106 -98 -148v-2q125 -33 125 -160z
" />
    <glyph glyph-name="four.osf" horiz-adv-x="614" 
d="M583 68h-85v-172l-88 -6v178h-365l-8 64l355 506l106 -7v-483h89zM413 148l6 324l3 81l-2 1l-45 -68l-186 -272l-46 -63l1 -3h269z" />
    <glyph glyph-name="five.osf" horiz-adv-x="567" 
d="M518 177q0 -131 -102.5 -208t-296.5 -81l-8 84q154 4 233 56.5t79 138.5q0 118 -159 118q-91 0 -164 -38l-36 38l29 345h390l5 -92h-320l-16 -193q69 24 140 24q110 0 168 -50t58 -142z" />
    <glyph glyph-name="six.osf" horiz-adv-x="592" 
d="M543 252q0 -261 -242 -261q-123 0 -187.5 79.5t-64.5 255.5q0 200 111 307t285 112l14 -84q-142 -4 -223 -71.5t-94 -187.5l2 -2q78 63 177 63q113 0 167.5 -52t54.5 -159zM450 252q0 68 -35.5 101t-110.5 33q-42 0 -87 -19t-71 -50q2 -131 39.5 -184.5t116.5 -53.5
q148 0 148 173z" />
    <glyph glyph-name="seven.osf" horiz-adv-x="581" 
d="M531 629v-82l-301 -647h-107l304 635h-380l6 94h478z" />
    <glyph glyph-name="eight.osf" horiz-adv-x="601" 
d="M49 175q0 50 31.5 91.5t86.5 65.5v3q-91 42 -91 140q0 77 55.5 120.5t170.5 43.5q223 0 223 -165q0 -95 -94 -143v-2q121 -43 121 -153q0 -186 -250 -186q-253 0 -253 185zM457 171q0 18 -5 32t-18.5 25.5t-24 19t-34.5 16l-36 12.5t-42.5 12l-41.5 11
q-114 -45 -114 -122q0 -56 38 -82.5t124 -26.5q154 0 154 103zM166 470q0 -20 9.5 -36.5t22 -26.5t38 -19.5t42 -14.5t50.5 -13l16 -4q96 40 96 109q0 49 -33 73t-107 24q-134 0 -134 -92z" />
    <glyph glyph-name="nine.osf" horiz-adv-x="582" 
d="M533 332q0 -111 -29.5 -196t-83 -137.5t-123.5 -79.5t-156 -29l-9 83q128 5 209 76t95 202l-2 1q-61 -61 -166 -61q-104 0 -161.5 55.5t-57.5 164.5q0 107 60 167.5t175 60.5q249 0 249 -307zM438 350q-1 106 -38 153t-117 47q-139 0 -139 -137q0 -138 144 -138
q110 0 150 75z" />
    <glyph glyph-name="cent.osf" horiz-adv-x="500" 
d="M451 576l-6 -85q-59 27 -121 27q-96 0 -136.5 -50t-40.5 -166q0 -123 43.5 -176.5t131.5 -53.5q71 0 127 34l7 -78q-48 -34 -129 -40l-6 -132h-76l7 135q-203 26 -203 311q0 143 54 218t169 84l9 127h75l-9 -129q55 -6 104 -26z" />
    <glyph glyph-name="sterling.osf" horiz-adv-x="549" 
d="M56 289l-4 71h45q-20 64 -20 108q0 84 57 136.5t186 52.5q92 0 168 -32l-13 -79q-67 29 -147 29q-156 0 -156 -114q0 -37 17 -101h237v-71h-220q7 -40 7 -76q0 -96 -63 -137l1 -2q73 14 188 14q92 0 183 -11l-6 -82q-134 12 -221 12q-121 0 -253 -11l-3 79q41 13 63 49.5
t22 83.5q0 43 -8 81h-60z" />
    <glyph glyph-name="currency.osf" horiz-adv-x="597" 
d="M124 329q0 53 28 97l-63 64l49 54l65 -68q45 29 95 29t94 -29l67 68l49 -53l-65 -67q28 -44 28 -95q0 -50 -25 -91l62 -64l-49 -53l-62 63q-43 -31 -99 -31t-99 31l-62 -64l-48 54l60 63q-25 41 -25 92zM189 330q0 -45 31.5 -75.5t76.5 -30.5q46 0 77.5 30.5t31.5 75.5
q0 44 -31.5 74.5t-77.5 30.5q-45 0 -76.5 -30.5t-31.5 -74.5z" />
    <glyph glyph-name="yen.osf" horiz-adv-x="597" 
d="M124 293h101l-198 356h104l133 -270l34 -73h3l33 73l131 270h102l-193 -356h99v-53h-124v-51h124v-52h-124v-137h-99v137h-126v52h126v51h-126v53z" />
    <glyph glyph-name="franc.osf" horiz-adv-x="597" 
d="M35 160h81v489h435l2 -86h-344v-191h266v-82h-266v-130h85v-65h-85v-95h-93v95h-81v65z" />
    <glyph glyph-name="lira.osf" horiz-adv-x="597" 
d="M67 347l-4 51h32q-9 32 -9 67q0 85 59.5 139t192.5 54q98 0 178 -35l-13 -79q-67 30 -157 30q-86 0 -126 -31.5t-40 -84.5q0 -27 7 -60h274v-51h-260q10 -34 14 -52h246v-50h-239q2 -22 2 -33q0 -93 -65 -136l1 -2q83 15 198 15q89 0 192 -12l-6 -82q-141 12 -231 12
q-141 0 -264 -11l-3 80q43 13 65.5 49t22.5 82q0 14 -2 38h-63l-2 50h57q-4 18 -14 52h-43z" />
    <glyph glyph-name="peseta.osf" horiz-adv-x="597" 
d="M269 460q0 -111 -26.5 -151t-97.5 -40h-48v-269h-57v649h104q70 0 97.5 -39t27.5 -150zM409 348h-47v-264q0 -37 26 -37q5 0 15 5l2 -51q-10 -8 -31 -8q-63 0 -63 90v265h-23v51h25l9 92l39 7v-99h48v-51zM567 111q0 -119 -82 -119q-34 0 -54 17l2 55q20 -16 46 -16
q40 0 40 63q0 23 -9.5 39t-22.5 27t-26.5 24t-23 36.5t-9.5 56.5q0 48 21.5 79.5t59.5 31.5q28 0 49 -16l-3 -56q-21 13 -42 13q-36 0 -36 -51q0 -22 9.5 -37t22.5 -25.5t26 -23t22.5 -37.5t9.5 -61zM212 459q0 76 -14 99.5t-53 23.5h-48v-250h48q38 0 52.5 24.5t14.5 102.5
z" />
    <glyph glyph-name="Euro.osf" horiz-adv-x="597" 
d="M559 622l-25 -78q-60 29 -138 29q-94 0 -143.5 -37.5t-63.5 -117.5h307l-19 -55h-294q-1 -11 -1 -33q0 -25 1 -36h272l-19 -52h-247q15 -89 66.5 -129.5t139.5 -40.5t153 43l6 -79q-73 -49 -183 -49q-254 0 -290 255h-48v52h43v69h-43v55h49q36 242 292 242
q107 0 185 -38z" />
    <glyph glyph-name="numbersign.lf" horiz-adv-x="642" 
d="M55 293h119l28 168h-146v76h156l30 213h76l-31 -213h114l31 213h74l-31 -213h112v-76h-123l-26 -168h148v-76h-158l-32 -217h-73l31 217h-115l-31 -217h-75l31 217h-109v76zM276 461l-27 -168h115l27 168h-115z" />
    <glyph glyph-name="dollar.lf" horiz-adv-x="600" 
d="M283 -83l-55 5l6 67q-110 10 -177 50l12 94q81 -48 174 -58l28 270q-50 18 -80 32t-65.5 39t-52.5 60.5t-17 81.5q0 97 66.5 149.5t190.5 54.5l7 65l60 -4l-7 -64q81 -7 136 -33l-7 -89q-68 25 -139 31l-25 -237q46 -16 77.5 -31.5t64.5 -41t50 -63.5t17 -88
q0 -112 -62.5 -165.5t-194.5 -55.5zM468 195q-1 47 -37.5 76t-104.5 54l-27 -253q169 1 169 123zM144 563q0 -42 35 -66.5t102 -46.5l23 221q-80 -1 -120 -30t-40 -78z" />
    <glyph glyph-name="zero.lf" horiz-adv-x="634" 
d="M584 374q0 -206 -63 -295.5t-204 -89.5q-143 0 -205.5 89t-62.5 296q0 211 62 298t206 87q143 0 205 -87t62 -298zM486 375q0 118 -19 182.5t-54 88t-96 23.5q-62 0 -97.5 -23.5t-54.5 -88.5t-19 -182q0 -119 19.5 -184.5t54.5 -88.5t97 -23t97 23.5t53.5 88.5t18.5 184z
" />
    <glyph glyph-name="one.lf" horiz-adv-x="474" 
d="M349 752v-752h-102v538l2 81l-2 1l-156 -106l-11 88l210 150h59z" />
    <glyph glyph-name="two.lf" horiz-adv-x="630" 
d="M556 552q0 -45 -18 -91.5t-45 -86t-76 -90.5t-92.5 -90l-114.5 -99v-3h351l-3 -92h-483v69l80 75.5l80 75.5l68.5 67.5t63 69t45 62t33 64.5t9.5 59q0 56 -39.5 90t-120.5 34q-101 0 -193 -73l-26 83q99 82 236 82q118 0 181.5 -54.5t63.5 -151.5z" />
    <glyph glyph-name="three.lf" horiz-adv-x="630" 
d="M570 224q0 -109 -68.5 -171t-206.5 -62q-127 0 -225 60l21 82q91 -55 202 -55q89 0 134.5 40.5t45.5 109.5t-54.5 100t-184.5 31v75q119 0 171 31.5t52 94.5q0 54 -41 81.5t-117 27.5q-111 0 -199 -72l-26 80q95 81 230 81q116 0 180.5 -49.5t64.5 -141.5
q0 -123 -123 -166v-2q144 -38 144 -175z" />
    <glyph glyph-name="four.lf" horiz-adv-x="645" 
d="M595 163h-91v-163h-92v163h-346l-9 65l326 522h121v-500h95zM415 250l5 332l3 81l-2 1l-210 -346l-43 -65l1 -3h246z" />
    <glyph glyph-name="five.lf" horiz-adv-x="604" 
d="M554 256q0 -265 -262 -265q-127 0 -218 60l19 84q92 -57 191 -57q89 0 131 42t42 127q0 74 -40.5 107.5t-126.5 33.5q-98 0 -174 -38l-38 39l30 361h409l4 -92h-335l-17 -209q68 24 147 24q238 0 238 -217z" />
    <glyph glyph-name="six.lf" horiz-adv-x="618" 
d="M568 258q0 -133 -64.5 -200t-188.5 -67q-134 0 -200 83.5t-66 277.5q0 407 313 407q89 0 166 -30l-9 -88q-69 26 -145 26q-110 0 -166.5 -61t-63.5 -192l3 -2q82 66 188 66q119 0 176 -54.5t57 -165.5zM471 259q0 72 -37 106t-117 34q-44 0 -92 -20t-75 -52
q1 -136 39.5 -192.5t125.5 -56.5q156 0 156 181z" />
    <glyph glyph-name="seven.lf" horiz-adv-x="626" 
d="M575 750v-87l-312 -663h-113l328 654h-420l5 96h512z" />
    <glyph glyph-name="eight.lf" horiz-adv-x="624" 
d="M49 208q0 61 35.5 110t97.5 77v3q-104 51 -104 169q0 191 235 191q234 0 234 -191q0 -115 -109 -173v-2q64 -25 100 -67.5t36 -116.5q0 -217 -261 -217q-135 0 -199.5 54t-64.5 163zM478 201q0 19 -5.5 35t-12 27.5t-22 23.5t-25 18.5t-33 16t-33.5 13t-39 12.5t-38 12
q-126 -57 -126 -152q0 -69 40 -101.5t131 -32.5q163 0 163 128zM170 563q0 -26 11 -47t24.5 -33.5t43 -25.5t46.5 -18.5t56 -16.5q56 26 82 59t26 78q0 117 -147 117q-142 0 -142 -113z" />
    <glyph glyph-name="nine.lf" horiz-adv-x="618" 
d="M569 412q0 -222 -73.5 -321.5t-225.5 -99.5q-97 0 -175 35l15 84q72 -31 150 -31q107 0 158 65t57 214l-2 1q-71 -59 -183 -59q-121 0 -181 59t-60 164q0 112 63 174t188 62q129 0 199 -87.5t70 -259.5zM471 448q-3 224 -173 224q-154 0 -154 -145q0 -146 162 -146
q109 0 165 67z" />
    <glyph glyph-name="cent.lf" horiz-adv-x="649" 
d="M508 576l-6 -85q-59 27 -121 27q-96 0 -136.5 -50t-40.5 -166q0 -123 43.5 -176.5t131.5 -53.5q71 0 127 34l7 -78q-48 -34 -128 -40l-7 -132h-75l7 134q-204 27 -204 312q0 143 54 218t169 84l9 127h75l-9 -129q55 -6 104 -26z" />
    <glyph glyph-name="sterling.lf" horiz-adv-x="639" 
d="M76 335l-4 80h52q-25 81 -25 130q0 95 64.5 155t207.5 60q107 0 189 -37l-14 -90q-74 35 -165 35q-92 0 -135 -36t-43 -97q0 -42 21 -120h266v-80h-247q8 -43 8 -89q0 -112 -75 -161l1 -2q85 17 214 17q96 0 207 -12l-5 -94q-137 14 -248 14q-145 0 -285 -13l-5 90
q47 16 73 58.5t26 97.5q0 44 -9 94h-69z" />
    <glyph glyph-name="currency.lf" horiz-adv-x="581" 
d="M110 361q0 53 29 100l-65 68l50 55l69 -70q45 29 97 29q53 0 97 -30l70 71l51 -55l-69 -69q29 -47 29 -99t-25 -94l64 -66l-51 -55l-65 66q-45 -32 -101 -32q-57 0 -102 31l-64 -66l-51 56l63 64q-26 43 -26 96zM175 363q0 -46 33.5 -78.5t80.5 -32.5q48 0 81 32t33 79
q0 46 -33 78.5t-81 32.5q-47 0 -80.5 -32.5t-33.5 -78.5z" />
    <glyph glyph-name="yen.lf" horiz-adv-x="722" 
d="M172 341h109l-219 409h117l151 -337l32 -74h3l31 74l150 337h114l-215 -409h109v-59h-135v-51h136v-58h-136v-173h-111v173h-136v58h136v51h-136v59z" />
    <glyph glyph-name="franc.lf" horiz-adv-x="617" 
d="M20 181h85v569h460l3 -97h-361v-225h279v-91h-279v-156h91v-72h-91v-109h-102v109h-85v72z" />
    <glyph glyph-name="lira.lf" horiz-adv-x="662" 
d="M80 402l-4 58h36q-12 46 -12 85q0 95 64.5 155t207.5 60q107 0 189 -37l-14 -90q-73 35 -165 35t-135 -37.5t-43 -98.5q0 -38 9 -72h291v-58h-276q9 -35 14 -60h262v-58h-254q2 -24 2 -38q0 -112 -75 -161l1 -2q85 17 214 17q94 0 207 -12l-5 -94q-137 14 -248 14
q-145 0 -285 -13l-5 90q47 16 73 58.5t26 97.5q0 15 -2 43h-69l-3 58h63q-4 24 -16 60h-48z" />
    <glyph glyph-name="peseta.lf" horiz-adv-x="799" 
d="M377 529q0 -121 -40 -172.5t-133 -51.5h-61v-305h-74v750h135q92 0 132.5 -48.5t40.5 -172.5zM553 399h-59v-298q0 -44 33 -44q11 0 19 5l3 -62q-13 -9 -40 -9q-80 0 -80 109v299h-30v61h32l11 105l52 7v-112h59v-61zM761 128q0 -139 -105 -139q-45 0 -70 23l2 67
q26 -22 64 -22q50 0 50 69q0 27 -12.5 45.5t-30 31l-35.5 26.5t-30.5 41.5t-12.5 67.5q0 57 27 92.5t76 35.5q36 0 66 -20l-5 -66q-26 16 -57 16q-45 0 -45 -57q0 -24 12 -41t29.5 -28.5t35 -26t29.5 -43.5t12 -72zM300 528q0 83 -21 113t-75 30h-62v-290h62q53 0 74.5 29.5
t21.5 117.5z" />
    <glyph glyph-name="Euro.lf" horiz-adv-x="663" 
d="M486 344l-13 -57h-257q14 -112 69 -162t155 -50q87 0 167 45l8 -77q-78 -51 -196 -51q-140 0 -212.5 72t-88.5 223h-87l1 57h82v61h-82l-1 59h87q17 141 95 216.5t212 75.5q110 0 177 -36l-20 -81q-65 28 -139 28q-196 0 -226 -203h307l-14 -59h-299v-61h275z" />
    <glyph glyph-name="numbersign.tosf" horiz-adv-x="597" 
d="M45 257h101l23 141h-124v70h134l26 181h75l-26 -181h131l26 181h73l-26 -181h94v-70h-104l-23 -141h127v-71h-136l-27 -186h-73l27 186h-132l-27 -186h-74l27 186h-92v71zM244 398l-23 -141h132l22 141h-131z" />
    <glyph glyph-name="dollar.tosf" horiz-adv-x="597" 
d="M520 177q0 -79 -47.5 -129t-144.5 -59l-8 -136h-81l9 136q-102 8 -170 53l14 86q38 -27 92.5 -42t104.5 -15q68 0 100.5 26.5t32.5 69.5q0 36 -35.5 58t-86 35t-100.5 29t-85.5 53t-35.5 94q0 72 50.5 117t146.5 52l9 131h81l-10 -132q73 -7 140 -35l-10 -85
q-85 35 -175 35q-62 0 -96.5 -21t-34.5 -57q0 -29 25 -48t63 -28t82 -23t82 -30t63 -50.5t25 -84.5z" />
    <glyph glyph-name="zero.tosf" horiz-adv-x="597" 
d="M556 313q0 -169 -61 -246t-197 -77t-196.5 77t-60.5 246q0 174 60.5 250t197.5 76q136 0 196.5 -76.5t60.5 -249.5zM461 314q0 135 -38 186.5t-124 51.5q-87 0 -125.5 -51.5t-38.5 -186.5q0 -137 38 -188t126 -51q86 0 124 51.5t38 187.5z" />
    <glyph glyph-name="one.tosf" horiz-adv-x="597" 
d="M111 0v63h174v451l-198 -114l-10 83l248 149h57v-569h159v-63h-430z" />
    <glyph glyph-name="two.tosf" horiz-adv-x="597" 
d="M526 457q0 -48 -21 -92t-70.5 -92.5t-97 -86t-133.5 -99.5v-3h327l-3 -84h-456v65l89.5 73.5l86.5 71t69.5 62t60.5 63t35 56t15 58.5q0 46 -36.5 74.5t-111.5 28.5q-97 0 -183 -64l-27 78q97 73 224 73q112 0 172 -49t60 -133z" />
    <glyph glyph-name="three.tosf" horiz-adv-x="597" 
d="M531 163q0 -127 -103.5 -198.5t-291.5 -75.5l-8 80q158 3 235.5 56t77.5 136q0 115 -155 116q-28 0 -68 -6l-5 68q117 13 161 41.5t44 79.5q0 94 -142 94q-105 0 -187 -60l-23 77q37 31 95 49.5t121 18.5q109 0 165.5 -45.5t56.5 -120.5q0 -106 -97 -148v-2
q124 -33 124 -160z" />
    <glyph glyph-name="four.tosf" horiz-adv-x="597" 
d="M574 68h-86v-172l-87 -6v178h-366l-7 64l354 506l106 -7v-483h89zM403 148l6 323l3 81l-2 1l-45 -68l-186 -271l-46 -63l1 -3h269z" />
    <glyph glyph-name="five.tosf" horiz-adv-x="597" 
d="M533 177q0 -131 -102.5 -208t-295.5 -81l-9 84q154 4 233.5 56.5t79.5 138.5q0 118 -160 118q-91 0 -164 -38l-36 38l30 345h389l5 -92h-320l-16 -193q69 24 140 24q110 0 168 -50t58 -142z" />
    <glyph glyph-name="six.tosf" horiz-adv-x="597" 
d="M548 252q0 -130 -61.5 -195.5t-180.5 -65.5q-123 0 -187.5 79.5t-64.5 255.5q0 200 110.5 307t284.5 112l15 -84q-142 -4 -223 -71.5t-94 -186.5l2 -2q76 62 177 62q113 0 167.5 -52t54.5 -159zM454 252q0 69 -35 101.5t-110 32.5q-42 0 -87 -19t-71 -50
q1 -131 39 -184.5t117 -53.5q147 0 147 173z" />
    <glyph glyph-name="seven.tosf" horiz-adv-x="597" 
d="M541 629v-82l-301 -647h-106l304 635h-381l6 94h478z" />
    <glyph glyph-name="eight.tosf" horiz-adv-x="597" 
d="M49 175q0 50 31 91.5t86 65.5v3q-90 42 -90 140q0 78 55 121t170 43q224 0 224 -165q0 -95 -94 -143v-2q121 -43 121 -153q0 -186 -251 -186q-252 0 -252 185zM457 171q0 18 -5 32t-18.5 25.5t-24 19t-34.5 16l-36 12.5t-42.5 12l-41.5 11q-114 -45 -114 -122
q0 -56 37.5 -82.5t124.5 -26.5q154 0 154 103zM166 470q0 -20 10 -36.5t22.5 -26.5t40.5 -20.5t46.5 -15.5t58.5 -15q96 40 96 109q0 49 -33 73t-107 24q-72 0 -103 -23.5t-31 -68.5z" />
    <glyph glyph-name="nine.tosf" horiz-adv-x="597" 
d="M540 332q0 -217 -107.5 -327.5t-285.5 -114.5l-9 83q129 5 209.5 76t95.5 202l-2 1q-61 -61 -167 -61q-103 0 -160.5 55.5t-57.5 164.5q0 107 59.5 167.5t175.5 60.5q249 0 249 -307zM444 350q-1 106 -37.5 153t-117.5 47q-138 0 -138 -137q0 -138 144 -138q110 0 149 75
z" />
    <glyph glyph-name="cent.tosf" horiz-adv-x="597" 
d="M530 571l-7 -87q-70 30 -144 30q-110 0 -157.5 -50.5t-47.5 -162.5q0 -120 52 -173t153 -53q87 0 149 38l8 -81q-58 -38 -153 -44l-8 -137h-79l8 139q-231 27 -231 310q0 286 253 302l10 134h79l-10 -135q69 -6 125 -30z" />
    <glyph glyph-name="sterling.tosf" horiz-adv-x="597" 
d="M60 289l-4 72h46q-19 65 -19 104q0 85 59 139t193 54q98 0 178 -35l-13 -79q-67 30 -157 30q-86 0 -126 -31.5t-40 -84.5q0 -37 17 -97h252v-72h-234q8 -38 8 -77q0 -93 -64 -136l1 -2q83 15 198 15q87 0 192 -12l-6 -82q-141 12 -231 12q-141 0 -264 -11l-3 80
q43 13 65.5 49t22.5 82q0 39 -9 82h-62z" />
    <glyph glyph-name="currency.tosf" horiz-adv-x="597" 
d="M124 329q0 53 28 97l-63 64l49 54l65 -68q45 29 95 29t94 -29l67 68l49 -53l-65 -67q28 -44 28 -95q0 -50 -25 -91l62 -64l-49 -53l-62 63q-43 -31 -99 -31t-99 31l-62 -64l-48 54l60 63q-25 41 -25 92zM189 330q0 -45 31.5 -75.5t76.5 -30.5q46 0 77.5 30.5t31.5 75.5
q0 44 -31.5 74.5t-77.5 30.5q-45 0 -76.5 -30.5t-31.5 -74.5z" />
    <glyph glyph-name="yen.tosf" horiz-adv-x="597" 
d="M124 293h101l-198 356h104l133 -270l34 -73h3l33 73l131 270h102l-193 -356h99v-53h-124v-51h124v-52h-124v-137h-99v137h-126v52h126v51h-126v53z" />
    <glyph glyph-name="uni2007.tosf" horiz-adv-x="597" 
 />
    <glyph glyph-name="franc.tosf" horiz-adv-x="597" 
d="M35 160h81v489h435l2 -86h-344v-191h266v-82h-266v-130h85v-65h-85v-95h-93v95h-81v65z" />
    <glyph glyph-name="lira.tosf" horiz-adv-x="597" 
d="M67 347l-4 51h32q-9 32 -9 67q0 85 59.5 139t192.5 54q98 0 178 -35l-13 -79q-67 30 -157 30q-86 0 -126 -31.5t-40 -84.5q0 -27 7 -60h274v-51h-260q10 -34 14 -52h246v-50h-239q2 -22 2 -33q0 -93 -65 -136l1 -2q83 15 198 15q89 0 192 -12l-6 -82q-141 12 -231 12
q-141 0 -264 -11l-3 80q43 13 65.5 49t22.5 82q0 14 -2 38h-63l-2 50h57q-4 18 -14 52h-43z" />
    <glyph glyph-name="peseta.tosf" horiz-adv-x="597" 
d="M582 419h-61q-6 -90 -59.5 -133t-164.5 -43h-125v-243h-90v419h-57v47h57v183h215q112 0 165.5 -44t58.5 -139h61v-47zM171 569v-103h258q-4 56 -35 79.5t-97 23.5h-126zM297 319q64 0 95 21.5t37 78.5h-258v-100h126z" />
    <glyph glyph-name="Euro.tosf" horiz-adv-x="597" 
d="M559 622l-25 -78q-60 29 -138 29q-94 0 -143.5 -37.5t-63.5 -117.5h307l-19 -55h-294q-1 -11 -1 -33q0 -25 1 -36h272l-19 -52h-247q15 -89 66.5 -129.5t139.5 -40.5t153 43l6 -79q-73 -49 -183 -49q-254 0 -290 255h-48v52h43v69h-43v55h49q36 242 292 242
q107 0 185 -38z" />
    <glyph glyph-name="f_i.sc" horiz-adv-x="853" 
d="M518 560h-334v-193h292v-84h-292v-283h-96v649h427zM654 0v649h98v-649h-98z" />
    <glyph glyph-name="f_l.sc" horiz-adv-x="1085" 
d="M518 560h-334v-193h292v-84h-292v-283h-96v649h427zM738 88h322l-3 -88h-415v649h96v-561z" />
    <glyph glyph-name="exclam.sc" horiz-adv-x="293" 
d="M180 177h-69l-14 472h96zM204 41q0 -51 -56 -51q-29 0 -42.5 12t-13.5 39q0 52 56 52t56 -52z" />
    <glyph glyph-name="ampersand.sc" horiz-adv-x="654" 
d="M644 73l-32 -82q-68 35 -146 92q-93 -95 -214 -95q-96 0 -142 50t-46 124q0 110 124 200q-55 83 -55 148q0 68 40 108.5t125 40.5q75 0 120 -33t45 -85q0 -29 -11.5 -54t-39.5 -51t-49.5 -42t-65.5 -46q59 -72 159 -152q44 69 57 140h77q-9 -89 -72 -187q68 -47 126 -76z
M266 72q74 0 137 60q-97 79 -170 169q-76 -64 -76 -132q0 -46 29.5 -71.5t79.5 -25.5zM216 510q0 -44 38 -104q41 26 61.5 41t39 38.5t18.5 46.5q0 57 -77 57q-37 0 -58.5 -20.5t-21.5 -58.5z" />
    <glyph glyph-name="question.sc" horiz-adv-x="491" 
d="M443 500q0 -131 -168 -214l-5 -109h-69l-6 145q79 42 116.5 79t37.5 86q0 88 -115 88q-91 0 -160 -60l-34 71q78 73 206 73q97 0 147 -41.5t50 -117.5zM292 41q0 -51 -55 -51q-29 0 -42.5 12t-13.5 39q0 52 56 52q55 0 55 -52z" />
    <glyph glyph-name="grave.sc" 
d="M272 697h-73l-117 131h110z" />
    <glyph glyph-name="a.sc" horiz-adv-x="662" 
d="M534 0l-55 153h-303l-55 -153h-103l255 649h113l257 -649h-109zM328 576l-26 -77l-97 -266h246l-95 266l-25 77h-3z" />
    <glyph glyph-name="b.sc" horiz-adv-x="622" 
d="M575 185q0 -185 -219 -185h-268v649h257q202 0 202 -163q0 -111 -94 -142v-2q122 -27 122 -157zM480 192q0 108 -126 108h-174v-219h178q62 0 92 25.5t30 85.5zM456 469q0 51 -27 74t-87 23h-162v-195h170q106 0 106 98z" />
    <glyph glyph-name="c.sc" horiz-adv-x="557" 
d="M510 629l-12 -85q-67 29 -146 29q-111 0 -159 -55t-48 -189q0 -142 48.5 -198.5t160.5 -56.5q75 0 146 32l12 -79q-76 -38 -170 -38q-152 0 -224.5 83t-72.5 257q0 167 74 249t229 82q91 0 162 -31z" />
    <glyph glyph-name="d.sc" horiz-adv-x="669" 
d="M624 326q0 -171 -72 -248.5t-222 -77.5h-242v649h240q156 0 226 -77t70 -246zM524 327q0 132 -45 183t-152 51h-143v-474h143q106 0 151.5 51t45.5 189z" />
    <glyph glyph-name="e.sc" horiz-adv-x="576" 
d="M184 85h350l-3 -85h-443v649h428l2 -87h-334v-186h286v-77h-286v-214z" />
    <glyph glyph-name="f.sc" horiz-adv-x="554" 
d="M518 560h-334v-193h292v-84h-292v-283h-96v649h427z" />
    <glyph glyph-name="g.sc" horiz-adv-x="619" 
d="M557 342v-316q-83 -38 -200 -38q-163 0 -237.5 81t-74.5 254q0 174 75.5 255.5t238.5 81.5q105 0 184 -33l-11 -84q-78 31 -168 31q-118 0 -168.5 -55t-50.5 -195q0 -138 47.5 -193.5t161.5 -55.5q69 0 117 19v248h86z" />
    <glyph glyph-name="h.sc" horiz-adv-x="693" 
d="M605 0h-97v291h-324v-291h-96v649h96v-270h324v270h97v-649z" />
    <glyph glyph-name="i.sc" horiz-adv-x="299" 
d="M100 0v649h98v-649h-98z" />
    <glyph glyph-name="j.sc" horiz-adv-x="460" 
d="M381 649v-436q0 -115 -54 -170t-152 -55q-86 0 -137 37l7 83q48 -35 113 -35t96 34t31 105v437h96z" />
    <glyph glyph-name="k.sc" horiz-adv-x="649" 
d="M625 0h-122l-219 296h-100v-296h-96v649h95v-272h105l210 272h113l-239 -307z" />
    <glyph glyph-name="l.sc" horiz-adv-x="531" 
d="M184 88h322l-3 -88h-415v649h96v-561z" />
    <glyph glyph-name="m.sc" horiz-adv-x="842" 
d="M88 649h108l193 -447l31 -74h3l30 74l195 447h106v-649h-87v422l2 81l-3 1l-30 -76l-184 -428h-64l-182 421l-31 75l-2 -1l1 -81v-414h-86v649z" />
    <glyph glyph-name="n.sc" horiz-adv-x="698" 
d="M610 0h-76l-314 444l-45 67l-2 -1l1 -81v-429h-86v649h86l350 -495l2 1l-2 80v414h86v-649z" />
    <glyph glyph-name="o.sc" horiz-adv-x="664" 
d="M619 324q0 -177 -66.5 -256t-219.5 -79t-220.5 80t-67.5 255q0 176 67 255.5t221 79.5q153 0 219.5 -79.5t66.5 -255.5zM519 324q0 142 -41 195.5t-145 53.5t-146 -53.5t-42 -195.5q0 -141 42.5 -195.5t145.5 -54.5t144.5 54.5t41.5 195.5z" />
    <glyph glyph-name="p.sc" horiz-adv-x="603" 
d="M560 443q0 -103 -57 -154t-183 -51h-136v-238h-96v649h232q125 0 182.5 -50t57.5 -156zM461 443q0 68 -33 96t-108 28h-136v-250h136q76 0 108.5 27t32.5 99z" />
    <glyph glyph-name="q.sc" horiz-adv-x="680" 
d="M627 324q0 -149 -46 -227.5t-151 -100.5l147 -107l-112 -18l-143 118q-143 4 -206 84.5t-63 250.5q0 176 67 255.5t221 79.5q153 0 219.5 -79.5t66.5 -255.5zM527 324q0 142 -41 195.5t-145 53.5t-146 -53.5t-42 -195.5q0 -141 42.5 -195.5t145.5 -54.5t144.5 54.5
t41.5 195.5z" />
    <glyph glyph-name="r.sc" horiz-adv-x="622" 
d="M546 461q0 -73 -34 -117.5t-99 -56.5l178 -287h-115l-153 268h-139v-268h-96v649h237q221 0 221 -188zM446 458q0 59 -27.5 84.5t-93.5 25.5h-141v-226h137q68 0 96.5 26.5t28.5 89.5z" />
    <glyph glyph-name="s.sc" horiz-adv-x="533" 
d="M490 187q0 -92 -61.5 -145t-173.5 -53q-117 0 -204 50l15 84q88 -51 189 -51q70 0 106.5 29t36.5 80q0 33 -25.5 56.5t-63 35t-82 27t-82 33t-63 54t-25.5 88.5q0 81 57 132.5t170 51.5q108 0 183 -36l-13 -81q-90 32 -167 32q-72 0 -105 -26.5t-33 -67.5q0 -32 25.5 -54
t63 -32.5t82 -26t82 -33.5t63 -56t25.5 -91z" />
    <glyph glyph-name="t.sc" horiz-adv-x="538" 
d="M523 562h-206v-562h-97v562h-205l2 87h504z" />
    <glyph glyph-name="u.sc" horiz-adv-x="684" 
d="M606 649v-406q0 -255 -263 -255q-265 0 -265 255v406h96v-406q0 -86 41.5 -126.5t127.5 -40.5q85 0 126 41t41 126v406h96z" />
    <glyph glyph-name="v.sc" horiz-adv-x="647" 
d="M522 649h102l-246 -649h-108l-248 649h108l169 -488l25 -77h3l24 77z" />
    <glyph glyph-name="w.sc" horiz-adv-x="940" 
d="M419 649h106l124 -483l19 -78h3l16 79l110 482h96l-167 -649h-118l-119 479l-17 80h-3l-18 -80l-119 -479h-117l-168 649h102l109 -487l16 -79h3l18 79z" />
    <glyph glyph-name="x.sc" horiz-adv-x="652" 
d="M601 649l-206 -310l220 -339h-113l-177 281l-172 -281h-115l214 337l-207 312h119l163 -256l161 256h113z" />
    <glyph glyph-name="y.sc" horiz-adv-x="627" 
d="M22 649h112l145 -277l36 -72h3l35 72l145 277h107l-240 -429v-220h-100v220z" />
    <glyph glyph-name="z.sc" horiz-adv-x="578" 
d="M525 0h-476v63l310 433l48 63l-1 2h-347l4 88h462v-72l-306 -424l-48 -62l1 -3h355z" />
    <glyph glyph-name="exclamdown.sc" horiz-adv-x="302" 
d="M114 454h76l12 -548h-101zM89 610q0 55 61 55t61 -55q0 -57 -61 -57t-61 57z" />
    <glyph glyph-name="dieresis.sc" 
d="M164 769q0 -43 -44 -43t-44 43q0 42 44 42t44 -42zM327 769q0 -43 -44 -43t-44 43q0 42 44 42t44 -42z" />
    <glyph glyph-name="macron.sc" 
d="M343 779v-56h-283v56h283z" />
    <glyph glyph-name="acute.sc" 
d="M239 828h118l-137 -131h-79z" />
    <glyph glyph-name="cedilla.sc" 
d="M126 -191l63 196l64 1l-37 -197h-90z" />
    <glyph glyph-name="questiondown.sc" horiz-adv-x="527" 
d="M48 78q0 81 46 140.5t136 107.5l4 128h75l6 -164q-87 -52 -128 -96.5t-41 -102.5q0 -102 126 -102q100 0 176 68l35 -77q-38 -37 -96.5 -59t-125.5 -22q-105 0 -159 46.5t-54 132.5zM210 610q0 56 61 56t61 -56q0 -57 -61 -57t-61 57z" />
    <glyph glyph-name="germandbls.sc" horiz-adv-x="1066" 
d="M490 187q0 -92 -61.5 -145t-173.5 -53q-117 0 -204 50l15 84q88 -51 189 -51q70 0 106.5 29t36.5 80q0 33 -25.5 56.5t-63 35t-82 27t-82 33t-63 54t-25.5 88.5q0 81 57 132.5t170 51.5q108 0 183 -36l-13 -81q-90 32 -167 32q-72 0 -105 -26.5t-33 -67.5q0 -32 25.5 -54
t63 -32.5t82 -26t82 -33.5t63 -56t25.5 -91zM1023 187q0 -92 -61.5 -145t-173.5 -53q-116 0 -204 50l15 84q88 -51 189 -51q70 0 106.5 29t36.5 80q0 33 -25.5 56.5t-63 35t-82 27t-82 33t-63 54t-25.5 88.5q0 81 57 132.5t170 51.5q108 0 183 -36l-13 -81q-90 32 -167 32
q-72 0 -105 -26.5t-33 -67.5q0 -32 25.5 -54t63 -32.5t82 -26t82 -33.5t63 -56t25.5 -91z" />
    <glyph glyph-name="agrave.sc" horiz-adv-x="662" 
d="M534 0l-55 153h-303l-55 -153h-103l255 649h113l257 -649h-109zM328 576l-26 -77l-97 -266h246l-95 266l-25 77h-3zM397 697h-73l-117 131h110z" />
    <glyph glyph-name="aacute.sc" horiz-adv-x="662" 
d="M534 0l-55 153h-303l-55 -153h-103l255 649h113l257 -649h-109zM328 576l-26 -77l-97 -266h246l-95 266l-25 77h-3zM365 828h118l-137 -131h-79z" />
    <glyph glyph-name="acircumflex.sc" horiz-adv-x="662" 
d="M534 0l-55 153h-303l-55 -153h-103l255 649h113l257 -649h-109zM328 576l-26 -77l-97 -266h246l-95 266l-25 77h-3zM285 828h84l105 -131h-76l-70 95l-70 -95h-75z" />
    <glyph glyph-name="atilde.sc" horiz-adv-x="662" 
d="M534 0l-55 153h-303l-55 -153h-103l255 649h113l257 -649h-109zM328 576l-26 -77l-97 -266h246l-95 266l-25 77h-3zM228 732h-45q4 41 27 67.5t58 26.5q32 0 69.5 -26.5t55.5 -26.5q30 0 41 40l46 -1q-4 -40 -27.5 -66t-58.5 -26q-31 0 -69 26t-56 26q-28 0 -41 -40z" />
    <glyph glyph-name="adieresis.sc" horiz-adv-x="662" 
d="M534 0l-55 153h-303l-55 -153h-103l255 649h113l257 -649h-109zM328 576l-26 -77l-97 -266h246l-95 266l-25 77h-3zM292 769q0 -43 -44 -43t-44 43q0 42 44 42t44 -42zM455 769q0 -43 -44 -43t-44 43q0 42 44 42t44 -42z" />
    <glyph glyph-name="aring.sc" horiz-adv-x="662" 
d="M224 716q0 38 26.5 60.5t78.5 22.5q50 0 77.5 -23t27.5 -60q0 -54 -45 -74l254 -642h-109l-55 153h-303l-55 -153h-103l252 641q-46 20 -46 75zM328 576l-26 -77l-97 -266h246l-95 266l-25 77h-3zM276 715q0 -42 54 -42q55 0 55 42t-55 42q-54 0 -54 -42z" />
    <glyph glyph-name="ae.sc" horiz-adv-x="950" 
d="M898 563h-345l20 -187h273v-77h-265l23 -214h303l-2 -85h-392l-16 153h-281l-85 -153h-117l386 649h495zM451 579l-38 -72l-152 -274h227l-28 264l-6 81z" />
    <glyph glyph-name="ccedilla.sc" horiz-adv-x="557" 
d="M239 -191l58 182q-129 11 -190.5 94t-61.5 244q0 167 74 249t229 82q91 0 162 -31l-12 -85q-67 29 -146 29q-111 0 -159 -55t-48 -189q0 -142 48.5 -198.5t160.5 -56.5q75 0 146 32l12 -79q-63 -32 -149 -37l-34 -181h-90z" />
    <glyph glyph-name="egrave.sc" horiz-adv-x="576" 
d="M184 85h350l-3 -85h-443v649h428l2 -87h-334v-186h286v-77h-286v-214zM381 697h-73l-117 131h110z" />
    <glyph glyph-name="eacute.sc" horiz-adv-x="576" 
d="M184 85h350l-3 -85h-443v649h428l2 -87h-334v-186h286v-77h-286v-214zM350 828h118l-137 -131h-79z" />
    <glyph glyph-name="ecircumflex.sc" horiz-adv-x="576" 
d="M184 85h350l-3 -85h-443v649h428l2 -87h-334v-186h286v-77h-286v-214zM270 828h84l105 -131h-76l-70 95l-70 -95h-75z" />
    <glyph glyph-name="edieresis.sc" horiz-adv-x="576" 
d="M184 85h350l-3 -85h-443v649h428l2 -87h-334v-186h286v-77h-286v-214zM276 769q0 -43 -44 -43t-44 43q0 42 44 42t44 -42zM439 769q0 -43 -44 -43t-44 43q0 42 44 42t44 -42z" />
    <glyph glyph-name="igrave.sc" horiz-adv-x="299" 
d="M100 0v649h98v-649h-98zM216 697h-73l-117 131h110z" />
    <glyph glyph-name="iacute.sc" horiz-adv-x="299" 
d="M100 0v649h98v-649h-98zM184 828h118l-137 -131h-79z" />
    <glyph glyph-name="icircumflex.sc" horiz-adv-x="299" 
d="M100 0v649h98v-649h-98zM104 828h84l105 -131h-76l-70 95l-70 -95h-75z" />
    <glyph glyph-name="idieresis.sc" horiz-adv-x="299" 
d="M100 0v649h98v-649h-98zM111 769q0 -43 -44 -43t-44 43q0 42 44 42t44 -42zM274 769q0 -43 -44 -43t-44 43q0 42 44 42t44 -42z" />
    <glyph glyph-name="eth.sc" horiz-adv-x="676" 
d="M631 326q0 -171 -72 -248.5t-222 -77.5h-242v305h-78v70h78v274h240q156 0 226 -77t70 -246zM531 327q0 132 -45 183t-152 51h-143v-186h131v-70h-131v-218h143q106 0 151.5 51t45.5 189z" />
    <glyph glyph-name="ntilde.sc" horiz-adv-x="698" 
d="M610 0h-76l-314 444l-45 67l-2 -1l1 -81v-429h-86v649h86l350 -495l2 1l-2 80v414h86v-649zM246 732h-45q4 41 27 67.5t58 26.5q32 0 69.5 -26.5t55.5 -26.5q30 0 41 40l46 -1q-4 -40 -27.5 -66t-58.5 -26q-31 0 -69 26t-56 26q-28 0 -41 -40z" />
    <glyph glyph-name="ograve.sc" horiz-adv-x="664" 
d="M619 324q0 -177 -66.5 -256t-219.5 -79t-220.5 80t-67.5 255q0 176 67 255.5t221 79.5q153 0 219.5 -79.5t66.5 -255.5zM519 324q0 142 -41 195.5t-145 53.5t-146 -53.5t-42 -195.5q0 -141 42.5 -195.5t145.5 -54.5t144.5 54.5t41.5 195.5zM401 697h-73l-117 131h110z
" />
    <glyph glyph-name="oacute.sc" horiz-adv-x="664" 
d="M619 324q0 -177 -66.5 -256t-219.5 -79t-220.5 80t-67.5 255q0 176 67 255.5t221 79.5q153 0 219.5 -79.5t66.5 -255.5zM519 324q0 142 -41 195.5t-145 53.5t-146 -53.5t-42 -195.5q0 -141 42.5 -195.5t145.5 -54.5t144.5 54.5t41.5 195.5zM369 828h118l-137 -131h-79z
" />
    <glyph glyph-name="ocircumflex.sc" horiz-adv-x="664" 
d="M619 324q0 -177 -66.5 -256t-219.5 -79t-220.5 80t-67.5 255q0 176 67 255.5t221 79.5q153 0 219.5 -79.5t66.5 -255.5zM519 324q0 142 -41 195.5t-145 53.5t-146 -53.5t-42 -195.5q0 -141 42.5 -195.5t145.5 -54.5t144.5 54.5t41.5 195.5zM289 828h84l105 -131h-76
l-70 95l-70 -95h-75z" />
    <glyph glyph-name="otilde.sc" horiz-adv-x="664" 
d="M619 324q0 -177 -66.5 -256t-219.5 -79t-220.5 80t-67.5 255q0 176 67 255.5t221 79.5q153 0 219.5 -79.5t66.5 -255.5zM519 324q0 142 -41 195.5t-145 53.5t-146 -53.5t-42 -195.5q0 -141 42.5 -195.5t145.5 -54.5t144.5 54.5t41.5 195.5zM232 732h-45q4 41 27 67.5
t58 26.5q32 0 69.5 -26.5t55.5 -26.5q30 0 41 40l46 -1q-4 -40 -27.5 -66t-58.5 -26q-31 0 -69 26t-56 26q-28 0 -41 -40z" />
    <glyph glyph-name="odieresis.sc" horiz-adv-x="664" 
d="M619 324q0 -177 -66.5 -256t-219.5 -79t-220.5 80t-67.5 255q0 176 67 255.5t221 79.5q153 0 219.5 -79.5t66.5 -255.5zM519 324q0 142 -41 195.5t-145 53.5t-146 -53.5t-42 -195.5q0 -141 42.5 -195.5t145.5 -54.5t144.5 54.5t41.5 195.5zM296 769q0 -43 -44 -43t-44 43
q0 42 44 42t44 -42zM459 769q0 -43 -44 -43t-44 43q0 42 44 42t44 -42z" />
    <glyph glyph-name="oslash.sc" horiz-adv-x="664" 
d="M86 -15l-44 42l52 67q-49 78 -49 230q0 176 67 255.5t220 79.5q128 0 196 -56l54 64l44 -44l-57 -69q49 -78 49 -230q0 -177 -66.5 -256t-219.5 -79q-131 0 -198 57zM518 324q0 104 -22 160l-306 -360q42 -50 143 -50q102 0 143.5 54.5t41.5 195.5zM144 324
q0 -103 22 -159l305 361q-41 47 -139 47q-104 0 -146 -53.5t-42 -195.5z" />
    <glyph glyph-name="ugrave.sc" horiz-adv-x="684" 
d="M606 649v-406q0 -255 -263 -255q-265 0 -265 255v406h96v-406q0 -86 41.5 -126.5t127.5 -40.5q85 0 126 41t41 126v406h96zM411 697h-73l-117 131h110z" />
    <glyph glyph-name="uacute.sc" horiz-adv-x="684" 
d="M606 649v-406q0 -255 -263 -255q-265 0 -265 255v406h96v-406q0 -86 41.5 -126.5t127.5 -40.5q85 0 126 41t41 126v406h96zM379 828h118l-137 -131h-79z" />
    <glyph glyph-name="ucircumflex.sc" horiz-adv-x="684" 
d="M606 649v-406q0 -255 -263 -255q-265 0 -265 255v406h96v-406q0 -86 41.5 -126.5t127.5 -40.5q85 0 126 41t41 126v406h96zM299 828h84l105 -131h-76l-70 95l-70 -95h-75z" />
    <glyph glyph-name="udieresis.sc" horiz-adv-x="684" 
d="M606 649v-406q0 -255 -263 -255q-265 0 -265 255v406h96v-406q0 -86 41.5 -126.5t127.5 -40.5q85 0 126 41t41 126v406h96zM306 769q0 -43 -44 -43t-44 43q0 42 44 42t44 -42zM469 769q0 -43 -44 -43t-44 43q0 42 44 42t44 -42z" />
    <glyph glyph-name="yacute.sc" horiz-adv-x="627" 
d="M22 649h112l145 -277l36 -72h3l35 72l145 277h107l-240 -429v-220h-100v220zM353 828h118l-137 -131h-79z" />
    <glyph glyph-name="thorn.sc" horiz-adv-x="610" 
d="M560 331q0 -102 -60.5 -153t-197.5 -51h-118v-127h-96v649h96v-111h118q137 0 197.5 -50t60.5 -157zM461 332q0 68 -36.5 96t-122.5 28h-118v-251h118q86 0 122.5 28t36.5 99z" />
    <glyph glyph-name="ydieresis.sc" horiz-adv-x="627" 
d="M22 649h112l145 -277l36 -72h3l35 72l145 277h107l-240 -429v-220h-100v220zM279 769q0 -43 -44 -43t-44 43q0 42 44 42t44 -42zM442 769q0 -43 -44 -43t-44 43q0 42 44 42t44 -42z" />
    <glyph glyph-name="dotlessi.sc" horiz-adv-x="299" 
d="M100 0v649h98v-649h-98z" />
    <glyph glyph-name="ij.sc" horiz-adv-x="754" 
d="M675 649v-436q0 -115 -54 -170t-152 -55q-86 0 -137 37l7 83q48 -35 113 -35t96 34t31 105v437h96zM100 0v649h98v-649h-98z" />
    <glyph glyph-name="lslash.sc" horiz-adv-x="550" 
d="M203 88h322l-3 -88h-415v274l-72 -33l-5 81l77 35v292h96v-253l198 92l7 -83l-205 -93v-224z" />
    <glyph glyph-name="oe.sc" horiz-adv-x="994" 
d="M950 0h-429v82l-3 1q-58 -94 -205 -94q-140 0 -204 80t-64 255q0 176 64 255.5t205 79.5q148 0 204 -86h3v76h414l2 -87h-329v-186h281v-78h-281v-212h344zM514 324q0 142 -40.5 195t-143.5 53q-102 0 -143.5 -53t-41.5 -195q0 -141 41.5 -195t144.5 -54q101 0 142 54
t41 195z" />
    <glyph glyph-name="scaron.sc" horiz-adv-x="533" 
d="M490 187q0 -92 -61.5 -145t-173.5 -53q-117 0 -204 50l15 84q88 -51 189 -51q70 0 106.5 29t36.5 80q0 33 -25.5 56.5t-63 35t-82 27t-82 33t-63 54t-25.5 88.5q0 81 57 132.5t170 51.5q108 0 183 -36l-13 -81q-90 32 -167 32q-72 0 -105 -26.5t-33 -67.5q0 -32 25.5 -54
t63 -32.5t82 -26t82 -33.5t63 -56t25.5 -91zM320 697h-84l-103 131h76l69 -97l70 97h77z" />
    <glyph glyph-name="zcaron.sc" horiz-adv-x="578" 
d="M525 0h-476v63l310 433l48 63l-1 2h-347l4 88h462v-72l-306 -424l-48 -62l1 -3h355zM332 697h-84l-103 131h76l69 -97l70 97h77z" />
    <glyph glyph-name="longs.sc" horiz-adv-x="533" 
d="M490 187q0 -92 -61.5 -145t-173.5 -53q-117 0 -204 50l15 84q88 -51 189 -51q70 0 106.5 29t36.5 80q0 33 -25.5 56.5t-63 35t-82 27t-82 33t-63 54t-25.5 88.5q0 81 57 132.5t170 51.5q108 0 183 -36l-13 -81q-90 32 -167 32q-72 0 -105 -26.5t-33 -67.5q0 -32 25.5 -54
t63 -32.5t82 -26t82 -33.5t63 -56t25.5 -91z" />
    <glyph glyph-name="circumflex.sc" 
d="M156 828h84l105 -131h-76l-70 95l-70 -95h-75z" />
    <glyph glyph-name="caron.sc" 
d="M242 697h-84l-103 131h76l69 -97l70 97h77z" />
    <glyph glyph-name="breve.sc" 
d="M273 828h67q0 -136 -141 -136t-141 136h66q0 -87 75 -87q34 0 54 22t20 65z" />
    <glyph glyph-name="dotaccent.sc" 
d="M256 765q0 -47 -56 -47q-29 0 -43 10.5t-14 36.5q0 46 57 46q56 0 56 -46z" />
    <glyph glyph-name="ring.sc" 
d="M95 743q0 38 26.5 60.5t78.5 22.5q50 0 77.5 -23t27.5 -60q0 -85 -105 -85t-105 85zM147 742q0 -42 54 -42q55 0 55 42t-55 42q-54 0 -54 -42z" />
    <glyph glyph-name="ogonek.sc" 
d="M245 18l36 -18q-29 0 -49 -22t-20 -49q0 -50 60 -50q33 0 58 14l9 -53q-40 -23 -93 -23q-52 0 -80 23t-28 62q0 44 29.5 75t77.5 41z" />
    <glyph glyph-name="tilde.sc" 
d="M99 732h-45q4 41 27 67.5t58 26.5q32 0 69.5 -26.5t55.5 -26.5q30 0 41 40l46 -1q-4 -40 -27.5 -66t-58.5 -26q-31 0 -69 26t-56 26q-28 0 -41 -40z" />
    <glyph glyph-name="hungarumlaut.sc" 
d="M173 828h99l-112 -131h-63zM331 828h100l-119 -131h-70z" />
    <glyph glyph-name="fi.sc" horiz-adv-x="853" 
d="M518 560h-334v-193h292v-84h-292v-283h-96v649h427zM654 0v649h98v-649h-98z" />
    <glyph glyph-name="fl.sc" horiz-adv-x="1085" 
d="M518 560h-334v-193h292v-84h-292v-283h-96v649h427zM738 88h322l-3 -88h-415v649h96v-561z" />
    <glyph glyph-name="parenleft.case" horiz-adv-x="332" 
d="M252 839l77 -6q-145 -202 -145 -458q0 -254 144 -458l-76 -6q-75 86 -116.5 206.5t-41.5 257.5q0 273 158 464z" />
    <glyph glyph-name="parenright.case" horiz-adv-x="331" 
d="M3 833l77 6q157 -190 157 -464q0 -136 -41.5 -256.5t-115.5 -207.5l-76 6q143 205 143 458q0 255 -144 458z" />
    <glyph glyph-name="hyphen.case" horiz-adv-x="405" 
d="M70 410h265v-71h-265v71z" />
    <glyph glyph-name="bracketleft.case" horiz-adv-x="326" 
d="M94 -86v922h229v-71h-143v-781h144v-70h-230z" />
    <glyph glyph-name="bracketright.case" horiz-adv-x="327" 
d="M232 836v-922h-229v69h144v782h-144v71h229z" />
    <glyph glyph-name="grave.case" 
d="M277 799h-79l-120 117h119z" />
    <glyph glyph-name="braceleft.case" horiz-adv-x="370" 
d="M253 479q0 -76 -60 -102v-3q60 -28 60 -102q0 -40 -7.5 -102.5t-7.5 -99.5q0 -83 99 -83h30v-75h-25q-102 0 -146.5 36.5t-44.5 108.5q0 41 9 110t9 106q0 32 -20.5 54t-54.5 26v44q34 4 54.5 26t20.5 54q0 38 -9 107t-9 109q0 72 44.5 108.5t146.5 36.5h25v-75h-30
q-99 0 -99 -82q0 -38 7.5 -100t7.5 -102z" />
    <glyph glyph-name="braceright.case" horiz-adv-x="370" 
d="M117 272q0 75 61 102v3q-61 25 -61 102q0 40 7.5 102t7.5 100q0 82 -99 82h-30v75h25q101 0 145.5 -36.5t44.5 -108.5q0 -40 -9 -109t-9 -107q0 -32 20.5 -53.5t55.5 -26.5v-44q-35 -5 -55.5 -26.5t-20.5 -53.5q0 -37 9 -106t9 -110q0 -72 -44.5 -108.5t-145.5 -36.5h-25
v75h30q99 0 99 83q0 37 -7.5 99.5t-7.5 102.5z" />
    <glyph glyph-name="dieresis.case" 
d="M151 848q0 -46 -46 -46t-46 46t46 46t46 -46zM343 848q0 -46 -46 -46t-46 46t46 46t46 -46z" />
    <glyph glyph-name="guillemotleft.case" horiz-adv-x="625" 
d="M535 495l-193 -120l193 -120v-78l-290 194v8l290 194v-78zM317 495l-193 -120l193 -120v-78l-290 194v8l290 194v-78z" />
    <glyph glyph-name="uni00AD.case" horiz-adv-x="405" 
d="M70 410h265v-71h-265v71z" />
    <glyph glyph-name="macron.case" 
d="M341 866v-52h-284v52h284z" />
    <glyph glyph-name="acute.case" 
d="M206 914h129l-130 -117h-78z" />
    <glyph glyph-name="guillemotright.case" horiz-adv-x="625" 
d="M291 177v78l193 120l-193 120v78l291 -194v-8zM74 177v78l193 120l-193 120v78l291 -194v-8z" />
    <glyph glyph-name="circumflex.case" 
d="M147 914h101l116 -117h-90l-76 74l-75 -74h-88z" />
    <glyph glyph-name="caron.case" 
d="M249 797h-101l-114 117h90l75 -77l76 77h88z" />
    <glyph glyph-name="breve.case" 
d="M283 914h72q0 -122 -154 -122q-156 0 -156 122h71q0 -68 85 -68q39 0 61 16t21 52z" />
    <glyph glyph-name="dotaccent.case" 
d="M262 847q0 -47 -62 -47q-34 0 -48.5 10.5t-14.5 36.5q0 48 63 48q62 0 62 -48z" />
    <glyph glyph-name="ring.case" 
d="M98 814q0 38 24.5 60.5t74.5 22.5q49 0 74.5 -22.5t25.5 -59.5q0 -83 -100 -83q-99 0 -99 82zM150 812q0 -38 48 -38t48 38t-48 38t-48 -38z" />
    <glyph glyph-name="ogonek.case" 
d="M240 20l41 -20q-29 0 -49 -22t-20 -49q0 -50 60 -50q33 0 58 14l9 -53q-40 -23 -93 -23t-80.5 23.5t-27.5 64.5q0 43 27 74t75 41z" />
    <glyph glyph-name="tilde.case" 
d="M97 803l-45 1q5 48 27.5 77t59.5 29q32 0 73.5 -30t57.5 -30q30 0 40 47l43 -1q-4 -48 -27 -77t-60 -29q-31 0 -72 30t-57 30q-28 0 -40 -47z" />
    <glyph glyph-name="hungarumlaut.case" 
d="M119 914h104l-99 -118h-64zM282 914h106l-119 -118h-72z" />
    <glyph glyph-name="endash.case" horiz-adv-x="532" 
d="M70 410h392v-71h-392v71z" />
    <glyph glyph-name="emdash.case" horiz-adv-x="708" 
d="M70 410h568v-71h-568v71z" />
    <glyph glyph-name="guilsinglleft.case" horiz-adv-x="405" 
d="M336 495l-193 -120l193 -120v-78l-290 194v8l290 194v-78z" />
    <glyph glyph-name="guilsinglright.case" horiz-adv-x="405" 
d="M69 177v78l193 120l-193 120v78l291 -194v-8z" />
    <glyph glyph-name="zero.zero" horiz-adv-x="649" 
d="M368 380q0 -51 -42 -51q-22 0 -32.5 11t-10.5 40q0 51 43 51q42 0 42 -51zM592 374q0 -206 -63 -295.5t-204 -89.5q-143 0 -205.5 89t-62.5 296q0 211 62 298t206 87q143 0 205 -87t62 -298zM494 375q0 118 -19 182.5t-54 88t-96 23.5q-62 0 -97.5 -23.5t-54.5 -88.5
t-19 -182q0 -119 19.5 -184.5t54.5 -88.5t97 -23t97 23.5t53.5 88.5t18.5 184z" />
    <glyph glyph-name="zero.osf.zero" horiz-adv-x="626" 
d="M570 313q0 -169 -61 -246t-196 -77q-136 0 -197 77t-61 246q0 174 60.5 250t198.5 76q135 0 195.5 -76.5t60.5 -249.5zM478 314q0 133 -38.5 183.5t-127.5 50.5q-88 0 -127 -51t-39 -183q0 -133 39 -183.5t127 -50.5q89 0 127.5 50.5t38.5 183.5zM355 315q0 -51 -42 -51
q-22 0 -32.5 11t-10.5 40q0 51 43 51q42 0 42 -51z" />
    <glyph glyph-name="zero.lf.zero" horiz-adv-x="634" 
d="M359 380q0 -51 -42 -51q-22 0 -32.5 11t-10.5 40q0 51 43 51q42 0 42 -51zM584 374q0 -206 -63 -295.5t-204 -89.5q-143 0 -205.5 89t-62.5 296q0 211 62 298t206 87q143 0 205 -87t62 -298zM486 375q0 118 -19 182.5t-54 88t-96 23.5q-62 0 -97.5 -23.5t-54.5 -88.5
t-19 -182q0 -119 19.5 -184.5t54.5 -88.5t97 -23t97 23.5t53.5 88.5t18.5 184z" />
    <glyph glyph-name="zero.tosf.zero" horiz-adv-x="597" 
d="M344 315q0 -51 -42 -51q-22 0 -32.5 11t-10.5 40q0 51 43 51q42 0 42 -51zM556 313q0 -169 -61 -246t-196 -77q-136 0 -197 77t-61 246q0 174 60.5 250t198.5 76q135 0 195.5 -76.5t60.5 -249.5zM461 314q0 135 -37.5 186.5t-123.5 51.5q-88 0 -126.5 -51.5t-38.5 -186.5
q0 -137 38.5 -188t126.5 -51q86 0 123.5 51.5t37.5 187.5z" />
    <glyph glyph-name="orn001" horiz-adv-x="716" 
d="M358 -13q-34 0 -67 30t-67 78.5t-40 55.5q-50 56 -90.5 151t-40.5 193q0 122 72.5 196t232.5 74t232.5 -74t72.5 -196q0 -98 -40.5 -193.5t-91.5 -150.5q-9 -10 -31 -41l-41 -56t-47 -46t-54 -21zM359 35q24 0 50.5 26t52.5 63.5t35 46.5q42 46 78 125t36 159
q0 57 -54 79t-198 22q-147 0 -200 -21.5t-53 -79.5q0 -80 36 -159t78 -125q9 -8 35.5 -46t53 -64t50.5 -26zM458 204q-45 12 -97 12q-53 0 -99 -12q-35 39 -48 94q68 -24 144 -24q78 0 146 24q-13 -58 -46 -94zM341 377l-23 -35q-85 12 -139 38q0 59 27 83q41 -47 135 -86z
M400 342l-23 35q94 39 136 86q27 -25 27 -83q-54 -26 -140 -38z" />
    </font>
</defs>
</svg>
