<?xml version="1.0" standalone="no"?>
<!DOCTYPE svg PUBLIC "-//W3C//DTD SVG 1.1//EN" "http://www.w3.org/Graphics/SVG/1.1/DTD/svg11.dtd" >
<svg>
<metadata>
Created by FontForge 20090622 at Mon Jul 27 09:10:01 2015
 By deploy user
1995 Albert-Jan Pool, published by Fontshop International for the FontFont library.
</metadata>
<defs>
<font id="DIN-Light" horiz-adv-x="514" >
  <font-face 
    font-family="DIN-Light"
    font-weight="300"
    font-stretch="normal"
    units-per-em="1000"
    panose-1="2 0 5 4 2 0 0 2 0 3"
    ascent="780"
    descent="-220"
    x-height="482"
    cap-height="712"
    bbox="-28 -255 1099 975"
    underline-thickness="51"
    underline-position="-85"
    unicode-range="U+0020-U+22C5"
  />
<missing-glyph horiz-adv-x="559" 
d="M97 712v-712h365v712h-365zM424 38h-289v636h289v-636z" />
    <glyph glyph-name=".notdef" horiz-adv-x="559" 
d="M97 712v-712h365v712h-365zM424 38h-289v636h289v-636z" />
    <glyph glyph-name=".null" horiz-adv-x="0" 
 />
    <glyph glyph-name="nonmarkingreturn" horiz-adv-x="333" 
 />
    <glyph glyph-name="space" unicode=" " horiz-adv-x="255" 
 />
    <glyph glyph-name="exclam" unicode="!" horiz-adv-x="304" 
d="M142 192h49l3 520h-55zM133 67v-67h67v67h-67z" />
    <glyph glyph-name="quotedbl" unicode="&#x22;" horiz-adv-x="408" 
d="M95 712v-156h63v156h-63zM250 712v-156h63v156h-63z" />
    <glyph glyph-name="numbersign" unicode="#" horiz-adv-x="639" 
d="M463 284l25 153h100v45h-94l36 230h-50l-36 -230h-175l37 230h-52l-36 -230h-105v-45h99l-25 -153h-103v-44h96l-38 -240h51l37 240h176l-39 -240h51l38 240h103v44h-96zM237 284l25 153h175l-25 -153h-175z" />
    <glyph glyph-name="dollar" unicode="$" horiz-adv-x="587" 
d="M528 191q0 45 -17 79q-17 36 -45 59q-13 11 -23 16q-12 7 -26 13q-15 6 -34 9q-17 4 -44 9l-29 5v290q50 -3 85 -22q37 -19 62 -43l35 35q-44 38 -84 55q-38 18 -98 21v89h-45v-89q-94 -6 -147 -58q-52 -51 -52 -136q0 -83 56 -131q23 -18 54 -32t73 -20l16 -2v-295
q-54 5 -93 22q-41 19 -83 61l-38 -38q46 -44 95 -69q48 -22 119 -25v-108h45v109q104 6 161 57t57 139zM474 189q0 -66 -44 -104q-42 -36 -120 -42v287q6 -1 17.5 -2.5t17.5 -2.5q17 -1 32 -6q13 -2 30 -11q12 -5 28 -19q39 -33 39 -100zM265 671v-283q-23 4 -57 14
q-28 10 -52 30q-37 32 -37 93q0 63 39 102q40 40 107 44z" />
    <glyph glyph-name="percent" unicode="%" horiz-adv-x="828" 
d="M759 127v107q0 61 -37 97q-36 37 -94 37q-60 0 -96 -37q-36 -36 -36 -97v-107q0 -59 36 -97q37 -37 96 -37q58 0 95 37q36 36 36 97zM332 478v107q0 61 -37 97q-36 37 -94 37q-60 0 -96 -37q-36 -36 -36 -97v-107q0 -60 36 -97q36 -36 96 -36q58 0 95 37q36 36 36 96z
M715 232v-103q0 -46 -20 -72q-19 -26 -67 -26q-47 0 -68 27q-20 28 -20 71v103q0 44 20 72q20 26 68 26t68 -27q19 -24 19 -71zM288 583v-103q0 -44 -21 -71q-21 -26 -66 -26q-47 0 -68 26q-20 28 -20 71v103q0 44 20 72q20 26 68 26q49 0 68 -27q19 -24 19 -71zM226 0h45
l332 712h-45z" />
    <glyph glyph-name="ampersand" unicode="&#x26;" horiz-adv-x="746" 
d="M524 84l69 -84h69l-102 124q34 42 48 96q14 50 14 121h-53q0 -42 -2 -59q-2 -28 -7 -46q-4 -19 -13 -37q-7 -16 -20 -35l-204 247l15 10q12 8 17 12q14 10 21 14q33 23 58 54q24 31 24 74q0 31 -12 56q-13 29 -31 46q-18 19 -46 30q-25 11 -56 11q-32 0 -57 -11
q-24 -9 -46 -30q-19 -17 -31 -45q-11 -23 -11 -56q0 -19 7 -45q7 -21 19 -41l25 -37l28 -35q-55 -38 -61 -43q-27 -19 -52 -47q-21 -24 -36 -57q-14 -33 -14 -74t16 -83q16 -37 46 -64t70 -42q39 -14 89 -14q42 0 80 11q48 16 64 24q27 14 46 30q26 22 29 25zM278 382
l216 -261q-54 -48 -101 -64q-47 -15 -89 -15q-36 0 -68 12q-31 12 -52 32q-22 22 -34 50q-12 30 -12 64q0 32 13 61q14 27 32 47q21 21 45 39zM405 575q0 -35 -22 -58q-20 -22 -50 -42q-3 -2 -8 -6l-17 -11l-16 -11l-35 44q-9 13 -21 33q-8 16 -11 28q-3 13 -3 26
q0 40 26 66t65 26t66 -27q26 -26 26 -68z" />
    <glyph glyph-name="quotesingle" unicode="'" horiz-adv-x="253" 
d="M95 712v-156h63v156h-63z" />
    <glyph glyph-name="parenleft" unicode="(" horiz-adv-x="284" 
d="M182 -94l35 35q-11 12 -31 32q-15 16 -23 33q-15 32 -15 79v542q0 47 15 79q8 17 23 34l31 31l-35 35q-28 -28 -39 -40q-16 -17 -27 -40q-11 -21 -16 -46q-3 -22 -3 -47v-554q0 -15 4 -47q5 -27 15 -46q9 -18 28 -40z" />
    <glyph glyph-name="parenright" unicode=")" horiz-adv-x="284" 
d="M187 79v554q0 25 -3 47q-3 24 -16 46q-12 24 -28 40q-17 20 -38 40l-37 -37q13 -12 31 -32q14 -14 23 -33q8 -13 11 -35q3 -18 3 -42v-542q0 -23 -3 -42q-4 -21 -11 -35q-11 -22 -23 -34l-9 -9l-11.5 -11.5l-10.5 -10.5l37 -37q29 29 39 40q14 15 27 40q13 23 16 46
q3 24 3 47z" />
    <glyph glyph-name="asterisk" unicode="*" horiz-adv-x="467" 
d="M253 511l120 -73l22 38l-123 68l123 68l-22 38l-120 -73l3 141h-45l3 -141l-120 73l-22 -38l123 -68l-123 -68l22 -38l120 73l-3 -141h45z" />
    <glyph glyph-name="plus" unicode="+" 
d="M281 59v181h180v47h-180v180h-47v-180h-181v-47h181v-181h47z" />
    <glyph glyph-name="comma" unicode="," horiz-adv-x="258" 
d="M95 68v-204l68 68v136h-68z" />
    <glyph glyph-name="hyphen" unicode="-" horiz-adv-x="426" 
d="M82 287v-47h262v47h-262z" />
    <glyph glyph-name="period" unicode="." horiz-adv-x="264" 
d="M95 74v-74h74v74h-74z" />
    <glyph glyph-name="slash" unicode="/" horiz-adv-x="338" 
d="M0 -74h53l285 860h-53z" />
    <glyph glyph-name="zero" unicode="0" 
d="M444 184v344q0 45 -14 77q-13 34 -39 60q-23 25 -59 39q-32 14 -75 14q-42 0 -76 -14q-34 -13 -59 -40q-23 -25 -38 -60q-14 -36 -14 -76v-344q0 -40 14 -77q14 -32 39 -60q24 -24 59 -39q37 -14 75 -14q40 0 76 14q35 15 59 40q25 26 38 60q14 34 14 76zM393 523v-334
q0 -32 -9 -59q-10 -29 -26 -48q-18 -21 -43 -32q-23 -11 -58 -11q-32 0 -59 12q-26 12 -43 32t-26 47q-8 24 -8 59v334q0 32 9 59q9 28 26 48t43 32q25 11 58 11t59 -12q25 -11 43 -32q17 -20 26 -48q8 -24 8 -58z" />
    <glyph glyph-name="one" unicode="1" 
d="M262 654v-654h51v712h-51l-129 -111v-61z" />
    <glyph glyph-name="two" unicode="2" 
d="M72 45v-45h377v45h-316l267 349q28 37 38 66q11 29 11 71q0 45 -14 77q-13 36 -38 59q-23 25 -59 38q-30 13 -77 13q-43 0 -79 -15q-38 -16 -59 -39q-23 -23 -37 -59q-13 -36 -13 -74h51q0 36 11 64q12 27 30 45q19 17 43 25q23 8 53 8q66 0 102 -39q35 -38 35 -103
q0 -32 -10 -58q-8 -25 -30 -53z" />
    <glyph glyph-name="three" unicode="3" 
d="M447 190q0 70 -28 114q-27 44 -87 64q54 24 78 64q23 40 23 98q0 46 -14 78q-13 36 -39 60q-23 25 -59 38q-30 13 -77 13q-38 0 -73 -12q-35 -13 -59 -34t-41 -55q-16 -35 -20 -74h51q8 61 43 95q35 35 99 35q31 0 54 -10q26 -9 44 -27q20 -18 30 -45q10 -23 10 -62
q0 -70 -35 -106q-35 -37 -106 -37h-12v-45h12q83 0 119 -40q36 -37 36 -112q0 -36 -12 -64q-13 -29 -32 -48q-19 -18 -48 -30q-26 -10 -59 -10q-25 0 -54 8q-29 10 -47 23q-19 15 -35 42q-13 26 -16 62h-51q3 -44 20 -80q20 -37 43 -56q27 -21 63 -33q38 -11 77 -11
q41 0 80 13q36 13 64 38q28 27 43 62q15 34 15 84z" />
    <glyph glyph-name="four" unicode="4" 
d="M376 0v117h95v45h-95v226h-51v-226h-228l262 550h-54l-262 -550v-45h282v-117h51z" />
    <glyph glyph-name="five" unicode="5" 
d="M451 233q0 34 -2 51q-1 24 -8 51q-6 25 -18 48q-13 27 -30 42q-42 43 -120 43q-88 0 -135 -53v252h297v45h-342v-364h45q12 37 46 56q33 19 83 19q45 0 70 -17q26 -16 40 -45q14 -26 19 -61q4 -22 4 -67q0 -27 -1 -42q0 -19 -5 -42q-2 -17 -13 -40q-11 -22 -24 -35
q-17 -17 -43 -27q-26 -9 -55 -9q-61 0 -95 31q-30 30 -39 88h-51q6 -74 48 -116q46 -48 137 -48q86 0 137 51q20 20 30 42q11 22 17 46q5 21 7 50q1 9 1 51z" />
    <glyph glyph-name="six" unicode="6" 
d="M448 201q0 43 -13 78q-12 36 -36 63q-27 30 -58 43q-31 15 -77 15q-48 0 -83 -17l164 329h-51l-183 -369q-24 -51 -31 -80q-9 -35 -9 -69q0 -40 13 -81q14 -37 37 -63q25 -26 59 -41q36 -15 80 -15t80 17q36 18 59 44q26 30 37 66q12 35 12 80zM397 197q0 -73 -38 -115
q-38 -43 -100 -43t-100 43q-37 45 -37 115q0 72 37 115t100 43q35 0 60 -13q27 -12 43 -34q16 -19 26 -51q9 -28 9 -60z" />
    <glyph glyph-name="seven" unicode="7" 
d="M155 0h52l252 667v45h-373v-157h51v112h270z" />
    <glyph glyph-name="eight" unicode="8" 
d="M460 192q0 64 -31 107q-29 43 -81 71q97 52 97 162q0 42 -14 73q-14 35 -39 59q-24 25 -59 40q-32 14 -76 14q-41 0 -77 -15q-35 -15 -59 -39q-22 -22 -38 -59q-14 -34 -14 -73q0 -108 98 -162q-51 -27 -82 -71q-31 -45 -31 -107q0 -41 16 -79q17 -37 43 -63
q27 -26 64 -41t80 -15q44 0 80 15q38 15 65 42q28 27 43 62q15 33 15 79zM409 192q0 -32 -12 -61q-14 -31 -32 -49q-20 -20 -48 -32q-25 -11 -60 -11q-31 0 -60 12q-31 14 -49 32q-19 19 -32 48q-11 26 -11 61q0 34 12 61q12 29 32 49q19 19 48 32q29 12 60 12q33 0 60 -12
q28 -12 49 -33q20 -20 32 -48q11 -25 11 -61zM394 532q0 -31 -10 -57q-8 -24 -28 -45q-17 -17 -44 -29q-24 -10 -55 -10q-28 0 -56 11q-26 12 -43 29q-18 19 -28 44q-10 30 -10 57q0 29 10 57q11 28 28 45q16 18 44 29q22 10 55 10t56 -11q25 -10 43 -29q20 -20 28 -44
q10 -24 10 -57z" />
    <glyph glyph-name="nine" unicode="9" 
d="M443 518q0 45 -13 80q-12 38 -37 64q-23 26 -59 41q-34 15 -80 15t-80 -17q-37 -18 -59 -44q-23 -26 -37 -66q-12 -37 -12 -80q0 -42 12 -78t36 -63q23 -26 57 -43q35 -15 78 -15q47 0 84 17l-164 -329h51l183 369q21 42 31 80q9 36 9 69zM392 515q0 -73 -38 -115
q-38 -43 -100 -43q-31 0 -60 13q-25 13 -43 34q-16 20 -26 51q-8 27 -8 60q0 72 37 115t100 43q64 0 101 -43q37 -40 37 -115z" />
    <glyph glyph-name="colon" unicode=":" horiz-adv-x="292" 
d="M123 74v-74h74v74h-74zM123 386v-74h74v74h-74z" />
    <glyph glyph-name="semicolon" unicode=";" horiz-adv-x="292" 
d="M125 68v-204l68 68v136h-68zM123 386v-74h74v74h-74z" />
    <glyph glyph-name="less" unicode="&#x3c;" 
d="M105 239l304 -161v55l-254 130l254 130v55l-304 -161v-48z" />
    <glyph glyph-name="equal" unicode="=" 
d="M53 210v-47h408v47h-408zM53 363v-47h408v47h-408z" />
    <glyph glyph-name="greater" unicode="&#x3e;" 
d="M105 78l304 161v48l-304 161v-55l254 -130l-254 -130v-55z" />
    <glyph glyph-name="question" unicode="?" horiz-adv-x="488" 
d="M438 542q0 39 -14 70q-13 32 -37 56q-23 23 -57 37q-29 13 -71 13t-73 -14q-32 -13 -57 -38q-22 -22 -36 -56q-13 -34 -13 -68h51q0 26 9 50q9 23 26 42q20 20 40 29q20 10 53 10q28 0 51 -10q21 -8 41 -28q19 -19 27 -41q9 -21 9 -52q0 -29 -10 -49q-8 -18 -24 -43
l-84 -124q-14 -20 -22 -42q-7 -23 -7 -48v-45h51v47q0 7 4 29q4 16 14 31l85 125q18 26 32 57q12 28 12 62zM232 67v-67h67v67h-67z" />
    <glyph glyph-name="at" unicode="@" horiz-adv-x="921" 
d="M582 432q-32 51 -101 51q-94 0 -162 -92q-66 -90 -66 -211q0 -180 140 -180q95 0 148 96l4 -1q18 -95 117 -95q91 0 145 75q58 82 58 236q0 190 -102 304q-104 119 -281 119q-204 0 -324 -150q-110 -139 -110 -346q0 -222 110 -355q116 -138 323 -138q205 0 338 115
l-20 42q-111 -111 -318 -111q-189 0 -293 131q-93 118 -93 315q0 189 97 315q108 135 289 135q161 0 252 -107q86 -101 86 -269q0 -126 -42 -195q-40 -64 -106 -64q-84 0 -84 92q0 13 4 41l50 286l-41 5l-15 -44h-3zM567 383l-33 -186q-9 -59 -45 -100q-37 -40 -82 -40
q-94 0 -94 123q0 97 49 174q51 75 120 75q60 0 85 -46z" />
    <glyph glyph-name="A" unicode="A" horiz-adv-x="602" 
d="M467 173l62 -173h58l-262 712h-48l-262 -712h58l62 173h332zM152 221l149 419l149 -419h-298z" />
    <glyph glyph-name="B" unicode="B" horiz-adv-x="671" 
d="M589 194q0 64 -32 108q-31 44 -90 64q52 18 82 60q29 42 29 100q0 46 -16 79q-14 34 -43 58q-29 26 -65 37q-33 12 -82 12h-262v-712h270q44 0 86 13q40 14 66 37q27 24 42 60t15 84zM535 194q0 -70 -44 -108q-42 -38 -117 -38h-210v292h210q74 0 117 -39q44 -38 44 -107
zM524 526q0 -37 -13 -63q-12 -25 -34 -43q-19 -15 -50 -24q-30 -8 -61 -8h-202v276h202q36 0 61 -8q31 -8 51 -25q23 -17 34 -42q12 -23 12 -63z" />
    <glyph glyph-name="C" unicode="C" horiz-adv-x="644" 
d="M568 202h-53q-15 -73 -67 -118q-51 -42 -122 -42q-36 0 -73 14q-37 16 -62 41q-17 19 -30 41q-12 25 -17 51q-3 14 -7 70q-1 28 -1 97q0 44 2 98q4 54 7 70q6 32 16 51q11 21 30 40q28 27 62 41t73 14q73 0 122 -43q50 -41 65 -117h55q-18 98 -82 153q-61 55 -160 55
q-52 0 -97 -19q-45 -18 -81 -54q-23 -23 -38 -50q-12 -22 -20 -59q-5 -30 -7 -77q0 -13 -0.5 -47.5t-0.5 -55.5t0.5 -55.5t0.5 -48.5q1 -39 8 -76q8 -35 20 -59q19 -32 37 -50q36 -35 81 -54q49 -19 97 -19t88 15q41 15 72 41q29 24 52 66q21 40 30 86z" />
    <glyph glyph-name="D" unicode="D" horiz-adv-x="678" 
d="M596 366q0 49 -1 75q0 41 -7 75q-6 40 -20 70q-13 33 -41 61q-64 65 -178 65h-239v-712h239q113 0 178 65q27 27 41 64q15 37 21 78q7 39 7 82v25.5v28.5v23zM542 366q0 -42 -1 -67q0 -42 -5 -73q-5 -42 -15 -69q-10 -30 -32 -54q-30 -32 -71 -44q-36 -11 -82 -11h-172
v616h172q44 0 83 -12q42 -13 70 -43q21 -21 32 -52q11 -29 16 -62q5 -27 5 -66v-63z" />
    <glyph glyph-name="E" unicode="E" horiz-adv-x="598" 
d="M110 712v-712h432v48h-378v287h322v48h-322v281h378v48h-432z" />
    <glyph glyph-name="F" unicode="F" horiz-adv-x="576" 
d="M164 371v293h378v48h-432v-712h54v323h322v48h-322z" />
    <glyph glyph-name="G" unicode="G" horiz-adv-x="651" 
d="M571 248v116h-245v-48h191v-64q0 -48 -10 -79q-9 -31 -33 -62q-28 -34 -67 -52q-37 -17 -81 -17q-36 0 -73 14q-37 16 -62 41q-17 19 -30 41q-12 25 -17 51q-3 14 -7 70q-1 28 -1 97q0 44 2 98q4 54 7 70q6 32 16 51q11 21 30 40q28 27 62 41t73 14q73 0 123 -43
q51 -42 66 -117h54q-7 47 -30 86q-21 39 -53 65q-32 27 -73 42t-87 15q-52 0 -97 -19q-45 -18 -81 -54q-23 -23 -38 -50q-12 -22 -20 -59q-5 -30 -7 -77q0 -13 -0.5 -47.5t-0.5 -55.5t0.5 -55.5t0.5 -48.5q1 -39 8 -76q8 -35 20 -59q19 -32 37 -50q36 -35 81 -54
q49 -19 97 -19q53 0 103 22q52 24 84 60q33 34 45 75q13 40 13 97z" />
    <glyph glyph-name="H" unicode="H" horiz-adv-x="699" 
d="M535 335v-335h54v712h-54v-329h-371v329h-54v-712h54v335h371z" />
    <glyph glyph-name="I" unicode="I" horiz-adv-x="274" 
d="M110 712v-712h54v712h-54z" />
    <glyph glyph-name="J" unicode="J" horiz-adv-x="498" 
d="M398 210v502h-54v-491q0 -87 -40 -133t-118 -46q-46 0 -73 15q-23 13 -46 35l-37 -37q63 -61 156 -61q46 0 88 16q41 17 67 44q27 28 42 68t15 88z" />
    <glyph glyph-name="K" unicode="K" horiz-adv-x="645" 
d="M334 399l229 -399h64l-257 440l220 272h-65l-361 -445v445h-54v-712h54v193z" />
    <glyph glyph-name="L" unicode="L" horiz-adv-x="572" 
d="M110 712v-712h432v48h-378v664h-54z" />
    <glyph glyph-name="M" unicode="M" horiz-adv-x="818" 
d="M654 587v-587h54v712h-54l-242 -549l-248 549h-54v-712h54v587l220 -487h54z" />
    <glyph glyph-name="N" unicode="N" horiz-adv-x="739" 
d="M164 619l411 -619h54v712h-54v-617l-411 617h-54v-712h54v619z" />
    <glyph glyph-name="O" unicode="O" horiz-adv-x="652" 
d="M570 356q0 75 -1 104q0 41 -8 76q-7 36 -20 59q-13 26 -37 50q-34 36 -81 54q-44 19 -97 19q-52 0 -97 -19q-45 -18 -81 -54q-23 -23 -38 -50q-12 -22 -20 -59q-5 -30 -7 -77q0 -13 -0.5 -47.5t-0.5 -55.5t0.5 -55.5t0.5 -48.5q1 -39 8 -76q8 -35 20 -59q19 -32 37 -50
q36 -35 81 -54q49 -19 97 -19q50 0 97 19t81 54q24 24 38 50q14 25 20 59q7 31 7 77q1 30 1 103zM516 356q0 -70 -2 -98q-2 -43 -7 -70q-7 -34 -16 -51q-10 -20 -30 -40q-26 -26 -62 -41q-36 -14 -73 -14q-36 0 -73 14q-37 16 -62 41q-17 19 -30 41q-12 25 -17 51
q-3 14 -7 70q-1 28 -1 97q0 44 2 98q4 54 7 70q6 32 16 51q11 21 30 40q28 27 62 41t73 14q41 0 73 -14q34 -13 62 -41q19 -18 30 -41q10 -18 17 -51q5 -27 7 -70q1 -14 1 -97z" />
    <glyph glyph-name="P" unicode="P" horiz-adv-x="631" 
d="M586 507q0 52 -17 87q-17 40 -45 65q-28 27 -68 40q-34 13 -85 13h-261v-712h54v302h207q46 0 86 14q42 16 68 40q28 25 45 64q16 35 16 87zM532 507q0 -81 -47 -119q-45 -38 -120 -38h-201v314h201q75 0 121 -39q46 -37 46 -118z" />
    <glyph glyph-name="Q" unicode="Q" horiz-adv-x="651" 
d="M483 48l84 -84l36 36l-84 84q20 23 29 47q11 26 15 56q6 33 6 73q1 28 1 96q0 75 -1 104q0 41 -8 76q-7 36 -20 59q-13 26 -37 50q-34 36 -81 54q-44 19 -97 19q-52 0 -97 -19q-45 -18 -81 -54q-23 -23 -38 -50q-12 -22 -20 -59q-5 -30 -7 -77q0 -13 -0.5 -47.5
t-0.5 -55.5t0.5 -55.5t0.5 -48.5q1 -39 8 -76q8 -35 20 -59q19 -32 37 -50q36 -35 81 -54q49 -19 97 -19q42 0 84 14q39 14 73 40zM516 356q0 -60 -1 -85q0 -26 -4 -64q-3 -29 -10 -48q-5 -17 -19 -38l-99 99l-36 -36l100 -100q-53 -42 -121 -42q-36 0 -73 14q-37 16 -62 41
q-17 19 -30 41q-12 25 -17 51q-3 14 -7 70q-1 28 -1 97q0 44 2 98q4 54 7 70q6 32 16 51q11 21 30 40q28 27 62 41t73 14q41 0 73 -14q34 -13 62 -41q19 -18 30 -41q10 -18 17 -51q5 -27 7 -70q1 -14 1 -97z" />
    <glyph glyph-name="R" unicode="R" horiz-adv-x="657" 
d="M360 328l170 -328h63l-172 329q74 13 120 62q44 48 44 130q0 47 -16 82q-15 37 -43 60q-29 26 -65 37q-33 12 -80 12h-271v-712h54v328h196zM531 520q0 -74 -44 -109t-113 -35h-210v288h210q71 0 113 -35q44 -34 44 -109z" />
    <glyph glyph-name="S" unicode="S" horiz-adv-x="587" 
d="M528 191q0 45 -17 79q-17 36 -45 59q-21 19 -50 30q-24 11 -77 17l-77 12q-33 7 -59 17q-26 11 -47 27q-37 32 -37 93q0 69 44 108q45 39 121 39q36 0 57 -5q26 -4 46 -13q20 -8 37 -21q18 -12 33 -27l35 35q-46 41 -93 59q-43 18 -112 18q-103 0 -162 -53t-59 -142
q0 -83 56 -131q48 -40 127 -52l83 -13q25 -3 37 -7q18 -4 27 -8q11 -4 20 -10q18 -12 19 -13q39 -33 39 -100q0 -70 -49 -109q-47 -38 -134 -38q-23 0 -59 4q-23 4 -50 14q-18 8 -47 26q-22 17 -46 40l-38 -38q49 -48 104 -72q54 -22 133 -22q112 0 176 53q64 54 64 144z
" />
    <glyph glyph-name="T" unicode="T" horiz-adv-x="539" 
d="M296 0v664h213v48h-479v-48h212v-664h54z" />
    <glyph glyph-name="U" unicode="U" horiz-adv-x="688" 
d="M588 231v481h-54v-474q0 -46 -14 -81q-14 -36 -38 -62q-22 -23 -60 -39q-36 -14 -78 -14q-41 0 -78 14q-35 15 -60 40q-25 28 -39 62q-13 36 -13 80v474h-54v-481q0 -51 18 -96q17 -41 51 -75q33 -31 77 -49q42 -17 98 -17q54 0 99 18q44 18 77 49q32 32 50 75
q18 45 18 95z" />
    <glyph glyph-name="V" unicode="V" horiz-adv-x="534" 
d="M244 0h46l234 712h-57l-200 -617l-200 617h-57z" />
    <glyph glyph-name="W" unicode="W" horiz-adv-x="842" 
d="M589 0h55l178 712h-57l-150 -619l-166 619h-56l-166 -619l-150 619h-57l178 -712h55l168 620z" />
    <glyph glyph-name="X" unicode="X" horiz-adv-x="532" 
d="M265 317l186 -317h63l-220 365l204 347h-62l-171 -299l-170 299h-63l204 -347l-218 -365h61z" />
    <glyph glyph-name="Y" unicode="Y" horiz-adv-x="494" 
d="M274 0v295l210 417h-58l-177 -360l-181 360h-58l210 -417v-295h54z" />
    <glyph glyph-name="Z" unicode="Z" horiz-adv-x="559" 
d="M63 57v-57h433v48h-378l378 616v48h-418v-48h360z" />
    <glyph glyph-name="bracketleft" unicode="[" horiz-adv-x="290" 
d="M97 786v-860h148v45h-97v770h97v45h-148z" />
    <glyph glyph-name="backslash" unicode="\" horiz-adv-x="338" 
d="M0 786l285 -860h53l-285 860h-53z" />
    <glyph glyph-name="bracketright" unicode="]" horiz-adv-x="290" 
d="M45 -32v-42h148v860h-148v-42h100v-776h-100z" />
    <glyph glyph-name="asciicircum" unicode="^" 
d="M257 664l130 -242h51l-158 296h-46l-158 -296h51z" />
    <glyph glyph-name="underscore" unicode="_" 
d="M0 -122v-38h514v38h-514z" />
    <glyph glyph-name="grave" unicode="`" horiz-adv-x="500" 
d="M133 737l106 -147h58l-97 147h-67z" />
    <glyph glyph-name="a" unicode="a" horiz-adv-x="524" 
d="M380 48v-48h51v330q0 76 -45 117q-44 41 -142 41q-61 0 -100 -16q-39 -15 -70 -58l37 -32q25 34 53 47q28 14 80 14q76 0 106 -30q30 -29 30 -88v-54h-156q-80 0 -124 -37q-44 -35 -44 -102q0 -26 9 -52q9 -23 26 -42q24 -24 56 -34q37 -10 86 -10q51 0 84 12t63 42z
M230 230h150v-62q0 -66 -27 -92q-27 -25 -57 -31t-63 -6q-65 0 -96 23q-30 24 -30 71q0 97 123 97z" />
    <glyph glyph-name="b" unicode="b" horiz-adv-x="540" 
d="M471 241q0 60 -13 113q-12 56 -49 92q-17 18 -50 31q-28 11 -68 11q-42 0 -77 -13q-31 -11 -66 -55v292h-51v-712h51v62q33 -42 67 -55q39 -13 76 -13q39 0 69 12q31 12 49 30q38 38 50 93q12 51 12 112zM420 241q0 -44 -5 -74q-5 -36 -19 -65q-15 -29 -41 -46
q-25 -17 -71 -17q-44 0 -71 18t-42 46q-13 25 -19 64q-4 32 -4 74q0 34 5 74q7 42 19 65q14 28 41 46q25 17 71 17q44 0 71 -18q29 -19 42 -46q15 -28 19 -65q4 -24 4 -73z" />
    <glyph glyph-name="c" unicode="c" horiz-adv-x="493" 
d="M440 68l-35 32q-30 -32 -59 -48q-26 -13 -65 -13q-84 0 -128 64q-17 25 -26 58q-7 31 -7 80q0 47 8 81q10 35 25 57q43 64 128 64q41 0 66 -14q29 -14 58 -47l35 32q-38 44 -74 59q-33 15 -85 15t-89 -17q-39 -16 -67 -49q-27 -32 -42 -78q-14 -42 -14 -103
q0 -57 15 -103q15 -45 42 -78q29 -32 66 -49q40 -17 89 -17q47 0 85 16q38 17 74 58z" />
    <glyph glyph-name="d" unicode="d" horiz-adv-x="540" 
d="M392 62v-62h51v712h-51v-292q-33 44 -67 55q-33 13 -76 13q-37 0 -69 -12q-32 -13 -49 -30q-37 -37 -50 -93q-12 -55 -12 -112q0 -51 13 -113q13 -55 49 -92q21 -19 50 -31q29 -11 68 -11q40 0 77 13q34 13 66 55zM392 241q0 -44 -5 -74q-5 -36 -19 -65q-15 -29 -41 -46
q-25 -17 -71 -17q-44 0 -71 18t-42 46q-13 25 -19 64q-4 32 -4 74q0 34 5 74q7 42 19 65q14 28 41 46q26 17 71 17q44 0 71 -18q29 -19 42 -46q15 -28 19 -65q4 -24 4 -73z" />
    <glyph glyph-name="e" unicode="e" horiz-adv-x="523" 
d="M120 230h335v23q0 113 -51 174q-49 61 -142 61q-92 0 -142 -65q-51 -65 -51 -182q0 -120 53 -184q54 -63 152 -63q27 0 54 5q30 7 45 14q25 13 39 23q17 13 36 32l-38 30q-29 -29 -61 -45q-29 -13 -72 -13q-77 0 -118 49q-39 49 -39 141zM404 271h-284q2 18 3 30
q1 5 2 13t1 9q1 3 2 9t2 9l7 21q16 39 50 60q32 21 75 21q44 0 76 -22q34 -21 49 -59q3 -6 8 -20q4 -12 5 -19q2 -6 2 -23q2 -16 2 -29z" />
    <glyph glyph-name="f" unicode="f" horiz-adv-x="304" 
d="M163 0v444h109v38h-109v105q0 38 18 59t56 21h35v45h-44q-57 0 -87 -36q-29 -35 -29 -90v-104h-66v-38h66v-444h51z" />
    <glyph glyph-name="g" unicode="g" horiz-adv-x="540" 
d="M443 -27v509h-51v-62q-33 44 -67 55q-33 13 -76 13q-37 0 -69 -12q-32 -13 -49 -30q-37 -37 -50 -93q-12 -55 -12 -112q0 -51 13 -113q13 -55 49 -92q21 -19 50 -31q29 -11 68 -11q40 0 77 13q34 13 66 55v-86q0 -36 -9 -67t-26 -53q-17 -21 -46 -35q-27 -12 -65 -12
q-16 0 -40 4q-19 5 -31 10q-18 10 -27 16l-27 23l-34 -34q24 -20 36 -29q12 -8 36 -20q21 -8 39 -12q21 -3 48 -3q46 0 84 16q37 16 62 43q26 27 38 67q13 38 13 83zM392 241q0 -44 -5 -74q-5 -36 -19 -65q-15 -29 -41 -46q-25 -17 -71 -17q-44 0 -71 18t-42 46
q-13 25 -19 64q-4 32 -4 74q0 34 5 74q7 42 19 65q14 28 41 46q26 17 71 17q44 0 71 -18q29 -19 42 -46q15 -28 19 -65q4 -24 4 -73z" />
    <glyph glyph-name="h" unicode="h" horiz-adv-x="559" 
d="M417 299v-299h51v308q0 86 -47 133q-46 47 -131 47q-88 0 -142 -63v287h-51v-712h51v299q0 69 35 107q34 37 101 37t100 -37q33 -34 33 -107z" />
    <glyph glyph-name="i" unicode="i" horiz-adv-x="245" 
d="M97 482v-482h51v482h-51zM91 712v-63h63v63h-63z" />
    <glyph glyph-name="j" unicode="j" horiz-adv-x="245" 
d="M148 -105v587h-51v-586q0 -42 -16 -62q-15 -19 -58 -19h-35v-45h44q60 0 88 34t28 91zM91 712v-63h63v63h-63z" />
    <glyph glyph-name="k" unicode="k" horiz-adv-x="527" 
d="M258 265l166 -265h63l-194 302l159 180h-65l-239 -272v502h-51v-712h51v138z" />
    <glyph glyph-name="l" unicode="l" horiz-adv-x="287" 
d="M211 0h44v45h-35q-42 0 -59 20q-15 21 -15 61v586h-51v-587q0 -55 28 -91q29 -34 88 -34z" />
    <glyph glyph-name="m" unicode="m" horiz-adv-x="878" 
d="M737 299v-299h50v308q0 87 -50 134q-22 22 -55 34q-32 12 -72 12q-56 0 -96 -23q-41 -22 -68 -65q-21 43 -62 66q-36 22 -93 22q-89 0 -143 -63v57h-51v-482h51v299q0 69 35 107q34 37 101 37t100 -37q33 -34 33 -107v-299h51v308q0 62 37 99q37 36 99 36q67 0 100 -37
q33 -34 33 -107z" />
    <glyph glyph-name="n" unicode="n" horiz-adv-x="559" 
d="M417 299v-299h51v308q0 87 -50 134q-46 46 -128 46q-88 0 -142 -63v57h-51v-482h51v299q0 69 35 107q34 37 101 37t100 -37q33 -34 33 -107z" />
    <glyph glyph-name="o" unicode="o" horiz-adv-x="526" 
d="M457 241q0 57 -11 104q-11 53 -49 90q-52 53 -134 53q-81 0 -134 -53q-37 -37 -49 -90q-11 -53 -11 -104q0 -49 11 -104q12 -52 49 -90q55 -53 134 -53q81 0 134 53q38 38 49 90q11 48 11 104zM406 241q0 -28 -1 -43q0 -22 -6 -44q-5 -22 -13 -40q-11 -22 -23 -34
q-41 -41 -100 -41q-57 0 -100 41q-14 14 -24 34q-3 7 -13 41q-3 15 -5 43q0 8 -0.5 22t-0.5 21t0.5 21.5t0.5 21.5q2 23 6 44q8 30 13 40q9 20 23 34q41 41 100 41q60 0 100 -41q15 -15 24 -34q8 -16 13 -41q5 -17 5 -43q1 -14 1 -43z" />
    <glyph glyph-name="p" unicode="p" horiz-adv-x="540" 
d="M471 241q0 60 -13 113q-12 56 -49 92q-17 18 -50 31q-28 11 -68 11q-42 0 -77 -13q-31 -11 -66 -55v62h-51v-712h51v292q33 -42 67 -55q39 -13 76 -13q39 0 69 12q31 12 49 30q38 38 50 93q12 51 12 112zM420 241q0 -44 -5 -74q-5 -36 -19 -65q-15 -29 -41 -46
q-25 -17 -71 -17q-44 0 -71 18t-42 46q-13 25 -19 64q-4 32 -4 74q0 34 5 74q7 42 19 65q14 28 41 46q25 17 71 17q44 0 71 -18q29 -19 42 -46q15 -28 19 -65q4 -24 4 -73z" />
    <glyph glyph-name="q" unicode="q" horiz-adv-x="540" 
d="M392 62v-292h51v712h-51v-62q-33 44 -67 55q-33 13 -76 13q-37 0 -69 -12q-32 -13 -49 -30q-37 -37 -50 -93q-12 -55 -12 -112q0 -51 13 -113q13 -55 49 -92q21 -19 50 -31q29 -11 68 -11q40 0 77 13q34 13 66 55zM392 241q0 -44 -5 -74q-5 -36 -19 -65q-15 -29 -41 -46
q-25 -17 -71 -17q-44 0 -71 18t-42 46q-13 25 -19 64q-4 32 -4 74q0 34 5 74q7 42 19 65q14 28 41 46q26 17 71 17q44 0 71 -18q29 -19 42 -46q15 -28 19 -65q4 -24 4 -73z" />
    <glyph glyph-name="r" unicode="r" horiz-adv-x="409" 
d="M368 405l37 37q-25 27 -54 36q-26 10 -62 10q-43 0 -82 -18q-38 -18 -59 -52v64h-51v-482h51v297q0 29 9 56t25 46q18 21 40 32q24 12 55 12q33 0 50 -8q20 -7 41 -30z" />
    <glyph glyph-name="s" unicode="s" horiz-adv-x="494" 
d="M438 137q0 37 -11 58q-10 23 -30 37q-18 15 -44 21q-23 7 -56 10l-78 7q-51 6 -75 24q-23 19 -23 57q0 45 32 69q33 24 91 24q81 0 135 -41l34 34q-33 25 -75 38q-36 13 -94 13q-79 0 -126 -37q-47 -36 -47 -100q0 -114 145 -126l80 -7q49 -5 70 -24q22 -18 22 -57
q0 -98 -145 -98q-101 0 -158 59l-35 -35q37 -34 85 -52q49 -17 110 -17q91 0 142 39q51 38 51 104z" />
    <glyph glyph-name="t" unicode="t" horiz-adv-x="325" 
d="M225 0h44v45h-35q-38 0 -56 21t-18 59v319h109v38h-109v154h-51v-154h-66v-38h66v-318q0 -55 30 -91q29 -35 86 -35z" />
    <glyph glyph-name="u" unicode="u" horiz-adv-x="559" 
d="M411 57v-57h51v482h-51v-299q0 -69 -35 -107q-34 -37 -101 -37q-65 0 -100 37q-33 38 -33 107v299h-51v-308q0 -86 50 -134q49 -46 128 -46q88 0 142 63z" />
    <glyph glyph-name="v" unicode="v" horiz-adv-x="430" 
d="M190 0h50l176 482h-56l-145 -422l-145 422h-56z" />
    <glyph glyph-name="w" unicode="w" horiz-adv-x="712" 
d="M492 0h52l154 482h-56l-123 -422l-138 422h-50l-138 -422l-123 422h-56l154 -482h52l136 402z" />
    <glyph glyph-name="x" unicode="x" horiz-adv-x="460" 
d="M231 203l127 -203h62l-163 246l156 236h-62l-120 -194l-122 194h-62l156 -236l-163 -246h62z" />
    <glyph glyph-name="y" unicode="y" horiz-adv-x="430" 
d="M192 -131l224 613h-56l-145 -422l-145 422h-56l176 -482l-39 -107q-6 -19 -13 -31q-5 -10 -17 -20q-9 -8 -24 -12q-13 -3 -34 -3h-19v-45h24q21 0 49 7q23 7 42 24q19 16 33 56z" />
    <glyph glyph-name="z" unicode="z" horiz-adv-x="452" 
d="M54 48v-48h344v45h-291l291 389v48h-328v-45h274z" />
    <glyph glyph-name="braceleft" unicode="{" horiz-adv-x="316" 
d="M252 -74h14v45h-13q-27 0 -39 3q-11 3 -20 10q-8 10 -11 23q-3 15 -3 42v207q0 40 -15 62q-15 24 -46 38q31 16 47 39q14 22 14 61v207q0 28 3 43q3 14 11 22t20 11q8 2 39 2h13v45h-14q-36 0 -60 -6q-22 -6 -37 -21q-14 -14 -20 -34q-6 -19 -6 -61v-207q0 -42 -18 -60
q-9 -9 -19 -14q-9 -5 -24 -5h-18v-44h18q14 0 25 -6q12 -6 18 -13q18 -18 18 -60v-207q0 -40 6 -61q6 -18 20 -34q15 -15 38 -21q24 -6 59 -6z" />
    <glyph glyph-name="bar" unicode="|" horiz-adv-x="317" 
d="M133 786v-860h51v860h-51z" />
    <glyph glyph-name="braceright" unicode="}" horiz-adv-x="316" 
d="M248 334h18v44h-18q-13 0 -25 6q-8 4 -18 13q-18 18 -18 60v207q0 42 -6 61q-6 22 -20 34q-15 15 -38 21t-59 6h-14v-45h13q27 0 39 -3q15 -4 20 -10q8 -6 11 -23q3 -15 3 -42v-207q0 -38 15 -62q14 -21 46 -38q-32 -15 -47 -39q-14 -21 -14 -61v-207q0 -28 -3 -43
q-3 -14 -11 -22t-20 -11q-8 -2 -39 -2h-13v-45h14q38 0 60 6q21 5 37 21q14 14 20 34q6 21 6 61v207q0 42 18 60q7 7 19 14q10 5 24 5z" />
    <glyph glyph-name="asciitilde" unicode="~" 
d="M461 277l-31 31q-18 -18 -26 -24q-4 -3 -20 -14l-6 -2t-6.5 -2t-5.5 -2q-6 -1 -19 -1q-17 0 -38 7l-38 16q-29 13 -52 21q-23 10 -50 10q-19 0 -27 -2q-11 -1 -25 -9q-15 -7 -29 -19q-15 -12 -35 -32l31 -31q12 12 26 24q16 12 20 14q6 4 18 6q3 1 19 1q21 0 38 -7
q3 -1 38 -16q36 -14 52 -21q28 -10 50 -10q11 0 27 2q14 3 25 9q17 10 29 19q17 13 35 32z" />
    <glyph glyph-name="uni008E" horiz-adv-x="559" 
d="M63 57v-57h433v48h-378l378 616v48h-418v-48h360zM260 780h54l123 147h-57l-93 -109l-93 109h-57z" />
    <glyph glyph-name="uni008E" unicode="&#x17d;" horiz-adv-x="559" 
d="M63 57v-57h433v48h-378l378 616v48h-418v-48h360zM260 780h54l123 147h-57l-93 -109l-93 109h-57z" />
    <glyph glyph-name="uni009E" horiz-adv-x="452" 
d="M54 48v-48h344v45h-291l291 389v48h-328v-45h274zM207 590h54l123 147h-57l-93 -109l-93 109h-57z" />
    <glyph glyph-name="uni009E" unicode="&#x17e;" horiz-adv-x="452" 
d="M54 48v-48h344v45h-291l291 389v48h-328v-45h274zM207 590h54l123 147h-57l-93 -109l-93 109h-57z" />
    <glyph glyph-name="nbspace" unicode="&#xa0;" horiz-adv-x="255" 
 />
    <glyph glyph-name="exclamdown" unicode="&#xa1;" horiz-adv-x="304" 
d="M113 290l-3 -520h55l-3 520h-49zM104 482v-67h67v67h-67z" />
    <glyph glyph-name="cent" unicode="&#xa2;" horiz-adv-x="498" 
d="M440 193l-35 32q-28 -30 -54 -46q-21 -12 -59 -15v404q36 -2 59 -16q28 -15 54 -45l35 32q-36 41 -70 56q-33 17 -78 18v99h-43v-101q-85 -11 -133 -75q-47 -62 -47 -170q0 -106 48 -170q48 -63 132 -75v-121h43v119q19 1 42 5q20 5 37 13q18 9 34 22t35 34zM249 565
v-398q-60 11 -96 61q-17 25 -26 58q-7 31 -7 80q0 47 8 81q10 35 25 57q37 52 96 61z" />
    <glyph glyph-name="sterling" unicode="&#xa3;" horiz-adv-x="537" 
d="M114 342v-342h368v48h-314v294h158v38h-158v111q0 87 40 133t118 46q48 0 73 -15q28 -15 46 -35l37 37q-60 61 -156 61q-49 0 -88 -16q-40 -15 -67 -44q-28 -29 -42 -68q-15 -39 -15 -88v-122h-64v-38h64z" />
    <glyph glyph-name="currency" unicode="&#xa4;" horiz-adv-x="657" 
d="M465 96l75 -74l32 32l-74 74q22 26 35 63q12 36 12 74q0 39 -12 75q-13 38 -35 63l74 73l-32 32l-75 -73q-25 22 -63 35q-34 12 -74 12q-38 0 -74 -12q-37 -13 -63 -35l-74 73l-32 -32l74 -73q-22 -26 -36 -64q-12 -36 -12 -74q0 -80 48 -137l-74 -74l32 -32l74 74
q57 -48 137 -48t137 48zM497 265q0 -36 -13 -66q-12 -30 -36 -54q-22 -23 -54 -36t-66 -13q-32 0 -66 13q-30 13 -54 36q-22 24 -36 54q-13 34 -13 66q0 34 13 66q14 31 36 54q24 24 54 36q30 13 66 13q37 0 66 -13q32 -12 54 -36q24 -23 36 -54q13 -29 13 -66z" />
    <glyph glyph-name="yen" unicode="&#xa5;" horiz-adv-x="493" 
d="M428 386h-108l163 326h-56l-179 -361l-181 361h-57l164 -326h-109v-38h128l27 -53v-53h-155v-38h155v-204h54v204h154v38h-154v53l27 53h127v38z" />
    <glyph glyph-name="brokenbar" unicode="&#xa6;" horiz-adv-x="328" 
d="M133 276v-350h51v350h-51zM133 786v-350h51v350h-51z" />
    <glyph glyph-name="section" unicode="&#xa7;" horiz-adv-x="566" 
d="M469 247q0 66 -36 114q-36 49 -98 67l-83 23q-37 12 -65 36q-26 26 -26 71q0 58 33 85q32 28 89 28q55 0 88 -24t37 -80h53q-1 36 -17 65q-14 28 -39 47q-25 21 -56 29q-30 10 -66 10q-38 0 -68 -11q-31 -10 -56 -32q-21 -19 -37 -50q-14 -31 -14 -67q0 -54 26 -88
q27 -33 73 -53q-20 -8 -42 -26q-20 -15 -35 -38q-15 -21 -24 -48t-9 -58q0 -65 35 -115q36 -48 99 -66l83 -23q44 -12 69 -42q25 -28 25 -70q0 -58 -34 -89q-33 -30 -91 -30q-57 0 -91 27q-33 27 -39 80h-54q3 -36 18 -66q14 -26 40 -49q23 -17 56 -30q31 -10 70 -10
q36 0 72 13q34 14 57 34q25 24 37 53q13 30 13 67q0 55 -28 92q-27 39 -75 54q21 10 42 26q18 14 35 38q16 24 24 48q9 27 9 58zM415 247q0 -35 -9 -59q-9 -23 -26 -42q-38 -41 -97 -41q-58 0 -97 41q-17 18 -26 43t-9 58q0 30 8 56q10 27 27 45q38 41 97 41q57 0 97 -41
q23 -21 29 -47q6 -19 6 -54z" />
    <glyph glyph-name="dieresis" unicode="&#xa8;" horiz-adv-x="500" 
d="M117 677v-77h58v77h-58zM325 677v-77h58v77h-58z" />
    <glyph glyph-name="copyright" unicode="&#xa9;" horiz-adv-x="894" 
d="M809 356q0 77 -29 141q-30 69 -77 115q-47 49 -115 78q-62 28 -141 28q-77 0 -141 -29q-67 -29 -115 -77q-47 -47 -78 -115q-28 -65 -28 -141q0 -74 29 -141q30 -67 77 -115q50 -48 115 -78q65 -28 141 -28q74 0 141 29q70 32 115 77q50 50 78 115q28 62 28 141zM761 356
q0 -66 -25 -123q-23 -54 -68 -101q-40 -41 -100 -69q-56 -25 -121 -25q-64 0 -122 26q-59 28 -100 69q-42 45 -67 101q-25 61 -25 122q0 63 25 122q25 58 68 102q42 44 99 69q53 25 122 25q67 0 122 -26q60 -26 100 -69q43 -43 67 -101q25 -56 25 -122zM582 202l-30 30
q-27 -24 -49 -33q-19 -8 -52 -8q-36 0 -64 14q-26 15 -40 36q-15 24 -22 52q-6 30 -6 63q0 28 7 63q9 34 21 53q14 23 41 37q23 13 63 13q31 0 52 -9q22 -9 49 -33l30 30q-31 29 -60 41q-25 12 -71 12q-47 0 -80 -17q-34 -17 -55 -45q-20 -27 -32 -66q-10 -36 -10 -79
q0 -39 11 -80q12 -38 32 -65q23 -27 55 -45q33 -16 79 -16q39 0 72 13q31 14 59 39z" />
    <glyph glyph-name="ordfeminine" unicode="&#xaa;" horiz-adv-x="447" 
d="M313 363v-36h43v262q0 60 -37 93q-36 33 -111 33q-46 0 -78 -13q-32 -12 -58 -47l32 -27q18 27 41 38q20 10 63 10q58 0 81 -23q24 -23 24 -68v-42h-121q-63 0 -98 -29t-35 -82q0 -18 7 -42q6 -17 21 -33q19 -19 45 -28q25 -7 67 -7q40 0 65 9q23 8 49 32zM197 508h116
v-47q0 -52 -20 -72q-19 -18 -44 -24q-21 -4 -50 -4q-50 0 -74 18q-23 18 -23 54q0 75 95 75z" />
    <glyph glyph-name="guillemotleft" unicode="&#xab;" horiz-adv-x="527" 
d="M238 461l-196 -196l196 -196v66l-130 130l130 130v66zM445 461l-196 -196l196 -196v66l-130 130l130 130v66z" />
    <glyph glyph-name="logicalnot" unicode="&#xac;" 
d="M414 240v-133h47v180h-408v-47h361z" />
    <glyph glyph-name="sfthyphen" unicode="&#xad;" horiz-adv-x="426" 
d="M82 287v-47h262v47h-262z" />
    <glyph glyph-name="registered" unicode="&#xae;" horiz-adv-x="894" 
d="M809 356q0 77 -29 141q-30 69 -77 115q-47 49 -115 78q-62 28 -141 28q-77 0 -141 -29q-67 -29 -115 -77q-47 -47 -78 -115q-28 -65 -28 -141q0 -74 29 -141q30 -67 77 -115q50 -48 115 -78q65 -28 141 -28q74 0 141 29q70 32 115 77q50 50 78 115q28 62 28 141zM762 356
q0 -66 -25 -123q-24 -56 -68 -102q-40 -41 -100 -69q-56 -25 -122 -25q-63 0 -123 26q-59 28 -100 69q-42 45 -67 101q-25 61 -25 123q0 64 25 123q25 58 68 102q41 43 100 69q54 25 122 25t123 -26q60 -26 100 -69q43 -43 67 -101q25 -56 25 -123zM444 323l99 -167h52
l-101 171q40 12 66 39q25 26 25 73q0 27 -10 47q-9 23 -27 38q-14 14 -40 24q-22 9 -47 9h-128v-401h45v167h66zM540 439q0 -33 -24 -55q-24 -21 -60 -21h-78v153h78q37 0 60 -22q24 -21 24 -55z" />
    <glyph glyph-name="macron" unicode="&#xaf;" horiz-adv-x="500" 
d="M102 654v-46h296v46h-296z" />
    <glyph glyph-name="degree" unicode="&#xb0;" horiz-adv-x="458" 
d="M386 562q0 35 -13 62q-11 27 -33 49q-23 23 -50 34q-25 12 -61 12q-33 0 -62 -13q-28 -12 -49 -33t-34 -50q-12 -29 -12 -61q0 -30 13 -62q14 -30 33 -49q20 -20 50 -34q30 -12 61 -12t62 13q29 13 49 33q22 22 34 50q12 27 12 61zM341 562q0 -25 -9 -46q-9 -22 -23 -37
q-15 -15 -36 -24q-19 -8 -44 -8q-24 0 -45 9q-19 8 -35 24q-16 18 -24 36q-8 19 -8 46q0 25 9 46q11 24 23 37q13 15 35 24q19 8 44 8q24 0 45 -9q22 -9 36 -25q14 -13 24 -36q8 -19 8 -45z" />
    <glyph glyph-name="plusminus" unicode="&#xb1;" 
d="M281 88v182h180v47h-180v181h-47v-181h-181v-47h181v-182h47zM53 47v-47h408v47h-408z" />
    <glyph glyph-name="twosuperior" unicode="&#xb2;" horiz-adv-x="336" 
d="M50 325v-40h236v40h-183l149 188q19 25 26 42q8 17 8 45q0 56 -32 85q-31 31 -86 31q-53 0 -86 -33q-32 -34 -32 -83h44q0 42 23 59t51 17q36 0 54 -21q19 -20 19 -55q0 -32 -23 -62z" />
    <glyph glyph-name="threesuperior" unicode="&#xb3;" horiz-adv-x="352" 
d="M302 402q0 79 -65 103q57 25 57 95q0 56 -32 85q-31 31 -86 31q-50 0 -83 -29q-32 -28 -37 -81h44q3 32 23 51t53 19t53 -20q21 -18 21 -57q0 -37 -19 -57q-17 -20 -57 -20h-8v-39h8q46 0 65 -22q19 -19 19 -59q0 -39 -23 -61q-23 -21 -58 -21q-30 0 -56 17
q-23 17 -26 57h-45q2 -28 12 -51q12 -22 27 -35q18 -14 40 -21q28 -7 48 -7q25 0 49 8q23 9 40 24q19 17 27 38q9 21 9 52z" />
    <glyph glyph-name="acute" unicode="&#xb4;" horiz-adv-x="500" 
d="M203 590h58l106 147h-67z" />
    <glyph glyph-name="mu" unicode="&#xb5;" horiz-adv-x="556" 
d="M408 57v-57h51v482h-51v-299q0 -69 -35 -107q-34 -37 -101 -37q-65 0 -100 37q-33 38 -33 107v299h-51v-712h51v269q48 -45 127 -45q88 0 142 63z" />
    <glyph glyph-name="paragraph" unicode="&#xb6;" horiz-adv-x="579" 
d="M418 664v-894h51v942h-213q-52 0 -91 -16q-37 -14 -66 -43q-26 -26 -41 -60q-13 -32 -13 -71q0 -32 13 -69q14 -35 39 -61q26 -26 62 -44q36 -16 85 -16v-562h51v894h123z" />
    <glyph glyph-name="periodcentered" unicode="&#xb7;" horiz-adv-x="264" 
d="M95 301v-74h74v74h-74z" />
    <glyph glyph-name="cedilla" unicode="&#xb8;" horiz-adv-x="500" 
d="M181 -220h63l64 150h-55z" />
    <glyph glyph-name="onesuperior" unicode="&#xb9;" horiz-adv-x="249" 
d="M125 663v-378h44v427h-44l-80 -69v-51z" />
    <glyph glyph-name="ordmasculine" unicode="&#xba;" horiz-adv-x="452" 
d="M380 519q0 43 -9 83q-9 43 -39 71q-42 42 -106 42t-106 -42q-31 -31 -40 -72q-8 -36 -8 -82q0 -41 9 -83q9 -39 39 -71q42 -42 106 -42t106 42q31 31 40 72q8 37 8 82zM337 519q0 -37 -5 -67q-4 -34 -28 -58q-16 -16 -35 -24q-17 -8 -43 -8q-22 0 -43 9q-22 10 -35 23
q-22 23 -28 58q-5 40 -5 67q0 29 5 67q6 36 28 58q32 32 78 32q47 0 78 -32q24 -22 28 -58q5 -29 5 -67z" />
    <glyph glyph-name="guillemotright" unicode="&#xbb;" horiz-adv-x="527" 
d="M82 135v-66l196 196l-196 196v-66l130 -130zM289 135v-66l196 196l-196 196v-66l130 -130z" />
    <glyph glyph-name="onequarter" unicode="&#xbc;" horiz-adv-x="756" 
d="M664 0v67h52v40h-52v120h-44v-120h-122l153 320h-47l-154 -320v-40h170v-67h44zM168 0h45l332 712h-45zM125 663v-378h44v427h-44l-80 -69v-51z" />
    <glyph glyph-name="onehalf" unicode="&#xbd;" horiz-adv-x="764" 
d="M478 40v-40h236v40h-183l149 188q15 20 26 42q8 17 8 45q0 56 -32 85q-31 31 -86 31q-53 0 -86 -33q-32 -34 -32 -83h44q0 42 23 59t51 17q36 0 54 -21q19 -20 19 -55q0 -32 -23 -62zM153 0h45l332 712h-45zM125 663v-378h44v427h-44l-80 -69v-51z" />
    <glyph glyph-name="threequarters" unicode="&#xbe;" horiz-adv-x="806" 
d="M302 402q0 79 -65 103q57 25 57 95q0 56 -32 85q-31 31 -86 31q-50 0 -83 -29q-32 -28 -37 -81h44q3 32 23 51t53 19t53 -20q21 -18 21 -57q0 -37 -19 -57q-17 -20 -57 -20h-8v-39h8q46 0 65 -22q19 -19 19 -59q0 -39 -23 -61q-23 -21 -58 -21q-30 0 -56 17
q-23 17 -26 57h-45q2 -28 12 -51q12 -22 27 -35q18 -14 40 -21q28 -7 48 -7q25 0 49 8q23 9 40 24q19 17 27 38q9 21 9 52zM714 0v67h52v40h-52v120h-44v-120h-122l153 320h-47l-154 -320v-40h170v-67h44zM228 0h45l332 712h-45z" />
    <glyph glyph-name="questiondown" unicode="&#xbf;" horiz-adv-x="488" 
d="M408 -60h-51q0 -26 -9 -50q-10 -26 -26 -42q-15 -17 -40 -29q-23 -10 -53 -10q-24 0 -51 10q-23 10 -41 28q-16 16 -27 41q-9 24 -9 52q0 27 10 49q14 28 24 43l84 124q17 25 22 42q7 20 7 48v45h-51v-47q0 -13 -4 -29q-3 -15 -14 -31l-85 -125q-21 -30 -32 -57
q-12 -27 -12 -62q0 -36 14 -70q17 -36 37 -56t57 -37q32 -13 71 -13t73 14q35 16 57 38q24 24 36 56q13 32 13 68zM189 482v-67h67v67h-67z" />
    <glyph glyph-name="Agrave" unicode="&#xc0;" horiz-adv-x="602" 
d="M467 173l62 -173h58l-262 712h-48l-262 -712h58l62 173h332zM152 221l149 419l149 -419h-298zM185 927l106 -147h58l-97 147h-67z" />
    <glyph glyph-name="Aacute" unicode="&#xc1;" horiz-adv-x="602" 
d="M467 173l62 -173h58l-262 712h-48l-262 -712h58l62 173h332zM152 221l149 419l149 -419h-298zM255 780h58l106 147h-67z" />
    <glyph glyph-name="Acircumflex" unicode="&#xc2;" horiz-adv-x="602" 
d="M467 173l62 -173h58l-262 712h-48l-262 -712h58l62 173h332zM152 221l149 419l149 -419h-298zM302 889l93 -109h57l-123 147h-54l-123 -147h57z" />
    <glyph glyph-name="Atilde" unicode="&#xc3;" horiz-adv-x="602" 
d="M467 173l62 -173h58l-262 712h-48l-262 -712h58l62 173h332zM152 221l149 419l149 -419h-298zM451 843l-30 29q-22 -22 -36 -28q-13 -5 -23 -5q-14 0 -28 6q-6 3 -28 15q-18 12 -33 18q-12 6 -36 6q-10 0 -16 -1q-7 0 -19 -6q-10 -4 -24 -14q-9 -6 -30 -27l30 -29
q24 24 35 28q10 5 24 5q16 0 29 -7q15 -6 27 -14l33 -17q19 -7 36 -7q2 0 7 0.5t8 0.5q8 1 19 6q16 8 25 14q10 7 30 27z" />
    <glyph glyph-name="Adieresis" unicode="&#xc4;" horiz-adv-x="602" 
d="M467 173l62 -173h58l-262 712h-48l-262 -712h58l62 173h332zM152 221l149 419l149 -419h-298zM169 867v-77h58v77h-58zM376 867v-77h58v77h-58z" />
    <glyph glyph-name="Aring" unicode="&#xc5;" horiz-adv-x="602" 
d="M467 173l62 -173h58l-262 712h-48l-262 -712h58l62 173h332zM152 221l149 419l149 -419h-298zM415 861q0 24 -9 45q-9 22 -25 36q-13 14 -36 24q-21 9 -44 9q-24 0 -45 -9q-19 -8 -36 -25q-15 -15 -24 -36t-9 -44q0 -24 9 -45q7 -16 25 -36q20 -18 36 -25q21 -9 44 -9
q24 0 45 9q19 8 36 25q14 14 24 37q9 21 9 44zM374 861q0 -30 -22 -52q-21 -21 -51 -21q-28 0 -52 22q-21 22 -21 51t22 51q22 21 51 21q31 0 52 -21q21 -20 21 -51z" />
    <glyph glyph-name="AE" unicode="&#xc6;" horiz-adv-x="901" 
d="M414 173v-173h431v48h-378v284h322v48h-322v284h378v48h-458l-377 -712h59l90 173h255zM182 221l232 443v-443h-232z" />
    <glyph glyph-name="Ccedilla" unicode="&#xc7;" horiz-adv-x="644" 
d="M568 202h-53q-15 -73 -67 -118q-51 -42 -122 -42q-36 0 -73 14q-37 16 -62 41q-17 19 -30 41q-12 25 -17 51q-3 14 -7 70q-1 28 -1 97q0 44 2 98q4 54 7 70q6 32 16 51q11 21 30 40q28 27 62 41t73 14q73 0 122 -43q50 -41 65 -117h55q-18 98 -82 153q-61 55 -160 55
q-52 0 -97 -19q-45 -18 -81 -54q-23 -23 -38 -50q-12 -22 -20 -59q-5 -30 -7 -77q0 -13 -0.5 -47.5t-0.5 -55.5t0.5 -55.5t0.5 -48.5q1 -39 8 -76q8 -35 20 -59q19 -32 37 -50q36 -35 81 -54q49 -19 97 -19t88 15q41 15 72 41q29 24 52 66q21 40 30 86zM239 -220h63l64 150
h-55z" />
    <glyph glyph-name="Egrave" unicode="&#xc8;" horiz-adv-x="598" 
d="M110 712v-712h432v48h-378v287h322v48h-322v281h378v48h-432zM198 927l106 -147h58l-97 147h-67z" />
    <glyph glyph-name="Eacute" unicode="&#xc9;" horiz-adv-x="598" 
d="M110 712v-712h432v48h-378v287h322v48h-322v281h378v48h-432zM268 780h58l106 147h-67z" />
    <glyph glyph-name="Ecircumflex" unicode="&#xca;" horiz-adv-x="598" 
d="M110 712v-712h432v48h-378v287h322v48h-322v281h378v48h-432zM315 889l93 -109h57l-123 147h-54l-123 -147h57z" />
    <glyph glyph-name="Edieresis" unicode="&#xcb;" horiz-adv-x="598" 
d="M110 712v-712h432v48h-378v287h322v48h-322v281h378v48h-432zM182 867v-77h58v77h-58zM389 867v-77h58v77h-58z" />
    <glyph glyph-name="Igrave" unicode="&#xcc;" horiz-adv-x="274" 
d="M110 712v-712h54v712h-54zM28 927l106 -147h58l-97 147h-67z" />
    <glyph glyph-name="Iacute" unicode="&#xcd;" horiz-adv-x="274" 
d="M110 712v-712h54v712h-54zM111 780h58l106 147h-67z" />
    <glyph glyph-name="Icircumflex" unicode="&#xce;" horiz-adv-x="274" 
d="M110 712v-712h54v712h-54zM140 889l93 -109h57l-123 147h-54l-123 -147h57z" />
    <glyph glyph-name="Idieresis" unicode="&#xcf;" horiz-adv-x="274" 
d="M110 712v-712h54v712h-54zM5 867v-77h58v77h-58zM212 867v-77h58v77h-58z" />
    <glyph glyph-name="Eth" unicode="&#xd0;" horiz-adv-x="689" 
d="M607 356q0 74 -2 99q-2 44 -5 62q-3 24 -12 42q-7 18 -19 38q-34 58 -86 86q-51 29 -122 29h-240v-332h-81v-42h81v-338h233q78 0 132 33q53 33 83 80q12 18 18 33q8 17 12 41q4 19 6 65q2 27 2 104zM553 351q0 -64 -1 -88q0 -37 -4 -58q-3 -26 -10 -42q-4 -13 -19 -35
q-26 -41 -72 -62q-42 -19 -100 -19h-172v291h178v42h-178v285h172q57 0 94 -17q40 -16 72 -62q16 -21 23 -40q9 -20 12 -46q5 -28 5 -62v-87z" />
    <glyph glyph-name="Ntilde" unicode="&#xd1;" horiz-adv-x="739" 
d="M164 619l411 -619h54v712h-54v-617l-411 617h-54v-712h54v619zM519 843l-30 29q-22 -22 -36 -28q-13 -5 -23 -5q-14 0 -28 6q-6 3 -28 15q-18 12 -33 18q-12 6 -36 6q-10 0 -16 -1q-7 0 -19 -6q-10 -4 -24 -14q-9 -6 -30 -27l30 -29q24 24 35 28q10 5 24 5q16 0 29 -7
q15 -6 27 -14l33 -17q19 -7 36 -7q2 0 7 0.5t8 0.5q8 1 19 6q16 8 25 14q10 7 30 27z" />
    <glyph glyph-name="Ograve" unicode="&#xd2;" horiz-adv-x="652" 
d="M570 356q0 75 -1 104q0 41 -8 76q-7 36 -20 59q-13 26 -37 50q-34 36 -81 54q-44 19 -97 19q-52 0 -97 -19q-45 -18 -81 -54q-23 -23 -38 -50q-12 -22 -20 -59q-5 -30 -7 -77q0 -13 -0.5 -47.5t-0.5 -55.5t0.5 -55.5t0.5 -48.5q1 -39 8 -76q8 -35 20 -59q19 -32 37 -50
q36 -35 81 -54q49 -19 97 -19q50 0 97 19t81 54q24 24 38 50q14 25 20 59q7 31 7 77q1 30 1 103zM516 356q0 -70 -2 -98q-2 -43 -7 -70q-7 -34 -16 -51q-10 -20 -30 -40q-26 -26 -62 -41q-36 -14 -73 -14q-36 0 -73 14q-37 16 -62 41q-17 19 -30 41q-12 25 -17 51
q-3 14 -7 70q-1 28 -1 97q0 44 2 98q4 54 7 70q6 32 16 51q11 21 30 40q28 27 62 41t73 14q41 0 73 -14q34 -13 62 -41q19 -18 30 -41q10 -18 17 -51q5 -27 7 -70q1 -14 1 -97zM209 927l106 -147h58l-97 147h-67z" />
    <glyph glyph-name="Oacute" unicode="&#xd3;" horiz-adv-x="652" 
d="M570 356q0 75 -1 104q0 41 -8 76q-7 36 -20 59q-13 26 -37 50q-34 36 -81 54q-44 19 -97 19q-52 0 -97 -19q-45 -18 -81 -54q-23 -23 -38 -50q-12 -22 -20 -59q-5 -30 -7 -77q0 -13 -0.5 -47.5t-0.5 -55.5t0.5 -55.5t0.5 -48.5q1 -39 8 -76q8 -35 20 -59q19 -32 37 -50
q36 -35 81 -54q49 -19 97 -19q50 0 97 19t81 54q24 24 38 50q14 25 20 59q7 31 7 77q1 30 1 103zM516 356q0 -70 -2 -98q-2 -43 -7 -70q-7 -34 -16 -51q-10 -20 -30 -40q-26 -26 -62 -41q-36 -14 -73 -14q-36 0 -73 14q-37 16 -62 41q-17 19 -30 41q-12 25 -17 51
q-3 14 -7 70q-1 28 -1 97q0 44 2 98q4 54 7 70q6 32 16 51q11 21 30 40q28 27 62 41t73 14q41 0 73 -14q34 -13 62 -41q19 -18 30 -41q10 -18 17 -51q5 -27 7 -70q1 -14 1 -97zM279 780h58l106 147h-67z" />
    <glyph glyph-name="Ocircumflex" unicode="&#xd4;" horiz-adv-x="652" 
d="M570 356q0 75 -1 104q0 41 -8 76q-7 36 -20 59q-13 26 -37 50q-34 36 -81 54q-44 19 -97 19q-52 0 -97 -19q-45 -18 -81 -54q-23 -23 -38 -50q-12 -22 -20 -59q-5 -30 -7 -77q0 -13 -0.5 -47.5t-0.5 -55.5t0.5 -55.5t0.5 -48.5q1 -39 8 -76q8 -35 20 -59q19 -32 37 -50
q36 -35 81 -54q49 -19 97 -19q50 0 97 19t81 54q24 24 38 50q14 25 20 59q7 31 7 77q1 30 1 103zM516 356q0 -70 -2 -98q-2 -43 -7 -70q-7 -34 -16 -51q-10 -20 -30 -40q-26 -26 -62 -41q-36 -14 -73 -14q-36 0 -73 14q-37 16 -62 41q-17 19 -30 41q-12 25 -17 51
q-3 14 -7 70q-1 28 -1 97q0 44 2 98q4 54 7 70q6 32 16 51q11 21 30 40q28 27 62 41t73 14q41 0 73 -14q34 -13 62 -41q19 -18 30 -41q10 -18 17 -51q5 -27 7 -70q1 -14 1 -97zM326 889l93 -109h57l-123 147h-54l-123 -147h57z" />
    <glyph glyph-name="Otilde" unicode="&#xd5;" horiz-adv-x="652" 
d="M570 356q0 75 -1 104q0 41 -8 76q-7 36 -20 59q-13 26 -37 50q-34 36 -81 54q-44 19 -97 19q-52 0 -97 -19q-45 -18 -81 -54q-23 -23 -38 -50q-12 -22 -20 -59q-5 -30 -7 -77q0 -13 -0.5 -47.5t-0.5 -55.5t0.5 -55.5t0.5 -48.5q1 -39 8 -76q8 -35 20 -59q19 -32 37 -50
q36 -35 81 -54q49 -19 97 -19q50 0 97 19t81 54q24 24 38 50q14 25 20 59q7 31 7 77q1 30 1 103zM516 356q0 -70 -2 -98q-2 -43 -7 -70q-7 -34 -16 -51q-10 -20 -30 -40q-26 -26 -62 -41q-36 -14 -73 -14q-36 0 -73 14q-37 16 -62 41q-17 19 -30 41q-12 25 -17 51
q-3 14 -7 70q-1 28 -1 97q0 44 2 98q4 54 7 70q6 32 16 51q11 21 30 40q28 27 62 41t73 14q41 0 73 -14q34 -13 62 -41q19 -18 30 -41q10 -18 17 -51q5 -27 7 -70q1 -14 1 -97zM475 843l-30 29q-22 -22 -36 -28q-13 -5 -23 -5q-14 0 -28 6q-6 3 -28 15q-18 12 -33 18
q-12 6 -36 6q-10 0 -16 -1q-7 0 -19 -6q-10 -4 -24 -14q-9 -6 -30 -27l30 -29q24 24 35 28q10 5 24 5q16 0 29 -7q15 -6 27 -14l33 -17q19 -7 36 -7q3 0 8 0.5t7 0.5q8 1 19 6q16 8 25 14q10 7 30 27z" />
    <glyph glyph-name="Odieresis" unicode="&#xd6;" horiz-adv-x="652" 
d="M570 356q0 75 -1 104q0 41 -8 76q-7 36 -20 59q-13 26 -37 50q-34 36 -81 54q-44 19 -97 19q-52 0 -97 -19q-45 -18 -81 -54q-23 -23 -38 -50q-12 -22 -20 -59q-5 -30 -7 -77q0 -13 -0.5 -47.5t-0.5 -55.5t0.5 -55.5t0.5 -48.5q1 -39 8 -76q8 -35 20 -59q19 -32 37 -50
q36 -35 81 -54q49 -19 97 -19q50 0 97 19t81 54q24 24 38 50q14 25 20 59q7 31 7 77q1 30 1 103zM516 356q0 -70 -2 -98q-2 -43 -7 -70q-7 -34 -16 -51q-10 -20 -30 -40q-26 -26 -62 -41q-36 -14 -73 -14q-36 0 -73 14q-37 16 -62 41q-17 19 -30 41q-12 25 -17 51
q-3 14 -7 70q-1 28 -1 97q0 44 2 98q4 54 7 70q6 32 16 51q11 21 30 40q28 27 62 41t73 14q41 0 73 -14q34 -13 62 -41q19 -18 30 -41q10 -18 17 -51q5 -27 7 -70q1 -14 1 -97zM193 867v-77h58v77h-58zM401 867v-77h58v77h-58z" />
    <glyph glyph-name="multiply" unicode="&#xd7;" 
d="M257 233l155 -155l31 31l-155 155l155 155l-31 31l-155 -155l-155 155l-31 -31l155 -155l-155 -155l31 -31z" />
    <glyph glyph-name="Oslash" unicode="&#xd8;" horiz-adv-x="652" 
d="M570 356q0 75 -1 104q0 41 -8 76q-7 36 -20 59q-13 26 -37 50l-9 9l49 102h-53l-35 -73q-57 35 -130 35q-52 0 -97 -19q-45 -18 -81 -54q-23 -23 -38 -50q-12 -22 -20 -59q-5 -30 -7 -77q0 -13 -0.5 -47.5t-0.5 -55.5t0.5 -55.5t0.5 -48.5q1 -39 8 -76q8 -35 20 -59
q19 -32 37 -50l9 -9l-49 -102h53l35 73q61 -35 130 -35q50 0 97 19t81 54q24 24 38 50q14 25 20 59q7 31 7 77q1 30 1 103zM434 637l-253 -529q-17 20 -25 39q-7 16 -14 50q-3 21 -5 68q0 12 -0.5 42t-0.5 49q0 44 2 98q4 54 7 70q6 32 16 51q11 21 30 40q28 27 62 41t73 14
q33 0 57 -8q29 -8 51 -25zM516 356q0 -70 -2 -98q-2 -43 -7 -70q-7 -34 -16 -51q-10 -20 -30 -40q-26 -26 -62 -41q-36 -14 -73 -14q-62 0 -108 33l253 529q16 -17 25 -39q10 -23 14 -50q5 -24 5 -68q1 -26 1 -91z" />
    <glyph glyph-name="Ugrave" unicode="&#xd9;" horiz-adv-x="688" 
d="M588 231v481h-54v-474q0 -46 -14 -81q-14 -36 -38 -62q-22 -23 -60 -39q-36 -14 -78 -14q-41 0 -78 14q-35 15 -60 40q-25 28 -39 62q-13 36 -13 80v474h-54v-481q0 -51 18 -96q17 -41 51 -75q33 -31 77 -49q42 -17 98 -17q54 0 99 18q44 18 77 49q32 32 50 75
q18 45 18 95zM227 927l106 -147h58l-97 147h-67z" />
    <glyph glyph-name="Uacute" unicode="&#xda;" horiz-adv-x="688" 
d="M588 231v481h-54v-474q0 -46 -14 -81q-14 -36 -38 -62q-22 -23 -60 -39q-36 -14 -78 -14q-41 0 -78 14q-35 15 -60 40q-25 28 -39 62q-13 36 -13 80v474h-54v-481q0 -51 18 -96q17 -41 51 -75q33 -31 77 -49q42 -17 98 -17q54 0 99 18q44 18 77 49q32 32 50 75
q18 45 18 95zM297 780h58l106 147h-67z" />
    <glyph glyph-name="Ucircumflex" unicode="&#xdb;" horiz-adv-x="688" 
d="M588 231v481h-54v-474q0 -46 -14 -81q-14 -36 -38 -62q-22 -23 -60 -39q-36 -14 -78 -14q-41 0 -78 14q-35 15 -60 40q-25 28 -39 62q-13 36 -13 80v474h-54v-481q0 -51 18 -96q17 -41 51 -75q33 -31 77 -49q42 -17 98 -17q54 0 99 18q44 18 77 49q32 32 50 75
q18 45 18 95zM344 889l93 -109h57l-123 147h-54l-123 -147h57z" />
    <glyph glyph-name="Udieresis" unicode="&#xdc;" horiz-adv-x="688" 
d="M588 231v481h-54v-474q0 -46 -14 -81q-14 -36 -38 -62q-22 -23 -60 -39q-36 -14 -78 -14q-41 0 -78 14q-35 15 -60 40q-25 28 -39 62q-13 36 -13 80v474h-54v-481q0 -51 18 -96q17 -41 51 -75q33 -31 77 -49q42 -17 98 -17q54 0 99 18q44 18 77 49q32 32 50 75
q18 45 18 95zM211 867v-77h58v77h-58zM419 867v-77h58v77h-58z" />
    <glyph glyph-name="Yacute" unicode="&#xdd;" horiz-adv-x="494" 
d="M274 0v295l210 417h-58l-177 -360l-181 360h-58l210 -417v-295h54zM201 780h58l106 147h-67z" />
    <glyph glyph-name="Thorn" unicode="&#xde;" horiz-adv-x="646" 
d="M586 359q0 52 -17 87q-17 40 -45 65q-28 27 -68 40q-34 13 -85 13h-207v148h-54v-712h54v154h207q46 0 86 14q42 16 68 40q28 25 45 64q16 35 16 87zM532 359q0 -81 -47 -119q-45 -38 -120 -38h-201v314h201q75 0 121 -39q46 -37 46 -118z" />
    <glyph glyph-name="germandbls" unicode="&#xdf;" horiz-adv-x="550" 
d="M473 134v177q0 50 -13 76q-12 29 -51 48q63 42 63 122q0 43 -15 73q-15 32 -39 50q-24 21 -59 30q-28 9 -70 9q-91 0 -142 -52q-50 -50 -50 -142v-525h51v525q0 65 32 108q32 41 103 41q72 0 104 -32q17 -14 26 -38q9 -23 9 -47q0 -45 -27 -74q-28 -28 -71 -28h-39v-45
h49q43 0 65 -23q14 -12 18 -28q5 -13 5 -40v-179q0 -51 -28 -73q-15 -12 -28 -17q-11 -5 -37 -5h-44v-45h54q32 0 54 8q23 9 41 26q19 19 29 43q10 23 10 57z" />
    <glyph glyph-name="agrave" unicode="&#xe0;" horiz-adv-x="524" 
d="M380 48v-48h51v330q0 76 -45 117q-44 41 -142 41q-61 0 -100 -16q-39 -15 -70 -58l37 -32q25 34 53 47q28 14 80 14q76 0 106 -30q30 -29 30 -88v-54h-156q-80 0 -124 -37q-44 -35 -44 -102q0 -26 9 -52q9 -23 26 -42q24 -24 56 -34q37 -10 86 -10q51 0 84 12t63 42z
M230 230h150v-62q0 -66 -27 -92q-27 -25 -57 -31t-63 -6q-65 0 -96 23q-30 24 -30 71q0 97 123 97zM133 737l106 -147h58l-97 147h-67z" />
    <glyph glyph-name="aacute" unicode="&#xe1;" horiz-adv-x="524" 
d="M380 48v-48h51v330q0 76 -45 117q-44 41 -142 41q-61 0 -100 -16q-39 -15 -70 -58l37 -32q25 34 53 47q28 14 80 14q76 0 106 -30q30 -29 30 -88v-54h-156q-80 0 -124 -37q-44 -35 -44 -102q0 -26 9 -52q9 -23 26 -42q24 -24 56 -34q37 -10 86 -10q51 0 84 12t63 42z
M230 230h150v-62q0 -66 -27 -92q-27 -25 -57 -31t-63 -6q-65 0 -96 23q-30 24 -30 71q0 97 123 97zM203 590h58l106 147h-67z" />
    <glyph glyph-name="acircumflex" unicode="&#xe2;" horiz-adv-x="524" 
d="M380 48v-48h51v330q0 76 -45 117q-44 41 -142 41q-61 0 -100 -16q-39 -15 -70 -58l37 -32q25 34 53 47q28 14 80 14q76 0 106 -30q30 -29 30 -88v-54h-156q-80 0 -124 -37q-44 -35 -44 -102q0 -26 9 -52q9 -23 26 -42q24 -24 56 -34q37 -10 86 -10q51 0 84 12t63 42z
M230 230h150v-62q0 -66 -27 -92q-27 -25 -57 -31t-63 -6q-65 0 -96 23q-30 24 -30 71q0 97 123 97zM250 699l93 -109h57l-123 147h-54l-123 -147h57z" />
    <glyph glyph-name="atilde" unicode="&#xe3;" horiz-adv-x="524" 
d="M380 48v-48h51v330q0 76 -45 117q-44 41 -142 41q-61 0 -100 -16q-39 -15 -70 -58l37 -32q25 34 53 47q28 14 80 14q76 0 106 -30q30 -29 30 -88v-54h-156q-80 0 -124 -37q-44 -35 -44 -102q0 -26 9 -52q9 -23 26 -42q24 -24 56 -34q37 -10 86 -10q51 0 84 12t63 42z
M230 230h150v-62q0 -66 -27 -92q-27 -25 -57 -31t-63 -6q-65 0 -96 23q-30 24 -30 71q0 97 123 97zM399 653l-30 29q-22 -22 -36 -28q-13 -5 -23 -5q-14 0 -28 6q-6 3 -28 15q-18 12 -33 18q-12 6 -36 6q-10 0 -16 -1q-7 0 -19 -6q-10 -4 -24 -14q-9 -6 -30 -27l30 -29
q24 24 35 28q10 5 24 5q16 0 29 -7q15 -6 27 -14l33 -17q19 -7 36 -7q2 0 7 0.5t8 0.5q8 1 19 6q16 8 25 14q10 7 30 27z" />
    <glyph glyph-name="adieresis" unicode="&#xe4;" horiz-adv-x="524" 
d="M380 48v-48h51v330q0 76 -45 117q-44 41 -142 41q-61 0 -100 -16q-39 -15 -70 -58l37 -32q25 34 53 47q28 14 80 14q76 0 106 -30q30 -29 30 -88v-54h-156q-80 0 -124 -37q-44 -35 -44 -102q0 -26 9 -52q9 -23 26 -42q24 -24 56 -34q37 -10 86 -10q51 0 84 12t63 42z
M230 230h150v-62q0 -66 -27 -92q-27 -25 -57 -31t-63 -6q-65 0 -96 23q-30 24 -30 71q0 97 123 97zM117 677v-77h58v77h-58zM324 677v-77h58v77h-58z" />
    <glyph glyph-name="aring" unicode="&#xe5;" horiz-adv-x="524" 
d="M380 48v-48h51v330q0 76 -45 117q-44 41 -142 41q-61 0 -100 -16q-39 -15 -70 -58l37 -32q25 34 53 47q28 14 80 14q76 0 106 -30q30 -29 30 -88v-54h-156q-80 0 -124 -37q-44 -35 -44 -102q0 -26 9 -52q9 -23 26 -42q24 -24 56 -34q37 -10 86 -10q51 0 84 12t63 42z
M230 230h150v-62q0 -66 -27 -92q-27 -25 -57 -31t-63 -6q-65 0 -96 23q-30 24 -30 71q0 97 123 97zM363 677q0 24 -9 45q-9 22 -25 36q-13 14 -36 24q-21 9 -44 9q-24 0 -45 -9q-19 -8 -36 -25q-15 -15 -24 -36t-9 -44q0 -24 9 -45q7 -16 25 -36q20 -18 36 -25q21 -9 44 -9
q24 0 45 9q19 8 36 25q14 14 24 37q9 21 9 44zM322 677q0 -30 -22 -52q-21 -21 -51 -21q-28 0 -52 22q-21 22 -21 51t22 51q22 21 51 21q31 0 52 -21q21 -20 21 -51z" />
    <glyph glyph-name="ae" unicode="&#xe6;" horiz-adv-x="834" 
d="M431 230h335v23q0 113 -51 174q-49 61 -142 61q-105 0 -156 -85q-36 85 -173 85q-61 0 -100 -16q-39 -15 -70 -58l37 -32q25 34 53 47q28 14 80 14q76 0 106 -30q30 -29 30 -88v-54h-156q-80 0 -124 -37q-44 -35 -44 -102q0 -26 9 -52q9 -23 26 -42q24 -24 56 -34
q37 -10 86 -10q67 0 108 21q41 20 71 69q50 -90 172 -90q58 0 99 19q42 21 76 55l-38 30q-29 -29 -61 -45q-29 -13 -72 -13q-77 0 -118 49q-39 49 -39 141zM230 230h150v-62q0 -66 -27 -92q-27 -25 -57 -31t-63 -6q-65 0 -96 23q-30 24 -30 71q0 97 123 97zM715 271h-284
q1 18 3 30q1 5 2 13t1 9q1 3 2 9t2 9l7 21q16 39 50 60q32 21 75 21q44 0 76 -22q34 -21 49 -59q3 -6 8 -20q4 -12 5 -19q2 -6 2 -23q2 -16 2 -29z" />
    <glyph glyph-name="ccedilla" unicode="&#xe7;" horiz-adv-x="493" 
d="M440 68l-35 32q-30 -32 -59 -48q-26 -13 -65 -13q-84 0 -128 64q-17 25 -26 58q-7 31 -7 80q0 47 8 81q10 35 25 57q43 64 128 64q41 0 66 -14q29 -14 58 -47l35 32q-38 44 -74 59q-33 15 -85 15t-89 -17q-39 -16 -67 -49q-27 -32 -42 -78q-14 -42 -14 -103
q0 -57 15 -103q15 -45 42 -78q29 -32 66 -49q40 -17 89 -17q47 0 85 16q38 17 74 58zM244 -220l64 150h-55l-72 -150h63z" />
    <glyph glyph-name="egrave" unicode="&#xe8;" horiz-adv-x="523" 
d="M120 230h335v23q0 113 -51 174q-49 61 -142 61q-92 0 -142 -65q-51 -65 -51 -182q0 -120 53 -184q54 -63 152 -63q27 0 54 5q30 7 45 14q25 13 39 23q17 13 36 32l-38 30q-29 -29 -61 -45q-29 -13 -72 -13q-77 0 -118 49q-39 49 -39 141zM404 271h-284q2 18 3 30
q1 5 2 13t1 9q1 3 2 9t2 9l7 21q16 39 50 60q32 21 75 21q44 0 76 -22q34 -21 49 -59q3 -6 8 -20q4 -12 5 -19q2 -6 2 -23q2 -16 2 -29zM147 737l106 -147h58l-97 147h-67z" />
    <glyph glyph-name="eacute" unicode="&#xe9;" horiz-adv-x="523" 
d="M120 230h335v23q0 113 -51 174q-49 61 -142 61q-92 0 -142 -65q-51 -65 -51 -182q0 -120 53 -184q54 -63 152 -63q27 0 54 5q30 7 45 14q25 13 39 23q17 13 36 32l-38 30q-29 -29 -61 -45q-29 -13 -72 -13q-77 0 -118 49q-39 49 -39 141zM404 271h-284q2 18 3 30
q1 5 2 13t1 9q1 3 2 9t2 9l7 21q16 39 50 60q32 21 75 21q44 0 76 -22q34 -21 49 -59q3 -6 8 -20q4 -12 5 -19q2 -6 2 -23q2 -16 2 -29zM217 590h58l106 147h-67z" />
    <glyph glyph-name="ecircumflex" unicode="&#xea;" horiz-adv-x="523" 
d="M120 230h335v23q0 113 -51 174q-49 61 -142 61q-92 0 -142 -65q-51 -65 -51 -182q0 -120 53 -184q54 -63 152 -63q27 0 54 5q30 7 45 14q25 13 39 23q17 13 36 32l-38 30q-29 -29 -61 -45q-29 -13 -72 -13q-77 0 -118 49q-39 49 -39 141zM404 271h-284q2 18 3 30
q1 5 2 13t1 9q1 3 2 9t2 9l7 21q16 39 50 60q32 21 75 21q44 0 76 -22q34 -21 49 -59q3 -6 8 -20q4 -12 5 -19q2 -6 2 -23q2 -16 2 -29zM264 699l93 -109h57l-123 147h-54l-123 -147h57z" />
    <glyph glyph-name="edieresis" unicode="&#xeb;" horiz-adv-x="523" 
d="M120 230h335v23q0 113 -51 174q-49 61 -142 61q-92 0 -142 -65q-51 -65 -51 -182q0 -120 53 -184q54 -63 152 -63q27 0 54 5q30 7 45 14q25 13 39 23q17 13 36 32l-38 30q-29 -29 -61 -45q-29 -13 -72 -13q-77 0 -118 49q-39 49 -39 141zM404 271h-284q2 18 3 30
q1 5 2 13t1 9q1 3 2 9t2 9l7 21q16 39 50 60q32 21 75 21q44 0 76 -22q34 -21 49 -59q3 -6 8 -20q4 -12 5 -19q2 -6 2 -23q2 -16 2 -29zM131 677v-77h58v77h-58zM339 677v-77h58v77h-58z" />
    <glyph glyph-name="igrave" unicode="&#xec;" horiz-adv-x="245" 
d="M97 482v-482h51v482h-51zM18 737l106 -147h58l-97 147h-67z" />
    <glyph glyph-name="iacute" unicode="&#xed;" horiz-adv-x="245" 
d="M97 482v-482h51v482h-51zM97 590h58l106 147h-67z" />
    <glyph glyph-name="icircumflex" unicode="&#xee;" horiz-adv-x="245" 
d="M97 482v-482h51v482h-51zM122 699l93 -109h57l-123 147h-54l-123 -147h57z" />
    <glyph glyph-name="idieresis" unicode="&#xef;" horiz-adv-x="245" 
d="M97 482v-482h51v482h-51zM-10 677v-77h58v77h-58zM198 677v-77h58v77h-58z" />
    <glyph glyph-name="eth" unicode="&#xf0;" horiz-adv-x="526" 
d="M457 241q0 41 -2 57q-2 26 -9 50q-6 25 -19 51q-16 35 -32 62l-72 123h57v38h-79l-52 90h-53l53 -90h-95v-38h117l67 -113q-17 10 -36 13q-19 4 -39 4q-81 0 -134 -53q-37 -37 -49 -90q-11 -53 -11 -104q0 -49 11 -104q12 -52 49 -90q55 -53 134 -53q81 0 134 53
q38 38 49 90q11 48 11 104zM406 241q0 -28 -1 -43q0 -22 -6 -44q-5 -22 -13 -40q-11 -22 -23 -34q-41 -41 -100 -41q-57 0 -100 41q-14 14 -24 34q-3 7 -13 41q-3 15 -5 43q0 8 -0.5 22t-0.5 21t0.5 21.5t0.5 21.5q2 23 6 44q8 30 13 40q9 20 23 34q41 41 100 41
q60 0 100 -41q15 -15 24 -34q8 -16 13 -41q5 -17 5 -43q1 -14 1 -43z" />
    <glyph glyph-name="ntilde" unicode="&#xf1;" horiz-adv-x="559" 
d="M417 299v-299h51v308q0 87 -50 134q-46 46 -128 46q-88 0 -142 -63v57h-51v-482h51v299q0 69 35 107q34 37 101 37t100 -37q33 -34 33 -107zM433 653l-30 29q-22 -22 -36 -28q-13 -5 -23 -5q-14 0 -28 6q-6 3 -28 15q-18 12 -33 18q-12 6 -36 6q-10 0 -16 -1q-7 0 -19 -6
q-10 -4 -24 -14q-9 -6 -30 -27l30 -29q24 24 35 28q10 5 24 5q16 0 29 -7q15 -6 27 -14l33 -17q19 -7 36 -7q2 0 7 0.5t8 0.5q8 1 19 6q16 8 25 14q10 7 30 27z" />
    <glyph glyph-name="ograve" unicode="&#xf2;" horiz-adv-x="526" 
d="M457 241q0 57 -11 104q-11 53 -49 90q-52 53 -134 53q-81 0 -134 -53q-37 -37 -49 -90q-11 -53 -11 -104q0 -49 11 -104q12 -52 49 -90q55 -53 134 -53q81 0 134 53q38 38 49 90q11 48 11 104zM406 241q0 -28 -1 -43q0 -22 -6 -44q-5 -22 -13 -40q-11 -22 -23 -34
q-41 -41 -100 -41q-57 0 -100 41q-14 14 -24 34q-3 7 -13 41q-3 15 -5 43q0 8 -0.5 22t-0.5 21t0.5 21.5t0.5 21.5q2 23 6 44q8 30 13 40q9 20 23 34q41 41 100 41q60 0 100 -41q15 -15 24 -34q8 -16 13 -41q5 -17 5 -43q1 -14 1 -43zM151 737l106 -147h58l-97 147h-67z" />
    <glyph glyph-name="oacute" unicode="&#xf3;" horiz-adv-x="526" 
d="M457 241q0 57 -11 104q-11 53 -49 90q-52 53 -134 53q-81 0 -134 -53q-37 -37 -49 -90q-11 -53 -11 -104q0 -49 11 -104q12 -52 49 -90q55 -53 134 -53q81 0 134 53q38 38 49 90q11 48 11 104zM406 241q0 -28 -1 -43q0 -22 -6 -44q-5 -22 -13 -40q-11 -22 -23 -34
q-41 -41 -100 -41q-57 0 -100 41q-14 14 -24 34q-3 7 -13 41q-3 15 -5 43q0 8 -0.5 22t-0.5 21t0.5 21.5t0.5 21.5q2 23 6 44q8 30 13 40q9 20 23 34q41 41 100 41q60 0 100 -41q15 -15 24 -34q8 -16 13 -41q5 -17 5 -43q1 -14 1 -43zM216 590h58l106 147h-67z" />
    <glyph glyph-name="ocircumflex" unicode="&#xf4;" horiz-adv-x="526" 
d="M457 241q0 57 -11 104q-11 53 -49 90q-52 53 -134 53q-81 0 -134 -53q-37 -37 -49 -90q-11 -53 -11 -104q0 -49 11 -104q12 -52 49 -90q55 -53 134 -53q81 0 134 53q38 38 49 90q11 48 11 104zM406 241q0 -28 -1 -43q0 -22 -6 -44q-5 -22 -13 -40q-11 -22 -23 -34
q-41 -41 -100 -41q-57 0 -100 41q-14 14 -24 34q-3 7 -13 41q-3 15 -5 43q0 8 -0.5 22t-0.5 21t0.5 21.5t0.5 21.5q2 23 6 44q8 30 13 40q9 20 23 34q41 41 100 41q60 0 100 -41q15 -15 24 -34q8 -16 13 -41q5 -17 5 -43q1 -14 1 -43zM263 699l93 -109h57l-123 147h-54
l-123 -147h57z" />
    <glyph glyph-name="otilde" unicode="&#xf5;" horiz-adv-x="526" 
d="M457 241q0 57 -11 104q-11 53 -49 90q-52 53 -134 53q-81 0 -134 -53q-37 -37 -49 -90q-11 -53 -11 -104q0 -49 11 -104q12 -52 49 -90q55 -53 134 -53q81 0 134 53q38 38 49 90q11 48 11 104zM406 241q0 -28 -1 -43q0 -22 -6 -44q-5 -22 -13 -40q-11 -22 -23 -34
q-41 -41 -100 -41q-57 0 -100 41q-14 14 -24 34q-3 7 -13 41q-3 15 -5 43q0 8 -0.5 22t-0.5 21t0.5 21.5t0.5 21.5q2 23 6 44q8 30 13 40q9 20 23 34q41 41 100 41q60 0 100 -41q15 -15 24 -34q8 -16 13 -41q5 -17 5 -43q1 -14 1 -43zM412 653l-30 29q-22 -22 -36 -28
q-13 -5 -23 -5q-15 0 -28 6q-6 3 -28 15q-18 12 -33 18q-12 6 -36 6q-10 0 -16 -1q-7 0 -19 -6q-10 -4 -24 -14q-9 -6 -30 -27l30 -29q24 24 35 28q10 5 24 5q16 0 29 -7q15 -6 27 -14l33 -17q19 -7 36 -7q3 0 8 0.5t7 0.5q8 1 19 6q16 8 25 14q10 7 30 27z" />
    <glyph glyph-name="odieresis" unicode="&#xf6;" horiz-adv-x="526" 
d="M457 241q0 57 -11 104q-11 53 -49 90q-52 53 -134 53q-81 0 -134 -53q-37 -37 -49 -90q-11 -53 -11 -104q0 -49 11 -104q12 -52 49 -90q55 -53 134 -53q81 0 134 53q38 38 49 90q11 48 11 104zM406 241q0 -28 -1 -43q0 -22 -6 -44q-5 -22 -13 -40q-11 -22 -23 -34
q-41 -41 -100 -41q-57 0 -100 41q-14 14 -24 34q-3 7 -13 41q-3 15 -5 43q0 8 -0.5 22t-0.5 21t0.5 21.5t0.5 21.5q2 23 6 44q8 30 13 40q9 20 23 34q41 41 100 41q60 0 100 -41q15 -15 24 -34q8 -16 13 -41q5 -17 5 -43q1 -14 1 -43zM130 677v-77h58v77h-58zM338 677v-77
h58v77h-58z" />
    <glyph glyph-name="divide" unicode="&#xf7;" 
d="M53 287v-47h408v47h-408zM222 467v-70h70v70h-70zM222 130v-70h70v70h-70z" />
    <glyph glyph-name="oslash" unicode="&#xf8;" horiz-adv-x="526" 
d="M457 241q0 55 -11 102q-11 52 -46 89l56 94h-48l-40 -68q-45 30 -105 30q-81 0 -134 -53q-37 -37 -49 -90q-11 -53 -11 -104q0 -49 11 -102q12 -53 46 -89l-56 -94h48l40 67q49 -29 105 -29q81 0 134 53q38 38 49 90q11 48 11 104zM406 241q0 -28 -1 -43q0 -22 -6 -44
q-5 -22 -13 -40q-11 -22 -23 -34q-41 -41 -100 -41q-43 0 -81 25l192 325q23 -29 28 -71q4 -26 4 -77zM344 418l-192 -325q-22 30 -28 71q-4 36 -4 77q0 7 0.5 21.5t0.5 21.5q2 23 6 44q8 30 13 40q9 20 23 34q41 41 100 41q47 0 81 -25z" />
    <glyph glyph-name="ugrave" unicode="&#xf9;" horiz-adv-x="559" 
d="M411 57v-57h51v482h-51v-299q0 -69 -35 -107q-34 -37 -101 -37q-65 0 -100 37q-33 38 -33 107v299h-51v-308q0 -86 50 -134q49 -46 128 -46q88 0 142 63zM159 737l106 -147h58l-97 147h-67z" />
    <glyph glyph-name="uacute" unicode="&#xfa;" horiz-adv-x="559" 
d="M411 57v-57h51v482h-51v-299q0 -69 -35 -107q-34 -37 -101 -37q-65 0 -100 37q-33 38 -33 107v299h-51v-308q0 -86 50 -134q49 -46 128 -46q88 0 142 63zM229 590h58l106 147h-67z" />
    <glyph glyph-name="ucircumflex" unicode="&#xfb;" horiz-adv-x="559" 
d="M411 57v-57h51v482h-51v-299q0 -69 -35 -107q-34 -37 -101 -37q-65 0 -100 37q-33 38 -33 107v299h-51v-308q0 -86 50 -134q49 -46 128 -46q88 0 142 63zM276 699l93 -109h57l-123 147h-54l-123 -147h57z" />
    <glyph glyph-name="udieresis" unicode="&#xfc;" horiz-adv-x="559" 
d="M411 57v-57h51v482h-51v-299q0 -69 -35 -107q-34 -37 -101 -37q-65 0 -100 37q-33 38 -33 107v299h-51v-308q0 -86 50 -134q49 -46 128 -46q88 0 142 63zM143 677v-77h58v77h-58zM351 677v-77h58v77h-58z" />
    <glyph glyph-name="yacute" unicode="&#xfd;" horiz-adv-x="430" 
d="M192 -131l224 613h-56l-145 -422l-145 422h-56l176 -482l-39 -107q-6 -19 -13 -31q-5 -10 -17 -20q-9 -8 -24 -12q-13 -3 -34 -3h-19v-45h24q21 0 49 7q23 7 42 24q19 16 33 56zM169 590h58l106 147h-67z" />
    <glyph glyph-name="thorn" unicode="&#xfe;" horiz-adv-x="540" 
d="M471 241q0 60 -13 113q-12 56 -49 92q-17 18 -50 31q-28 11 -68 11q-42 0 -77 -13q-31 -11 -66 -55v292h-51v-942h51v292q33 -42 67 -55q39 -13 76 -13q39 0 69 12q31 12 49 30q38 38 50 93q12 51 12 112zM420 241q0 -44 -5 -74q-5 -36 -19 -65q-15 -29 -41 -46
q-25 -17 -71 -17q-44 0 -71 18t-42 46q-13 25 -19 64q-4 32 -4 74q0 34 5 74q7 42 19 65q14 28 41 46q25 17 71 17q44 0 71 -18q29 -19 42 -46q15 -28 19 -65q4 -24 4 -73z" />
    <glyph glyph-name="ydieresis" unicode="&#xff;" horiz-adv-x="430" 
d="M192 -131l224 613h-56l-145 -422l-145 422h-56l176 -482l-39 -107q-6 -19 -13 -31q-5 -10 -17 -20q-9 -8 -24 -12q-13 -3 -34 -3h-19v-45h24q21 0 49 7q23 7 42 24q19 16 33 56zM83 677v-77h58v77h-58zM290 677v-77h58v77h-58z" />
    <glyph glyph-name="OE" unicode="&#x152;" horiz-adv-x="997" 
d="M516 85v-85h425v47h-372q0 25 0.5 73.5t0.5 72.5v145h313v42h-313q0 96 -1 143v142h369v47h-422v-85q-72 91 -190 91q-52 0 -97 -19q-45 -18 -81 -54q-23 -23 -38 -50q-12 -22 -20 -59q-5 -30 -7 -77q0 -13 -0.5 -47.5t-0.5 -55.5t0.5 -55.5t0.5 -48.5q1 -39 8 -76
q8 -35 20 -59q19 -32 37 -50q36 -35 81 -54q49 -19 97 -19q54 0 105 23q49 23 85 68zM516 356q0 -70 -2 -98q-2 -43 -7 -70q-7 -34 -16 -51q-10 -20 -30 -40q-26 -26 -62 -41q-36 -14 -73 -14q-36 0 -73 14q-37 16 -62 41q-17 19 -30 41q-12 25 -17 51q-3 14 -7 70
q-1 28 -1 97q0 44 2 98q4 54 7 70q6 32 16 51q11 21 30 40q28 27 62 41t73 14q41 0 73 -14q34 -13 62 -41q19 -18 30 -41q10 -18 17 -51q5 -27 7 -70q1 -14 1 -97z" />
    <glyph glyph-name="oe" unicode="&#x153;" horiz-adv-x="860" 
d="M457 230h335v23q0 113 -51 174q-49 61 -142 61q-57 0 -101 -27q-41 -26 -65 -78q-22 51 -68 78q-45 27 -102 27q-81 0 -134 -53q-37 -37 -49 -90q-11 -53 -11 -104q0 -49 11 -104q12 -52 49 -90q55 -53 134 -53q57 0 102 27q46 27 68 78q49 -105 178 -105q27 0 54 5
q30 7 45 14q25 13 39 23q17 13 36 32l-38 30q-29 -29 -61 -45q-29 -13 -72 -13q-77 0 -118 49q-39 49 -39 141zM406 241q0 -28 -1 -43q0 -22 -6 -44q-5 -22 -13 -40q-11 -22 -23 -34q-41 -41 -100 -41q-57 0 -100 41q-14 14 -24 34q-3 7 -13 41q-3 15 -5 43q0 8 -0.5 22
t-0.5 21t0.5 21.5t0.5 21.5q2 23 6 44q8 30 13 40q9 20 23 34q41 41 100 41q60 0 100 -41q15 -15 24 -34q8 -16 13 -41q5 -17 5 -43q1 -14 1 -43zM741 271h-284q1 18 3 30q1 5 2 13t1 9q1 3 2 9t2 9l7 21q16 39 50 60q32 21 75 21q44 0 76 -22q34 -21 49 -59q3 -6 8 -20
q4 -12 5 -19q2 -6 2 -23q2 -16 2 -29z" />
    <glyph glyph-name="Scaron" unicode="&#x160;" horiz-adv-x="587" 
d="M528 191q0 45 -17 79q-17 36 -45 59q-21 19 -50 30q-24 11 -77 17l-77 12q-33 7 -59 17q-26 11 -47 27q-37 32 -37 93q0 69 44 108q45 39 121 39q36 0 57 -5q26 -4 46 -13q20 -8 37 -21q18 -12 33 -27l35 35q-46 41 -93 59q-43 18 -112 18q-103 0 -162 -53t-59 -142
q0 -83 56 -131q48 -40 127 -52l83 -13q25 -3 37 -7q18 -4 27 -8q11 -4 20 -10q18 -12 19 -13q39 -33 39 -100q0 -70 -49 -109q-47 -38 -134 -38q-23 0 -59 4q-23 4 -50 14q-18 8 -47 26q-22 17 -46 40l-38 -38q49 -48 104 -72q54 -22 133 -22q112 0 176 53q64 54 64 144z
M260 780h54l123 147h-57l-93 -109l-93 109h-57z" />
    <glyph glyph-name="scaron" unicode="&#x161;" horiz-adv-x="494" 
d="M438 137q0 37 -11 58q-10 23 -30 37q-18 15 -44 21q-23 7 -56 10l-78 7q-51 6 -75 24q-23 19 -23 57q0 45 32 69q33 24 91 24q81 0 135 -41l34 34q-33 25 -75 38q-36 13 -94 13q-79 0 -126 -37q-47 -36 -47 -100q0 -114 145 -126l80 -7q49 -5 70 -24q22 -18 22 -57
q0 -98 -145 -98q-101 0 -158 59l-35 -35q37 -34 85 -52q49 -17 110 -17q91 0 142 39q51 38 51 104zM217 590h54l123 147h-57l-93 -109l-93 109h-57z" />
    <glyph glyph-name="Ydieresis" unicode="&#x178;" horiz-adv-x="494" 
d="M274 0v295l210 417h-58l-177 -360l-181 360h-58l210 -417v-295h54zM115 867v-77h58v77h-58zM322 867v-77h58v77h-58z" />
    <glyph glyph-name="florin" unicode="&#x192;" horiz-adv-x="394" 
d="M321 667h43v45h-44q-57 0 -93 -36q-35 -34 -45 -90l-36 -206h-116v-38h109l-101 -572h51l101 572h116v38h-109l36 207q7 37 29 59q22 21 59 21z" />
    <glyph glyph-name="circumflex" unicode="&#x2c6;" horiz-adv-x="500" 
d="M250 699l93 -109h57l-123 147h-54l-123 -147h57z" />
    <glyph glyph-name="tilde" unicode="&#x2dc;" horiz-adv-x="500" 
d="M399 653l-30 29q-22 -22 -36 -28q-13 -5 -23 -5q-14 0 -28 6q-6 3 -28 15q-18 12 -33 18q-12 6 -36 6q-10 0 -16 -1q-7 0 -19 -6q-10 -4 -24 -14q-9 -6 -30 -27l30 -29q24 24 35 28q10 5 24 5q16 0 29 -7q15 -6 27 -14l33 -17q19 -7 36 -7q2 0 7 0.5t8 0.5q8 1 19 6
q16 8 25 14q10 7 30 27z" />
    <glyph glyph-name="endash" unicode="&#x2013;" 
d="M53 287v-47h408v47h-408z" />
    <glyph glyph-name="emdash" unicode="&#x2014;" horiz-adv-x="873" 
d="M82 287v-47h709v47h-709z" />
    <glyph glyph-name="quoteleft" unicode="&#x2018;" horiz-adv-x="260" 
d="M95 712v-70h70v140z" />
    <glyph glyph-name="quoteright" unicode="&#x2019;" horiz-adv-x="260" 
d="M95 712v-140l70 70v70h-70z" />
    <glyph glyph-name="quotesinglbase" unicode="&#x201a;" horiz-adv-x="260" 
d="M95 70v-140l70 70v70h-70z" />
    <glyph glyph-name="quotedblleft" unicode="&#x201c;" horiz-adv-x="416" 
d="M95 712v-70h70v140zM251 712v-70h70v140z" />
    <glyph glyph-name="quotedblright" unicode="&#x201d;" horiz-adv-x="416" 
d="M95 712v-140l70 70v70h-70zM251 712v-140l70 70v70h-70z" />
    <glyph glyph-name="quotedblbase" unicode="&#x201e;" horiz-adv-x="416" 
d="M95 70v-140l70 70v70h-70zM251 70v-140l70 70v70h-70z" />
    <glyph glyph-name="dagger" unicode="&#x2020;" horiz-adv-x="614" 
d="M331 0v457h203v45h-203v210h-51v-210h-200v-45h200v-457h51z" />
    <glyph glyph-name="daggerdbl" unicode="&#x2021;" horiz-adv-x="614" 
d="M331 -230v210h203v45h-203v432h203v45h-203v210h-51v-210h-200v-45h200v-432h-200v-45h200v-210h51z" />
    <glyph glyph-name="bullet" unicode="&#x2022;" horiz-adv-x="546" 
d="M436 334q0 35 -13 64q-12 29 -35 51q-21 23 -52 35q-29 13 -63 13q-35 0 -64 -13q-27 -11 -51 -35q-21 -21 -35 -52q-13 -33 -13 -63q0 -32 13 -64q12 -26 35 -51q24 -22 52 -35q32 -13 63 -13t64 13q29 13 51 35q24 24 35 52q13 29 13 63z" />
    <glyph glyph-name="ellipsis" unicode="&#x2026;" horiz-adv-x="724" 
d="M325 74v-74h74v74h-74zM555 74v-74h74v74h-74zM95 74v-74h74v74h-74z" />
    <glyph glyph-name="perthousand" unicode="&#x2030;" horiz-adv-x="1168" 
d="M759 127v107q0 61 -37 97q-36 37 -94 37q-60 0 -96 -37q-36 -36 -36 -97v-107q0 -59 36 -97q37 -37 96 -37q58 0 95 37q36 36 36 97zM1099 127v107q0 61 -37 97q-36 37 -94 37q-60 0 -96 -37q-36 -36 -36 -97v-107q0 -59 36 -97q37 -37 96 -37q58 0 95 37q36 36 36 97z
M332 478v107q0 61 -37 97q-36 37 -94 37q-60 0 -96 -37q-36 -36 -36 -97v-107q0 -60 36 -97q36 -36 96 -36q58 0 95 37q36 36 36 96zM1055 232v-104q0 -45 -20 -71t-67 -26t-68 27q-20 28 -20 71v103q0 44 20 72q20 26 68 26t68 -27q19 -24 19 -71zM715 232v-103
q0 -46 -20 -72q-19 -26 -67 -26q-47 0 -68 27q-20 28 -20 71v103q0 44 20 72q20 26 68 26t68 -27q19 -24 19 -71zM288 583v-103q0 -44 -21 -71q-21 -26 -66 -26q-47 0 -68 26q-20 28 -20 71v103q0 44 20 72q20 26 68 26q49 0 68 -27q19 -24 19 -71zM226 0h45l332 712h-45z
" />
    <glyph glyph-name="guilsinglleft" unicode="&#x2039;" horiz-adv-x="320" 
d="M238 461l-196 -196l196 -196v66l-130 130l130 130v66z" />
    <glyph glyph-name="guilsinglright" unicode="&#x203a;" horiz-adv-x="320" 
d="M82 135v-66l196 196l-196 196v-66l130 -130z" />
    <glyph glyph-name="Euro" unicode="&#x20ac;" horiz-adv-x="676" 
d="M600 202h-53q-15 -73 -67 -118q-51 -42 -122 -42q-36 0 -73 14q-37 16 -62 41q-11 11 -25 31q-11 21 -16 36q-6 21 -9 46q-2 21 -4 58h244v38h-245v106h245v38h-244q3 68 14 100q12 37 40 65q28 27 62 41t73 14q73 0 122 -43q50 -41 65 -117h55q-18 98 -82 153
q-61 55 -160 55q-52 0 -97 -19q-45 -18 -81 -54q-37 -37 -51 -83q-11 -41 -14 -112h-65v-38h64v-106h-64v-38h65q2 -43 4 -64q3 -26 11 -52q13 -34 19 -45q7 -11 31 -40q36 -35 81 -54q49 -19 97 -19t88 15q41 15 72 41q29 24 52 66q21 40 30 86z" />
    <glyph glyph-name="trademark" unicode="&#x2122;" horiz-adv-x="809" 
d="M709 613v-328h44v427h-44l-133 -270l-133 270h-44v-427h44v328l110 -218h46zM198 285v386h122v41h-288v-41h122v-386h44z" />
    <glyph glyph-name="bulletoperator" unicode="&#x2219;" horiz-adv-x="264" 
d="M95 301v-74h74v74h-74z" />
    <glyph glyph-name="uni2224" unicode="&#x2224;" horiz-adv-x="264" 
d="M95 301v-74h74v74h-74z" />
    <glyph glyph-name="logicaland" unicode="&#x2227;" horiz-adv-x="264" 
d="M95 301v-74h74v74h-74z" />
    <glyph glyph-name="dotmath" unicode="&#x22c5;" horiz-adv-x="264" 
d="M95 301v-74h74v74h-74z" />
    <glyph glyph-name="controlBS" horiz-adv-x="0" 
 />
    <glyph glyph-name="controlHT" horiz-adv-x="255" 
 />
    <glyph glyph-name="glyph119" horiz-adv-x="556" 
d="M408 57v-57h51v482h-51v-299q0 -69 -35 -107q-34 -37 -101 -37q-65 0 -100 37q-33 38 -33 107v299h-51v-712h51v269q48 -45 127 -45q88 0 142 63z" />
    <glyph glyph-name="glyph224" horiz-adv-x="264" 
d="M95 301v-74h74v74h-74z" />
    <glyph glyph-name="dotmath" horiz-adv-x="264" 
d="M95 301v-74h74v74h-74z" />
    <glyph glyph-name="ring.lc" horiz-adv-x="524" 
d="M363 677q0 24 -9 45q-9 22 -25 36q-13 14 -36 24q-21 9 -44 9q-24 0 -45 -9q-19 -8 -36 -25q-15 -15 -24 -36t-9 -44q0 -24 9 -45q7 -16 25 -36q20 -18 36 -25q21 -9 44 -9q24 0 45 9q19 8 36 25q14 14 24 37q9 21 9 44zM322 677q0 -30 -22 -52q-21 -21 -51 -21
q-28 0 -52 22q-21 22 -21 51t22 51q22 21 51 21q31 0 52 -21q21 -20 21 -51z" />
    <glyph glyph-name="caron.uc" horiz-adv-x="559" 
d="M260 780h54l123 147h-57l-93 -109l-93 109h-57z" />
    <glyph glyph-name="diedot.lc" horiz-adv-x="526" 
d="M130 677v-77h58v77h-58z" />
    <glyph glyph-name="tilde.lc" horiz-adv-x="526" 
d="M412 653l-30 29q-22 -22 -36 -28q-13 -5 -23 -5q-15 0 -28 6q-6 3 -28 15q-18 12 -33 18q-12 6 -36 6q-10 0 -16 -1q-7 0 -19 -6q-10 -4 -24 -14q-9 -6 -30 -27l30 -29q24 24 35 28q10 5 24 5q16 0 29 -7q15 -6 27 -14l33 -17q19 -7 36 -7q3 0 8 0.5t7 0.5q8 1 19 6
q16 8 25 14q10 7 30 27z" />
    <glyph glyph-name="hungarumlaut.uc" horiz-adv-x="500" 
d="M130 780h58l106 147h-67zM277 780h57l107 147h-67z" />
    <glyph glyph-name="dieresis.lc" horiz-adv-x="526" 
d="M130 677v-77h58v77h-58zM338 677v-77h58v77h-58z" />
    <glyph glyph-name="grave.lc" horiz-adv-x="500" 
d="M133 737l106 -147h58l-97 147h-67z" />
    <glyph glyph-name="caron.lc" horiz-adv-x="452" 
d="M207 590h54l123 147h-57l-93 -109l-93 109h-57z" />
    <glyph glyph-name="tilde.uc" horiz-adv-x="652" 
d="M475 843l-30 29q-22 -22 -36 -28q-13 -5 -23 -5q-14 0 -28 6q-6 3 -28 15q-18 12 -33 18q-12 6 -36 6q-10 0 -16 -1q-7 0 -19 -6q-10 -4 -24 -14q-9 -6 -30 -27l30 -29q24 24 35 28q10 5 24 5q16 0 29 -7q15 -6 27 -14l33 -17q19 -7 36 -7q3 0 8 0.5t7 0.5q8 1 19 6
q16 8 25 14q10 7 30 27z" />
    <glyph glyph-name="breve.lc" horiz-adv-x="500" 
d="M415 737h-43q-6 -42 -37 -66q-30 -24 -83 -24q-52 0 -83 24q-31 25 -37 66h-47q8 -64 47 -100q39 -35 120 -35q82 0 119 36q38 35 44 99z" />
    <glyph glyph-name="dotaccent.uc" horiz-adv-x="500" 
d="M219 853v-63h62v63h-62z" />
    <glyph glyph-name="dotaccent.lc" horiz-adv-x="500" 
d="M219 712v-63h62v63h-62z" />
    <glyph glyph-name="diedot.uc" horiz-adv-x="652" 
d="M193 867v-77h58v77h-58z" />
    <glyph glyph-name="hungarumlaut.lc" horiz-adv-x="500" 
d="M130 590h58l106 147h-67zM277 590h57l107 147h-67z" />
    <glyph glyph-name="commaaccent" horiz-adv-x="258" 
d="M106 -220l64 150h-55l-72 -150h63z" />
    <glyph glyph-name="macron.lc" horiz-adv-x="500" 
d="M102 646v-46h296v46h-296z" />
    <glyph glyph-name="undercommaaccent" horiz-adv-x="258" 
d="M106 -220l64 150h-55l-72 -150h63z" />
    <glyph glyph-name="dieresis.uc" horiz-adv-x="652" 
d="M193 867v-77h58v77h-58zM401 867v-77h58v77h-58z" />
    <glyph glyph-name="commaturn" horiz-adv-x="258" 
d="M131 590l106 147h-67l-97 -147h58z" />
    <glyph glyph-name="ring.uc" horiz-adv-x="500" 
d="M364 861q0 24 -9 45q-9 22 -25 36q-13 14 -36 24q-21 9 -44 9q-24 0 -45 -9q-19 -8 -36 -25q-15 -15 -24 -36t-9 -44q0 -24 9 -45q7 -16 25 -36q20 -18 36 -25q21 -9 44 -9q24 0 45 9q19 8 36 25q14 14 24 37q9 21 9 44zM323 861q0 -30 -22 -52q-21 -21 -51 -21
q-28 0 -52 22q-21 22 -21 51t22 51q23 21 51 21q31 0 52 -21q21 -20 21 -51z" />
    <glyph glyph-name="brevecyr" horiz-adv-x="430" 
d="M225 622q-43 0 -64 23q-20 25 -29 57l-44 -15q14 -56 48 -83q36 -27 89 -27q55 0 89 27q36 27 48 83l-44 15q-9 -35 -29 -57q-20 -23 -64 -23z" />
    <glyph glyph-name="dotlessj" horiz-adv-x="245" 
d="M148 -105v587h-51v-586q0 -42 -16 -62q-15 -19 -58 -19h-35v-45h44q60 0 88 34t28 91z" />
    <glyph glyph-name="circumflex.uc" horiz-adv-x="652" 
d="M326 889l93 -109h57l-123 147h-54l-123 -147h57z" />
    <glyph glyph-name="breve.uc" horiz-adv-x="500" 
d="M415 927h-43q-6 -42 -37 -66q-30 -24 -83 -24q-52 0 -83 24q-31 25 -37 66h-47q8 -64 47 -100q39 -35 120 -35q82 0 119 36q38 35 44 99z" />
    <glyph glyph-name="macron.uc" horiz-adv-x="500" 
d="M102 836v-46h296v46h-296z" />
    <glyph glyph-name="acute.uc" horiz-adv-x="652" 
d="M279 780h58l106 147h-67z" />
    <glyph glyph-name="circumflex.lc" horiz-adv-x="526" 
d="M263 699l93 -109h57l-123 147h-54l-123 -147h57z" />
    <glyph glyph-name="dotlessi1" horiz-adv-x="245" 
d="M97 482v-482h51v482h-51z" />
    <glyph glyph-name="grave.uc" horiz-adv-x="652" 
d="M209 927l106 -147h58l-97 147h-67z" />
    <glyph glyph-name="acute.lc" horiz-adv-x="526" 
d="M216 590h58l106 147h-67z" />
    </font>
</defs>
</svg>
